SplineFontDB: 3.2
FontName: SimplySerif-BoldItalic
FullName: Simply Serif Bold Italic
FamilyName: Simply Serif
Weight: Bold
Copyright: Copyright (c) 2022-2026 by Wojciech Kalinowski "wmk69" with Reserved Font Name "SimplySerif-BoldItalic".\nThis Font Software is licensed under the SIL Open Font License, Version 1.1.
Version: 1.0.0; 2022-02-18
ItalicAngle: -12
UnderlinePosition: -80
UnderlineWidth: 320
Ascent: 1638
Descent: 410
InvalidEm: 0
LayerCount: 2
Layer: 0 1 "Warstwa t+AUIA-a" 1
Layer: 1 1 "Plan pierwszy" 0
XUID: [1021 783 23647091 2952791]
StyleMap: 0x0021
FSType: 0
OS2Version: 3
OS2_WeightWidthSlopeOnly: 0
OS2_UseTypoMetrics: 1
CreationTime: 1260698820
ModificationTime: 1645187278
PfmFamily: 17
TTFWeight: 700
TTFWidth: 5
LineGap: 200
VLineGap: 0
Panose: 2 1 8 3 7 4 5 13 2 4
OS2TypoAscent: 2000
OS2TypoAOffset: 0
OS2TypoDescent: -500
OS2TypoDOffset: 0
OS2TypoLinegap: 200
OS2WinAscent: 2000
OS2WinAOffset: 0
OS2WinDescent: 500
OS2WinDOffset: 0
HheadAscent: 2000
HheadAOffset: 0
HheadDescent: -500
HheadDOffset: 0
OS2SubXSize: 1434
OS2SubYSize: 1331
OS2SubXOff: 0
OS2SubYOff: 287
OS2SupXSize: 1434
OS2SupYSize: 1331
OS2SupXOff: 0
OS2SupYOff: 977
OS2StrikeYSize: 102
OS2StrikeYPos: 512
OS2CapHeight: 1510
OS2XHeight: 1100
OS2Vendor: '    '
OS2CodePages: 20000093.00000000
OS2UnicodeRanges: 8000002f.4000204b.00000000.00000000
Lookup: 258 0 0 "'kern' Kerning poziomy w tablicy 0" { "Podtablica 'kern' Kerning poziomy w tablicy 0" [307,0,4] } ['kern' ('DFLT' <'dflt' > 'grek' <'dflt' > 'latn' <'dflt' > ) ]
MarkAttachClasses: 1
DEI: 91125
KernClass2: 74 55 "Podtablica 'kern' Kerning poziomy w tablicy 0"
 84 A Agrave Aacute Acircumflex Atilde Adieresis Aring Amacron Abreve Aogonek Aringacute
 17 B uni1E02 uni1E9E
 47 C Ccedilla Cacute Ccircumflex Cdotaccent Ccaron
 122 D O Q Eth Ograve Oacute Ocircumflex Otilde Odieresis Oslash Dcaron Dcroat Omacron Obreve Ohungarumlaut Oslashacute uni1E0A

StartChar: .notdef
Encoding: 65536 -1 0
Width: 1114
Flags: W
HStem: 0 118<363 801> 1392 118<634 1072>
VStem: 150 814<0 814> 471 814<696 1510>
DStem2: 150 0 337.918 0 0.207912 0.978148<159.707 1462.21> 775.918 0 964 0 0.207912 0.978148<120.636 1423.14>
LayerCount: 2
Fore
SplineSet
150 0 m 1,0,-1
 471 1510 l 1,1,-1
 1285 1510 l 1,2,-1
 964 0 l 1,3,-1
 150 0 l 1,0,-1
363 118 m 1,4,-1
 801 118 l 1,5,-1
 1072 1392 l 1,6,-1
 634 1392 l 1,7,-1
 363 118 l 1,4,-1
EndSplineSet
Validated: 1
EndChar

StartChar: A
Encoding: 65 65 4
Width: 1593
GlyphClass: 2
Flags: W
HStem: 0 80<28.7158 165.995 1479 1581.28> 605 140<705 1058> 1430 80<812.716 914.803>
DStem2: 166 120 608 605 0.507998 0.861358<-72.6017 642.294 812.16 1356.85> 1263 1434 982 1214 0.162207 -0.986757<171.506 646.623 788.662 1378.43>
LayerCount: 2
Fore
SplineSet
176 0 m 2,0,-1
 35 0 l 2,1,2
 22 0 22 0 22 9 c 0,3,4
 22 10 22 10 23 15 c 2,5,-1
 34 65 l 2,6,7
 37 80 37 80 52 80 c 2,8,-1
 97 80 l 2,9,10
 142 80 142 80 166 120 c 2,11,-1
 915 1390 l 1,12,13
 909 1430 909 1430 864 1430 c 2,14,-1
 819 1430 l 2,15,16
 806 1430 806 1430 806 1438 c 4,17,18
 806 1440 806 1440 807 1445 c 2,19,-1
 818 1495 l 2,20,21
 821 1510 821 1510 836 1510 c 2,22,-1
 1161 1510 l 2,23,24
 1251 1510 1251 1510 1263 1434 c 2,25,-1
 1479 120 l 2,26,27
 1486 80 1486 80 1530 80 c 2,28,-1
 1575 80 l 2,29,30
 1588 80 1588 80 1588 71 c 0,31,32
 1588 70 1588 70 1587 65 c 2,33,-1
 1576 15 l 2,34,35
 1573 0 1573 0 1558 0 c 2,36,-1
 1270 0 l 2,37,38
 1180 0 1180 0 1168 76 c 2,39,-1
 1082 605 l 1,40,-1
 608 605 l 1,41,-1
 310 76 l 2,42,43
 267 0 267 0 176 0 c 2,0,-1
1058 745 m 1,44,-1
 982 1214 l 1,45,-1
 705 745 l 1,46,-1
 1058 745 l 1,44,-1
EndSplineSet
Validated: 1
EndChar

StartChar: E
Encoding: 69 69 5
Width: 1251
GlyphClass: 2
Flags: W
HStem: 0 140<520 1104.88> 0 80<28.7158 184.548> 685 140<665 963.996> 1370 140<781 1294.35> 1430 80<332.716 454.947>
DStem2: 169.865 0 490.242 0 0.207912 0.978148<209.738 766.946 909.916 1398.53> 842.157 0 922.157 0 0.207912 0.978148<551.291 625.215 849.961 1009.09>
LayerCount: 2
Fore
SplineSet
1022 0 m 2,0,1
 35 0 l 2,2,3
 22 0 22 0 22 8 c 0,4,5
 22 10 22 10 23 15 c 2,6,-1
 34 65 l 2,7,8
 37 80 37 80 52 80 c 2,9,-1
 97 80 l 2,10,11
 187 80 187 80 206 170 c 2,12,-1
 455 1340 l 2,13,14
 458 1354 458 1354 458 1369 c 0,15,16
 458 1430 458 1430 384 1430 c 2,17,-1
 339 1430 l 2,18,19
 326 1430 326 1430 326 1438 c 0,20,21
 326 1440 326 1440 327 1445 c 2,22,-1
 338 1495 l 2,23,24
 341 1510 341 1510 356 1510 c 2,25,-1
 1291 1510 l 2,26,27
 1361 1510 1361 1510 1385 1447 c 2,28,-1
 1455 1263 l 2,29,30
 1457 1258 1457 1258 1457 1257 c 0,31,32
 1457 1250 1457 1250 1444 1244 c 2,33,-1
 1387 1216 l 2,34,35
 1383 1214 1383 1214 1380 1214 c 0,36,37
 1373 1214 1373 1214 1369 1224 c 0,38,39
 1312 1370 1312 1370 1143 1370 c 2,40,-1
 781 1370 l 1,41,-1
 665 825 l 1,42,-1
 927 825 l 2,43,44
 1019 825 1019 825 1043 945 c 2,45,-1
 1047 965 l 2,46,47
 1050 979 1050 979 1064 979 c 2,48,-1
 1114 979 l 2,49,50
 1128 979 1128 979 1128 971 c 0,51,52
 1128 970 1128 970 1127 965 c 2,53,-1
 1038 545 l 2,54,55
 1035 531 1035 531 1019 531 c 2,56,-1
 969 531 l 2,57,58
 957 531 957 531 957 538 c 0,59,60
 957 540 957 540 958 545 c 2,61,-1
 962 565 l 2,62,63
 968 595 968 595 968 613 c 0,64,65
 968 685 968 685 898 685 c 2,66,-1
 636 685 l 1,67,-1
 520 140 l 1,68,-1
 934 140 l 2,69,70
 1105 140 1105 140 1222 286 c 0,71,72
 1230 296 1230 296 1237 296 c 0,73,74
 1240 296 1240 296 1243 294 c 2,75,-1
 1289 266 l 2,76,77
 1295 262 1295 262 1295 256 c 0,78,79
 1295 251 1295 251 1292 247 c 2,80,-1
 1142 63 l 2,81,82
 1091 0 1091 0 1022 0 c 2,0,1
EndSplineSet
Validated: 1
EndChar

StartChar: F
Encoding: 70 70 6
Width: 1199
GlyphClass: 2
Flags: W
HStem: 0 21G<217 450> 685 140<665 963.996> 1370 140<781 1294.35> 1430 80<332.716 454.947>
DStem2: 170.208 0 490.208 0 0.207912 0.978148<62.183 766.875 909.845 1398.46> 842.157 0 922.157 0 0.207912 0.978148<551.291 624.268 849.961 1009.09>
LayerCount: 2
Fore
SplineSet
250 0 m 2,0,1
 184 0 184 0 184 54 c 0,2,3
 184 65 184 65 187 79 c 2,4,-1
 455 1340 l 2,5,6
 458 1354 458 1354 458 1369 c 0,7,8
 458 1430 458 1430 384 1430 c 2,9,-1
 339 1430 l 2,10,11
 326 1430 326 1430 326 1438 c 0,12,13
 326 1440 326 1440 327 1445 c 2,14,-1
 338 1495 l 2,15,16
 341 1510 341 1510 356 1510 c 2,17,-1
 1291 1510 l 2,18,19
 1361 1510 1361 1510 1385 1447 c 2,20,-1
 1455 1263 l 2,21,22
 1457 1258 1457 1258 1457 1257 c 0,23,24
 1457 1250 1457 1250 1444 1244 c 2,25,-1
 1387 1216 l 2,26,27
 1383 1214 1383 1214 1380 1214 c 0,28,29
 1373 1214 1373 1214 1369 1224 c 0,30,31
 1312 1370 1312 1370 1143 1370 c 2,32,-1
 781 1370 l 1,33,-1
 665 825 l 1,34,-1
 927 825 l 2,35,36
 1019 825 1019 825 1043 945 c 2,37,-1
 1047 965 l 2,38,39
 1050 979 1050 979 1064 979 c 2,40,-1
 1114 979 l 2,41,42
 1128 979 1128 979 1128 971 c 0,43,44
 1128 970 1128 970 1127 965 c 2,45,-1
 1038 545 l 2,46,47
 1035 531 1035 531 1019 531 c 2,48,-1
 969 531 l 2,49,50
 957 531 957 531 957 539 c 0,51,52
 957 540 957 540 958 545 c 2,53,-1
 962 565 l 2,54,55
 968 595 968 595 968 612 c 0,56,57
 968 685 968 685 898 685 c 2,58,-1
 636 685 l 1,59,-1
 507 79 l 2,60,61
 490 0 490 0 410 0 c 2,62,-1
 250 0 l 2,0,1
EndSplineSet
Validated: 1
EndChar

StartChar: H
Encoding: 72 72 7
Width: 1459
GlyphClass: 2
Flags: W
HStem: 0 80<28.7158 184.548 1325.05 1447.28> 685 140<665 1115> 1430 80<332.716 454.947 1595.45 1751.28>
VStem: 458 328<1188.2 1426.58> 994 328<83.4235 321.797>
DStem2: 169.865 0 490.242 0 0.207912 0.978148<84.7551 766.946 909.916 1398.53> 969.242 0 1288.87 0 0.207912 0.978148<211.72 700.336 843.306 1525.5>
CounterMasks: 1 e0
LayerCount: 2
Fore
SplineSet
350 0 m 2,0,-1
 35 0 l 2,1,2
 22 0 22 0 22 8 c 0,3,4
 22 10 22 10 23 15 c 2,5,-1
 34 65 l 2,6,7
 37 80 37 80 52 80 c 2,8,-1
 97 80 l 2,9,10
 187 80 187 80 206 170 c 2,11,-1
 455 1340 l 2,12,13
 458 1354 458 1354 458 1369 c 0,14,15
 458 1430 458 1430 384 1430 c 2,16,-1
 339 1430 l 2,17,18
 326 1430 326 1430 326 1439 c 0,19,20
 326 1440 326 1440 327 1445 c 2,21,-1
 338 1495 l 2,22,23
 341 1510 341 1510 356 1510 c 2,24,-1
 671 1510 l 2,25,26
 786 1510 786 1510 786 1415 c 0,27,28
 786 1393 786 1393 781 1370 c 2,29,-1
 665 825 l 1,30,-1
 1144 825 l 1,31,-1
 1260 1370 l 2,32,33
 1290 1510 1290 1510 1430 1510 c 2,34,-1
 1745 1510 l 2,35,36
 1758 1510 1758 1510 1758 1501 c 0,37,38
 1758 1500 1758 1500 1757 1495 c 2,39,-1
 1746 1445 l 2,40,41
 1743 1430 1743 1430 1728 1430 c 2,42,-1
 1683 1430 l 2,43,44
 1593 1430 1593 1430 1574 1340 c 2,45,-1
 1325 170 l 2,46,47
 1322 156 1322 156 1322 141 c 0,48,49
 1322 80 1322 80 1396 80 c 2,50,-1
 1441 80 l 2,51,52
 1454 80 1454 80 1454 72 c 0,53,54
 1454 70 1454 70 1453 65 c 2,55,-1
 1442 15 l 2,56,57
 1439 0 1439 0 1424 0 c 2,58,-1
 1109 0 l 2,59,60
 994 0 994 0 994 95 c 0,61,62
 994 117 994 117 999 140 c 2,63,-1
 1115 685 l 1,64,-1
 636 685 l 1,65,-1
 520 140 l 2,66,67
 490 0 490 0 350 0 c 2,0,-1
EndSplineSet
Validated: 1
EndChar

StartChar: I
Encoding: 73 73 8
Width: 650
GlyphClass: 2
Flags: W
HStem: 0 21G<217 450> 1430 80<332.716 454.947>
VStem: 458 328<1185.41 1426.58>
DStem2: 170.208 0 490.208 0 0.207912 0.978148<62.183 1398.46>
LayerCount: 2
Fore
SplineSet
410 0 m 2,0,-1
 250 0 l 2,1,2
 184 0 184 0 184 54 c 0,3,4
 184 65 184 65 187 79 c 2,5,-1
 455 1340 l 2,6,7
 458 1354 458 1354 458 1369 c 0,8,9
 458 1430 458 1430 384 1430 c 2,10,-1
 339 1430 l 2,11,12
 326 1430 326 1430 326 1438 c 0,13,14
 326 1440 326 1440 327 1445 c 2,15,-1
 338 1495 l 2,16,17
 341 1510 341 1510 356 1510 c 2,18,-1
 671 1510 l 2,19,20
 786 1510 786 1510 786 1415 c 0,21,22
 786 1394 786 1394 781 1370 c 2,23,-1
 507 79 l 2,24,25
 490 0 490 0 410 0 c 2,0,-1
EndSplineSet
Validated: 1
EndChar

StartChar: L
Encoding: 76 76 9
Width: 1241
GlyphClass: 2
Flags: W
HStem: 0 140<520 1094.88> 0 80<28.7158 184.548> 1430 80<332.716 454.947>
VStem: 458 328<1195.39 1426.58>
DStem2: 169.865 0 490.242 0 0.207912 0.978148<209.738 1398.53>
LayerCount: 2
Fore
SplineSet
1012 0 m 2,0,-1
 35 0 l 2,1,2
 22 0 22 0 22 8 c 0,3,4
 22 10 22 10 23 15 c 2,5,-1
 34 65 l 2,6,7
 37 80 37 80 52 80 c 2,8,-1
 97 80 l 2,9,10
 187 80 187 80 206 170 c 2,11,-1
 455 1340 l 2,12,13
 458 1354 458 1354 458 1369 c 0,14,15
 458 1430 458 1430 384 1430 c 2,16,-1
 339 1430 l 2,17,18
 326 1430 326 1430 326 1438 c 0,19,20
 326 1440 326 1440 327 1445 c 2,21,-1
 338 1495 l 2,22,23
 341 1510 341 1510 356 1510 c 2,24,-1
 671 1510 l 2,25,26
 786 1510 786 1510 786 1415 c 0,27,28
 786 1394 786 1394 781 1370 c 2,29,-1
 520 140 l 1,30,-1
 924 140 l 2,31,32
 1095 140 1095 140 1212 286 c 0,33,34
 1220 296 1220 296 1227 296 c 0,35,36
 1230 296 1230 296 1233 294 c 2,37,-1
 1279 266 l 2,38,39
 1286 262 1286 262 1286 257 c 128,-1,40
 1286 252 1286 252 1282 247 c 2,41,-1
 1132 63 l 2,42,43
 1081 0 1081 0 1012 0 c 2,0,-1
EndSplineSet
Validated: 1
EndChar

StartChar: O
Encoding: 79 79 10
Width: 1554
GlyphClass: 2
Flags: W
HStem: -20 120<666.644 949.921> 1410 120<925.281 1208.25>
VStem: 199 340<314.776 816.386> 1336 340<698.142 1195.22>
LayerCount: 2
Fore
SplineSet
799 100 m 0,0,1
 953 100 953 100 1090 270 c 0,2,3
 1241 459 1241 459 1305 755 c 0,4,5
 1336 899 1336 899 1336 1012 c 0,6,7
 1336 1143 1336 1143 1297 1240 c 0,8,9
 1227 1410 1227 1410 1076 1410 c 0,10,11
 922 1410 922 1410 785 1240 c 24,12,13
 633 1050 633 1050 569 755 c 0,14,15
 539 613 539 613 539 498 c 0,16,17
 539 367 539 367 578 270 c 0,18,19
 647 100 647 100 799 100 c 0,0,1
773 -20 m 128,-1,21
 445 -20 445 -20 296 211 c 0,22,23
 199 363 199 363 199 559 c 0,24,25
 199 652 199 652 220 755 c 0,26,27
 288 1077 288 1077 527 1299 c 0,28,29
 775 1530 775 1530 1102 1530 c 0,30,31
 1431 1530 1431 1530 1579 1299 c 0,32,33
 1676 1147 1676 1147 1676 951 c 0,34,35
 1676 858 1676 858 1654 755 c 0,36,37
 1586 435 1586 435 1348 211 c 0,38,20
 1101 -20 1101 -20 773 -20 c 128,-1,21
EndSplineSet
Validated: 1
EndChar

StartChar: V
Encoding: 86 86 11
Width: 1597
GlyphClass: 2
Flags: W
HStem: 0 21G<662.5 938.5> 1430 80<332.716 434.999 1752 1889.28>
DStem2: 753 1434 435 1390 0.130278 -0.991477<-43.3422 1264.42> 915 180 1026 80 0.484736 0.874661<0 1534.12>
LayerCount: 2
Fore
SplineSet
707 0 m 2,0,1
 618 0 618 0 607 81 c 2,2,-1
 435 1390 l 2,3,4
 430 1430 430 1430 384 1430 c 2,5,-1
 339 1430 l 2,6,7
 326 1430 326 1430 326 1438 c 0,8,9
 326 1440 326 1440 327 1445 c 2,10,-1
 338 1495 l 2,11,12
 341 1510 341 1510 356 1510 c 2,13,-1
 651 1510 l 2,14,15
 743 1510 743 1510 753 1434 c 2,16,-1
 915 180 l 1,17,-1
 1612 1434 l 2,18,19
 1654 1510 1654 1510 1746 1510 c 2,20,-1
 1883 1510 l 2,21,22
 1896 1510 1896 1510 1896 1502 c 0,23,24
 1896 1500 1896 1500 1895 1495 c 2,25,-1
 1884 1445 l 2,26,27
 1881 1430 1881 1430 1866 1430 c 2,28,-1
 1821 1430 l 2,29,30
 1774 1430 1774 1430 1752 1390 c 2,31,-1
 1026 80 l 2,32,33
 982 0 982 0 895 0 c 2,34,-1
 707 0 l 2,0,1
EndSplineSet
Validated: 1
EndChar

StartChar: W
Encoding: 87 87 12
Width: 2164
GlyphClass: 2
Flags: W
HStem: 0 21G<662.5 938.5 1229.5 1505.5> 1430 80<332.716 434.999 899.716 1002 1753.14 1889.28 2319 2456.28>
DStem2: 753 1434 435 1390 0.130278 -0.991477<-43.3422 1278.56> 917 166 1026 80 0.484736 0.874661<0 224.71 930.2 1544.73> 1310 1434 1002 1390 0.130278 -0.991477<-41.594 458.809 687.652 876.971 1106.94 1277.57> 1474 167 1593 80 0.484736 0.874661<0 1549.37>
LayerCount: 2
Fore
SplineSet
707 0 m 2,0,1
 618 0 618 0 607 81 c 2,2,-1
 435 1390 l 2,3,4
 430 1430 430 1430 384 1430 c 2,5,-1
 339 1430 l 2,6,7
 326 1430 326 1430 326 1438 c 0,8,9
 326 1440 326 1440 327 1445 c 2,10,-1
 338 1495 l 2,11,12
 341 1510 341 1510 356 1510 c 2,13,-1
 651 1510 l 2,14,15
 743 1510 743 1510 753 1434 c 2,16,-1
 917 166 l 1,17,-1
 1116 524 l 1,18,-1
 1002 1390 l 2,19,20
 997 1430 997 1430 951 1430 c 2,21,-1
 906 1430 l 2,22,23
 893 1430 893 1430 893 1438 c 0,24,25
 893 1440 893 1440 894 1445 c 2,26,-1
 905 1495 l 2,27,28
 908 1510 908 1510 923 1510 c 2,29,-1
 1208 1510 l 2,30,31
 1300 1510 1300 1510 1310 1434 c 2,32,-1
 1369 979 l 1,33,-1
 1622 1434 l 2,34,35
 1664 1510 1664 1510 1756 1510 c 2,36,-1
 1883 1510 l 2,37,38
 1896 1510 1896 1510 1896 1502 c 0,39,40
 1896 1500 1896 1500 1895 1495 c 2,41,-1
 1884 1445 l 2,42,43
 1881 1430 1881 1430 1866 1430 c 2,44,-1
 1821 1430 l 2,45,46
 1774 1430 1774 1430 1752 1390 c 2,47,-1
 1398 752 l 1,48,-1
 1474 167 l 1,49,-1
 2179 1434 l 2,50,51
 2221 1510 2221 1510 2313 1510 c 2,52,-1
 2450 1510 l 2,53,54
 2463 1510 2463 1510 2463 1502 c 0,55,56
 2463 1500 2463 1500 2462 1495 c 2,57,-1
 2451 1445 l 2,58,59
 2448 1430 2448 1430 2433 1430 c 2,60,-1
 2388 1430 l 2,61,62
 2341 1430 2341 1430 2319 1390 c 2,63,-1
 1593 80 l 2,64,65
 1549 0 1549 0 1462 0 c 2,66,-1
 1274 0 l 2,67,68
 1185 0 1185 0 1174 81 c 2,69,-1
 1146 296 l 1,70,-1
 1026 80 l 2,71,72
 982 0 982 0 895 0 c 2,73,-1
 707 0 l 2,0,1
EndSplineSet
Validated: 1
EndChar

StartChar: Z
Encoding: 90 90 13
Width: 1226
GlyphClass: 2
Flags: W
HStem: 0 140<460 1068.89> 1370 140<479.11 1030>
DStem2: 61 104 460 140 0.607799 0.794091<271.099 1594.28>
LayerCount: 2
Fore
SplineSet
84 0 m 2,0,1
 29 0 29 0 29 42 c 0,2,3
 29 62 29 62 61 104 c 2,4,-1
 1030 1370 l 1,5,-1
 649 1370 l 2,6,7
 480 1370 480 1370 361 1224 c 0,8,9
 353 1214 353 1214 346 1214 c 0,10,11
 343 1214 343 1214 339 1216 c 2,12,-1
 294 1244 l 2,13,14
 287 1249 287 1249 287 1255 c 0,15,16
 287 1257 287 1257 291 1263 c 2,17,-1
 441 1447 l 2,18,19
 492 1510 492 1510 561 1510 c 2,20,-1
 1406 1510 l 2,21,22
 1460 1510 1460 1510 1460 1473 c 0,23,24
 1460 1447 1460 1447 1429 1406 c 2,25,-1
 460 140 l 1,26,-1
 899 140 l 2,27,28
 1068 140 1068 140 1187 286 c 0,29,30
 1195 296 1195 296 1202 296 c 0,31,32
 1205 296 1205 296 1208 294 c 2,33,-1
 1254 266 l 2,34,35
 1260 262 1260 262 1260 256 c 0,36,37
 1260 251 1260 251 1257 247 c 2,38,-1
 1107 63 l 2,39,40
 1056 0 1056 0 987 0 c 2,41,-1
 84 0 l 2,0,1
EndSplineSet
Validated: 1
EndChar

StartChar: c
Encoding: 99 99 14
Width: 1145
GlyphClass: 2
Flags: W
HStem: -20 111<550.855 868.852> 1009 111<723.931 1039.89>
VStem: 161 306<204.932 633.142> 1122 132<725.344 928.316> 1122 83<690 772.629>
LayerCount: 2
Fore
SplineSet
609 -20 m 0,0,1
 373 -20 373 -20 257 123 c 0,2,3
 161 243 161 243 161 408 c 0,4,5
 161 475 161 475 177 550 c 0,6,7
 233 812 233 812 438 976 c 0,8,9
 619 1120 619 1120 851 1120 c 0,10,11
 1097 1120 1097 1120 1233 996 c 0,12,13
 1254 977 1254 977 1254 946 c 0,14,15
 1254 936 1254 936 1251 922 c 2,16,-1
 1205 705 l 2,17,18
 1202 690 1202 690 1187 690 c 2,19,-1
 1134 690 l 2,20,21
 1122 690 1122 690 1122 703 c 0,22,23
 1122 704 1122 704 1122 705 c 0,24,25
 1124 731 1124 731 1124 754 c 0,26,27
 1124 1009 1124 1009 888 1009 c 0,28,29
 750 1009 750 1009 658 913 c 0,30,31
 543 793 543 793 490 550 c 0,32,33
 467 444 467 444 467 362 c 0,34,35
 467 260 467 260 502 195 c 0,36,37
 558 91 558 91 693 91 c 0,38,39
 955 91 955 91 1056 395 c 0,40,41
 1061 410 1061 410 1074 410 c 2,42,-1
 1127 410 l 2,43,44
 1140 410 1140 410 1140 401 c 0,45,46
 1140 400 1140 400 1139 395 c 2,47,-1
 1093 178 l 2,48,49
 1083 130 1083 130 1043 104 c 0,50,51
 862 -20 862 -20 609 -20 c 0,0,1
EndSplineSet
Validated: 1
EndChar

StartChar: d
Encoding: 100 100 15
Width: 1272
GlyphClass: 2
Flags: W
HStem: -20 111<533.058 738.725> 0 80<1138.05 1260.28> 1009 111<704.381 918.24> 1430 80<964.716 1086.95>
VStem: 161 304<205.432 630.065> 1090 308<1183.75 1426.58>
DStem2: 797.766 -20 1097.61 -20 0.207912 0.978148<228.055 944.463 1063.27 1418.95>
LayerCount: 2
Fore
SplineSet
942 0 m 2,0,1
 832 0 832 0 826 87 c 1,2,3
 727 -20 727 -20 579 -20 c 0,4,5
 373 -20 373 -20 257 123 c 0,6,7
 161 243 161 243 161 408 c 0,8,9
 161 475 161 475 177 550 c 0,10,11
 234 817 234 817 438 976 c 0,12,13
 624 1120 624 1120 821 1120 c 0,14,15
 962 1120 962 1120 1019 1020 c 1,16,-1
 1087 1340 l 2,17,18
 1090 1354 1090 1354 1090 1369 c 0,19,20
 1090 1430 1090 1430 1016 1430 c 2,21,-1
 971 1430 l 2,22,23
 958 1430 958 1430 958 1437 c 0,24,25
 958 1440 958 1440 959 1445 c 2,26,-1
 970 1495 l 2,27,28
 973 1510 973 1510 988 1510 c 2,29,-1
 1283 1510 l 2,30,31
 1398 1510 1398 1510 1398 1415 c 0,32,33
 1398 1394 1398 1394 1393 1370 c 2,34,-1
 1138 170 l 2,35,36
 1135 156 1135 156 1135 141 c 0,37,38
 1135 80 1135 80 1209 80 c 2,39,-1
 1254 80 l 2,40,41
 1267 80 1267 80 1267 72 c 0,42,43
 1267 70 1267 70 1266 65 c 2,44,-1
 1255 15 l 2,45,46
 1252 0 1252 0 1237 0 c 2,47,-1
 942 0 l 2,0,1
632 91 m 0,48,49
 710 91 710 91 801 195 c 0,50,51
 837 235 837 235 867 305 c 1,52,-1
 971 795 l 1,53,54
 971 870 971 870 951 913 c 0,55,56
 907 1009 907 1009 826 1009 c 0,57,58
 731 1009 731 1009 648 913 c 0,59,60
 541 791 541 791 490 550 c 0,61,62
 465 432 465 432 465 345 c 0,63,64
 465 253 465 253 492 195 c 0,65,66
 542 91 542 91 632 91 c 0,48,49
EndSplineSet
Validated: 1
EndChar

StartChar: e
Encoding: 101 101 16
Width: 1188
GlyphClass: 2
Flags: W
HStem: -20 111<550.855 866.391> 377 118<482.808 871.492> 1009 111<704.662 931.795>
VStem: 161 306<204.874 500.214> 995 286<601.697 927.414>
LayerCount: 2
Fore
SplineSet
481 503 m 1,0,1
 557 495 557 495 629 495 c 0,2,3
 849 495 849 495 933 581 c 0,4,5
 980 629 980 629 991 706 c 0,6,7
 995 733 995 733 995 754 c 0,8,9
 995 850 995 850 966 913 c 0,10,11
 921 1009 921 1009 826 1009 c 128,-1,12
 731 1009 731 1009 648 913 c 0,13,14
 543 793 543 793 490 550 c 0,15,16
 485 526 485 526 481 503 c 1,0,1
468 389 m 1,17,18
 467 375 467 375 467 362 c 0,19,20
 467 259 467 259 502 195 c 0,21,22
 558 91 558 91 693 91 c 0,23,24
 955 91 955 91 1056 395 c 0,25,26
 1061 410 1061 410 1074 410 c 2,27,-1
 1127 410 l 2,28,29
 1140 410 1140 410 1140 400 c 0,30,31
 1139 395 l 2,32,-1
 1093 178 l 2,33,34
 1083 130 1083 130 1043 104 c 0,35,36
 852 -20 852 -20 609 -20 c 0,37,38
 373 -20 373 -20 257 123 c 0,39,40
 161 243 161 243 161 408 c 0,41,42
 161 475 161 475 177 550 c 0,43,44
 233 815 233 815 438 976 c 0,45,46
 622 1120 622 1120 851 1120 c 0,47,48
 1078 1120 1078 1120 1202 976 c 0,49,50
 1281 884 1281 884 1281 757 c 0,51,52
 1281 730 1281 730 1279 712 c 0,53,54
 1270 635 1270 635 1226 577 c 0,55,56
 1075 378 1075 378 724 377 c 0,57,58
 581 377 581 377 468 389 c 1,17,18
EndSplineSet
Validated: 1
EndChar

StartChar: h
Encoding: 104 104 17
Width: 1348
GlyphClass: 2
Flags: W
HStem: 0 80<1214.05 1336.28> 951 169<928.991 1177.5> 1430 80<332.716 454.947>
VStem: 458 309<1193.52 1425.63> 903 308<83.4235 323.516> 1052 303<708.996 902.405>
DStem2: 170.208 0 469.993 0 0.207912 0.978148<649.152 1398.46> 878.242 0 1177.87 0 0.207912 0.978148<207.561 874.122>
LayerCount: 2
Fore
SplineSet
250 0 m 2,0,1
 184 0 184 0 184 54 c 0,2,3
 184 65 184 65 187 79 c 2,4,-1
 455 1340 l 2,5,6
 458 1354 458 1354 458 1369 c 0,7,8
 458 1430 458 1430 384 1430 c 2,9,-1
 339 1430 l 2,10,11
 326 1430 326 1430 326 1438 c 0,12,13
 326 1440 326 1440 327 1445 c 2,14,-1
 338 1495 l 2,15,16
 341 1510 341 1510 356 1510 c 2,17,-1
 651 1510 l 2,18,19
 767 1510 767 1510 767 1416 c 0,20,21
 767 1395 767 1395 762 1372 c 2,22,-1
 592 574 l 1,23,24
 769 1120 769 1120 1106 1120 c 0,25,26
 1249 1120 1249 1120 1312 1036 c 0,27,28
 1355 979 1355 979 1355 886 c 0,29,30
 1355 831 1355 831 1342 770 c 2,31,-1
 1214 170 l 2,32,33
 1211 156 1211 156 1211 141 c 0,34,35
 1211 80 1211 80 1285 80 c 2,36,-1
 1330 80 l 2,37,38
 1343 80 1343 80 1343 72 c 0,39,40
 1343 70 1343 70 1342 65 c 2,41,-1
 1331 15 l 2,42,43
 1328 0 1328 0 1313 0 c 2,44,-1
 1018 0 l 2,45,46
 903 0 903 0 903 95 c 0,47,48
 903 116 903 116 908 140 c 2,49,-1
 1042 770 l 2,50,51
 1052 817 1052 817 1052 858 c 0,52,53
 1052 884 1052 884 1047 903 c 0,54,55
 1033 951 1033 951 979 951 c 0,56,57
 752 951 752 951 487 79 c 0,58,59
 463 0 463 0 390 0 c 2,60,-1
 250 0 l 2,0,1
EndSplineSet
Validated: 1
EndChar

StartChar: i
Encoding: 105 105 18
Width: 640
GlyphClass: 2
Flags: W
HStem: 0 80<506.053 628.284> 1020 80<245.716 367.947> 1180 365<462.131 696.878>
VStem: 371 308<778.359 1016.58> 400 360<1242.57 1482.58>
DStem2: 170.242 0 469.865 0 0.207912 0.978148<207.561 979.325>
LayerCount: 2
Fore
SplineSet
580 1545 m 128,-1,1
 655 1545 655 1545 707.5 1491.5 c 128,-1,2
 760 1438 760 1438 760 1363 c 128,-1,3
 760 1288 760 1288 707 1234 c 128,-1,4
 654 1180 654 1180 580 1180 c 0,5,6
 504 1180 504 1180 452 1234 c 128,-1,7
 400 1288 400 1288 400 1362 c 0,8,9
 400 1438 400 1438 452 1491 c 0,10,0
 505 1545 505 1545 580 1545 c 128,-1,1
310 0 m 2,11,12
 195 0 195 0 195 95 c 0,13,14
 195 116 195 116 200 140 c 2,15,-1
 368 930 l 2,16,17
 371 944 371 944 371 959 c 0,18,19
 371 1020 371 1020 297 1020 c 2,20,-1
 252 1020 l 2,21,22
 239 1020 239 1020 239 1029 c 0,23,24
 239 1030 239 1030 240 1035 c 2,25,-1
 251 1085 l 2,26,27
 254 1100 254 1100 269 1100 c 2,28,-1
 564 1100 l 2,29,30
 679 1100 679 1100 679 1005 c 0,31,32
 679 984 679 984 674 960 c 2,33,-1
 506 170 l 2,34,35
 503 156 503 156 503 141 c 0,36,37
 503 80 503 80 577 80 c 2,38,-1
 622 80 l 2,39,40
 635 80 635 80 635 71 c 0,41,42
 635 70 635 70 634 65 c 2,43,-1
 623 15 l 2,44,45
 620 0 620 0 605 0 c 2,46,-1
 310 0 l 2,11,12
EndSplineSet
Validated: 1
EndChar

StartChar: j
Encoding: 106 106 19
Width: 630
GlyphClass: 2
Flags: W
HStem: -410 50<-133.95 -24.6484> 1020 80<245.716 367.947> 1180 365<462.131 696.878>
VStem: 371 308<780.625 1016.58> 400 360<1242.57 1482.58>
DStem2: 83.1742 -410 382.798 -410 0.207912 0.978148<255.296 1398.47>
LayerCount: 2
Fore
SplineSet
580 1545 m 128,-1,1
 655 1545 655 1545 707.5 1491.5 c 128,-1,2
 760 1438 760 1438 760 1363 c 128,-1,3
 760 1288 760 1288 707 1234 c 128,-1,4
 654 1180 654 1180 580 1180 c 0,5,6
 504 1180 504 1180 452 1234 c 128,-1,7
 400 1288 400 1288 400 1362 c 0,8,9
 400 1438 400 1438 452 1491 c 0,10,0
 505 1545 505 1545 580 1545 c 128,-1,1
-124 -410 m 0,11,12
 -137 -410 -137 -410 -137 -401 c 0,13,14
 -137 -400 -137 -400 -136 -395 c 2,15,-1
 -132 -375 l 2,16,17
 -129 -360 -129 -360 -113 -360 c 16,18,19
 -28 -360 -28 -360 45 -286 c 0,20,21
 126 -206 126 -206 168 -10 c 2,22,-1
 368 930 l 2,23,24
 371 944 371 944 371 959 c 0,25,26
 371 1020 371 1020 297 1020 c 2,27,-1
 252 1020 l 2,28,29
 239 1020 239 1020 239 1028 c 0,30,31
 239 1030 239 1030 240 1035 c 2,32,-1
 251 1085 l 2,33,34
 254 1100 254 1100 269 1100 c 2,35,-1
 564 1100 l 2,36,37
 679 1100 679 1100 679 1005 c 0,38,39
 679 984 679 984 674 960 c 2,40,-1
 468 -10 l 2,41,42
 428 -200 428 -200 284 -311 c 0,43,44
 155 -410 155 -410 -124 -410 c 0,11,12
EndSplineSet
Validated: 1
EndChar

StartChar: k
Encoding: 107 107 20
Width: 1275
GlyphClass: 2
Flags: W
HStem: 0 80<1161 1263.5> 951 169<928.991 1177.5> 1430 80<332.716 454.947>
VStem: 458 309<1193.52 1425.63> 1052 303<735.905 924.044>
DStem2: 170.208 0 469.993 0 0.207912 0.978148<649.152 1398.46> 942 498 658 440 0.501307 -0.86527<0 439.711>
LayerCount: 2
Fore
SplineSet
250 0 m 2,0,1
 184 0 184 0 184 54 c 0,2,3
 184 65 184 65 187 79 c 2,4,-1
 455 1340 l 2,5,6
 458 1354 458 1354 458 1369 c 0,7,8
 458 1430 458 1430 384 1430 c 2,9,-1
 339 1430 l 2,10,11
 326 1430 326 1430 326 1438 c 0,12,13
 326 1440 326 1440 327 1445 c 2,14,-1
 338 1495 l 2,15,16
 341 1510 341 1510 356 1510 c 2,17,-1
 651 1510 l 2,18,19
 767 1510 767 1510 767 1416 c 0,20,21
 767 1395 767 1395 762 1372 c 2,22,-1
 592 574 l 1,23,24
 769 1120 769 1120 1106 1120 c 0,25,26
 1249 1120 1249 1120 1312 1036 c 0,27,28
 1355 979 1355 979 1355 886 c 0,29,30
 1355 755 1355 755 1234 649 c 0,31,32
 1136 564 1136 564 942 498 c 1,33,-1
 1161 120 l 2,34,35
 1184 80 1184 80 1212 80 c 2,36,-1
 1257 80 l 2,37,38
 1264 80 1264 80 1269 70 c 0,39,40
 1270 68 1270 68 1269 65 c 2,41,-1
 1258 15 l 2,42,43
 1255 0 1255 0 1240 0 c 2,44,-1
 984 0 l 2,45,46
 915 0 915 0 872 74 c 2,47,-1
 658 440 l 2,48,49
 645 462 645 462 645 471 c 0,50,51
 645 493 645 493 681 498 c 0,52,53
 869 523 869 523 994 682 c 0,54,55
 1052 756 1052 756 1052 858 c 0,56,57
 1052 884 1052 884 1047 903 c 0,58,59
 1034 951 1034 951 979 951 c 0,60,61
 752 951 752 951 487 79 c 0,62,63
 463 0 463 0 390 0 c 2,64,-1
 250 0 l 2,0,1
EndSplineSet
Validated: 1
EndChar

StartChar: l
Encoding: 108 108 21
Width: 640
GlyphClass: 2
Flags: W
HStem: 0 80<506.053 628.284> 1430 80<332.716 454.947>
VStem: 458 308<1186.25 1426.58>
DStem2: 170.242 0 469.865 0 0.207912 0.978148<207.561 1398.45>
LayerCount: 2
Fore
SplineSet
310 0 m 2,0,1
 195 0 195 0 195 95 c 0,2,3
 195 116 195 116 200 140 c 2,4,-1
 455 1340 l 2,5,6
 458 1354 458 1354 458 1369 c 0,7,8
 458 1430 458 1430 384 1430 c 2,9,-1
 339 1430 l 2,10,11
 326 1430 326 1430 326 1440 c 0,12,13
 327 1445 l 2,14,-1
 338 1495 l 2,15,16
 341 1510 341 1510 356 1510 c 2,17,-1
 651 1510 l 2,18,19
 766 1510 766 1510 766 1415 c 0,20,21
 766 1394 766 1394 761 1370 c 2,22,-1
 506 170 l 2,23,24
 503 156 503 156 503 141 c 0,25,26
 503 80 503 80 577 80 c 2,27,-1
 622 80 l 2,28,29
 635 80 635 80 635 71 c 0,30,31
 635 70 635 70 634 65 c 2,32,-1
 623 15 l 2,33,34
 620 0 620 0 605 0 c 2,35,-1
 310 0 l 2,0,1
EndSplineSet
Validated: 1
EndChar

StartChar: m
Encoding: 109 109 22
Width: 2056
GlyphClass: 2
Flags: W
HStem: 0 80<1922.05 2044.28> 951 169<928.991 1177.5 1636.99 1885.5> 1020 80<245.716 367.947>
VStem: 371 309<781.93 1015.63> 1052 303<718.912 902.405> 1611 308<83.4235 323.516> 1760 303<708.996 902.405>
DStem2: 1586.24 0 1885.87 0 0.207912 0.978148<207.561 874.092>
LayerCount: 2
Fore
SplineSet
250 0 m 2,0,1
 184 0 184 0 184 54 c 0,2,3
 184 65 184 65 187 79 c 2,4,-1
 368 930 l 2,5,6
 371 944 371 944 371 959 c 0,7,8
 371 1020 371 1020 297 1020 c 2,9,-1
 252 1020 l 2,10,11
 239 1020 239 1020 239 1029 c 0,12,13
 239 1030 239 1030 240 1035 c 2,14,-1
 251 1085 l 2,15,16
 254 1100 254 1100 269 1100 c 2,17,-1
 564 1100 l 2,18,19
 680 1100 680 1100 680 1006 c 0,20,21
 680 990 680 990 674 962 c 2,22,-1
 592 574 l 1,23,24
 769 1120 769 1120 1106 1120 c 0,25,26
 1249 1120 1249 1120 1312 1036 c 0,27,28
 1355 979 1355 979 1355 886 c 0,29,30
 1355 831 1355 831 1342 770 c 2,31,-1
 1300 574 l 1,32,33
 1477 1120 1477 1120 1814 1120 c 0,34,35
 1957 1120 1957 1120 2020 1036 c 0,36,37
 2063 979 2063 979 2063 886 c 0,38,39
 2063 831 2063 831 2050 770 c 2,40,-1
 1922 170 l 2,41,42
 1919 156 1919 156 1919 141 c 0,43,44
 1919 80 1919 80 1993 80 c 2,45,-1
 2038 80 l 2,46,47
 2051 80 2051 80 2051 72 c 0,48,49
 2051 70 2051 70 2050 65 c 2,50,-1
 2039 15 l 2,51,52
 2036 0 2036 0 2021 0 c 2,53,-1
 1726 0 l 2,54,55
 1611 0 1611 0 1611 95 c 0,56,57
 1611 116 1611 116 1616 140 c 2,58,-1
 1750 770 l 2,59,60
 1760 816 1760 816 1760 858 c 0,61,62
 1760 884 1760 884 1755 903 c 0,63,64
 1741 951 1741 951 1687 951 c 0,65,66
 1460 951 1460 951 1195 79 c 0,67,68
 1171 0 1171 0 1098 0 c 2,69,-1
 958 0 l 2,70,71
 892 0 892 0 892 54 c 0,72,73
 892 65 892 65 895 79 c 2,74,-1
 1042 770 l 2,75,76
 1052 816 1052 816 1052 858 c 0,77,78
 1052 884 1052 884 1047 903 c 0,79,80
 1033 951 1033 951 979 951 c 0,81,82
 752 951 752 951 487 79 c 0,83,84
 463 0 463 0 390 0 c 2,85,-1
 250 0 l 2,0,1
EndSplineSet
Validated: 1
EndChar

StartChar: n
Encoding: 110 110 23
Width: 1348
GlyphClass: 2
Flags: W
HStem: 0 80<1214.05 1336.28> 951 169<928.991 1177.5> 1020 80<245.716 367.947>
VStem: 371 309<781.93 1015.63> 903 308<83.4235 323.516> 1052 303<708.996 902.405>
DStem2: 878.242 0 1177.87 0 0.207912 0.978148<207.561 874.092>
LayerCount: 2
Fore
SplineSet
250 0 m 2,0,1
 184 0 184 0 184 54 c 0,2,3
 184 65 184 65 187 79 c 2,4,-1
 368 930 l 2,5,6
 371 944 371 944 371 959 c 0,7,8
 371 1020 371 1020 297 1020 c 2,9,-1
 252 1020 l 2,10,11
 239 1020 239 1020 239 1028 c 0,12,13
 239 1030 239 1030 240 1035 c 2,14,-1
 251 1085 l 2,15,16
 254 1100 254 1100 269 1100 c 2,17,-1
 564 1100 l 2,18,19
 680 1100 680 1100 680 1006 c 0,20,21
 680 990 680 990 674 962 c 2,22,-1
 592 574 l 1,23,24
 769 1120 769 1120 1106 1120 c 0,25,26
 1249 1120 1249 1120 1312 1036 c 0,27,28
 1355 979 1355 979 1355 886 c 0,29,30
 1355 831 1355 831 1342 770 c 2,31,-1
 1214 170 l 2,32,33
 1211 156 1211 156 1211 141 c 0,34,35
 1211 80 1211 80 1285 80 c 2,36,-1
 1330 80 l 2,37,38
 1343 80 1343 80 1343 72 c 0,39,40
 1343 70 1343 70 1342 65 c 2,41,-1
 1331 15 l 2,42,43
 1328 0 1328 0 1313 0 c 2,44,-1
 1018 0 l 2,45,46
 903 0 903 0 903 95 c 0,47,48
 903 116 903 116 908 140 c 2,49,-1
 1042 770 l 2,50,51
 1052 816 1052 816 1052 858 c 0,52,53
 1052 884 1052 884 1047 903 c 0,54,55
 1033 951 1033 951 979 951 c 0,56,57
 752 951 752 951 487 79 c 0,58,59
 463 0 463 0 390 0 c 2,60,-1
 250 0 l 2,0,1
EndSplineSet
Validated: 1
EndChar

StartChar: o
Encoding: 111 111 24
Width: 1226
GlyphClass: 2
Flags: W
HStem: -20 111<531.261 751.899> 1009 111<705.103 928.317>
VStem: 161 304<205.583 629.801> 994 305<465.077 896.273>
LayerCount: 2
Fore
SplineSet
632 91 m 0,0,1
 723 91 723 91 816 195 c 0,2,3
 920 314 920 314 970 550 c 0,4,5
 994 663 994 663 994 754 c 0,6,7
 994 849 994 849 966 913 c 0,8,9
 920 1009 920 1009 826 1009 c 0,10,11
 731 1009 731 1009 648 913 c 0,12,13
 541 791 541 791 490 550 c 0,14,15
 465 434 465 434 465 347 c 0,16,17
 465 255 465 255 492 195 c 0,18,19
 542 91 542 91 632 91 c 0,0,1
609 -20 m 0,20,21
 373 -20 373 -20 257 123 c 0,22,23
 161 243 161 243 161 408 c 0,24,25
 161 475 161 475 177 550 c 0,26,27
 233 815 233 815 438 976 c 0,28,29
 624 1120 624 1120 851 1120 c 128,-1,30
 1078 1120 1078 1120 1202 976 c 0,31,32
 1299 863 1299 863 1299 696 c 0,33,34
 1299 627 1299 627 1283 550 c 0,35,36
 1229 294 1229 294 1021 124 c 0,37,38
 847 -20 847 -20 609 -20 c 0,20,21
EndSplineSet
Validated: 1
EndChar

StartChar: r
Encoding: 114 114 25
Width: 1198
GlyphClass: 2
Flags: W
HStem: 0 21G<217 426.5> 951 169<928.991 1177.5> 1020 80<245.716 367.947>
VStem: 371 309<781.93 1015.63> 1052 303<712.094 902.405>
LayerCount: 2
Fore
SplineSet
250 0 m 2,0,1
 184 0 184 0 184 54 c 0,2,3
 184 65 184 65 187 79 c 2,4,-1
 368 930 l 2,5,6
 371 944 371 944 371 959 c 0,7,8
 371 1020 371 1020 297 1020 c 2,9,-1
 252 1020 l 2,10,11
 239 1020 239 1020 239 1029 c 0,12,13
 239 1030 239 1030 240 1035 c 2,14,-1
 251 1085 l 2,15,16
 254 1100 254 1100 269 1100 c 2,17,-1
 564 1100 l 2,18,19
 680 1100 680 1100 680 1006 c 0,20,21
 680 990 680 990 674 962 c 2,22,-1
 592 574 l 1,23,24
 769 1120 769 1120 1106 1120 c 0,25,26
 1249 1120 1249 1120 1312 1036 c 0,27,28
 1355 979 1355 979 1355 886 c 0,29,30
 1355 834 1355 834 1342 770 c 8,31,32
 1325 691 1325 691 1245 691 c 2,33,-1
 1105 691 l 2,34,35
 1039 691 1039 691 1039 745 c 0,36,37
 1039 756 1039 756 1042 770 c 0,38,39
 1052 816 1052 816 1052 858 c 0,40,41
 1052 884 1052 884 1047 903 c 0,42,43
 1033 951 1033 951 979 951 c 0,44,45
 752 951 752 951 487 79 c 0,46,47
 463 0 463 0 390 0 c 2,48,-1
 250 0 l 2,0,1
EndSplineSet
Validated: 1
EndChar

StartChar: t
Encoding: 116 116 26
Width: 780
GlyphClass: 2
Flags: W
HStem: 0 80<566.053 688.284> 980 120<244.438 438 764 977.562> 1430 80<392.716 514.947>
VStem: 518 308<1183.44 1426.58>
DStem2: 230.242 0 529.865 0 0.207912 0.978148<207.561 1001.78 1186.94 1398.45>
LayerCount: 2
Fore
SplineSet
370 0 m 2,0,1
 255 0 255 0 255 95 c 0,2,3
 255 116 255 116 260 140 c 2,4,-1
 438 980 l 1,5,-1
 243 980 l 2,6,7
 230 980 230 980 230 988 c 0,8,9
 230 990 230 990 231 995 c 2,10,-1
 251 1085 l 2,11,12
 254 1100 254 1100 269 1100 c 2,13,-1
 464 1100 l 1,14,-1
 515 1340 l 2,15,16
 518 1354 518 1354 518 1369 c 0,17,18
 518 1430 518 1430 444 1430 c 2,19,-1
 399 1430 l 2,20,21
 386 1430 386 1430 386 1438 c 0,22,23
 386 1440 386 1440 387 1445 c 2,24,-1
 398 1495 l 2,25,26
 401 1510 401 1510 416 1510 c 2,27,-1
 711 1510 l 2,28,29
 826 1510 826 1510 826 1415 c 0,30,31
 826 1394 826 1394 821 1370 c 2,32,-1
 764 1100 l 1,33,-1
 979 1100 l 2,34,35
 992 1100 992 1100 992 1092 c 0,36,37
 992 1090 992 1090 991 1085 c 2,38,-1
 971 995 l 2,39,40
 968 980 968 980 953 980 c 2,41,-1
 738 980 l 1,42,-1
 566 170 l 2,43,44
 563 156 563 156 563 141 c 0,45,46
 563 80 563 80 637 80 c 2,47,-1
 682 80 l 2,48,49
 695 80 695 80 695 72 c 0,50,51
 695 70 695 70 694 65 c 2,52,-1
 683 15 l 2,53,54
 680 0 680 0 665 0 c 2,55,-1
 370 0 l 2,0,1
EndSplineSet
Validated: 1
EndChar

StartChar: u
Encoding: 117 117 27
Width: 1348
GlyphClass: 2
Flags: W
HStem: -20 169<404.5 653.009> 0 80<1214.05 1336.28> 1020 80<245.716 367.947>
VStem: 227 302<154.316 391.004> 371 308<776.484 1016.58>
DStem2: 165.605 -20 465.605 -20 0.207912 0.978148<332.933 999.852>
LayerCount: 2
Fore
SplineSet
1018 0 m 2,0,1
 902 0 902 0 902 94 c 0,2,3
 902 115 902 115 907 138 c 2,4,-1
 990 526 l 1,5,6
 813 -20 813 -20 476 -20 c 0,7,8
 333 -20 333 -20 270 64 c 0,9,10
 227 121 227 121 227 214 c 0,11,12
 227 269 227 269 240 330 c 2,13,-1
 368 930 l 2,14,15
 371 944 371 944 371 959 c 0,16,17
 371 1020 371 1020 297 1020 c 2,18,-1
 252 1020 l 2,19,20
 239 1020 239 1020 239 1028 c 0,21,22
 239 1030 239 1030 240 1035 c 2,23,-1
 251 1085 l 2,24,25
 254 1100 254 1100 269 1100 c 2,26,-1
 564 1100 l 2,27,28
 679 1100 679 1100 679 1005 c 0,29,30
 679 984 679 984 674 960 c 2,31,-1
 540 330 l 2,32,33
 529 278 529 278 529 242 c 0,34,35
 529 216 529 216 535 197 c 0,36,37
 549 149 549 149 603 149 c 0,38,39
 830 149 830 149 1095 1021 c 0,40,41
 1119 1100 1119 1100 1192 1100 c 2,42,-1
 1332 1100 l 2,43,44
 1398 1100 1398 1100 1398 1046 c 0,45,46
 1398 1035 1398 1035 1395 1021 c 2,47,-1
 1214 170 l 2,48,49
 1211 156 1211 156 1211 141 c 0,50,51
 1211 80 1211 80 1285 80 c 2,52,-1
 1330 80 l 2,53,54
 1343 80 1343 80 1343 72 c 0,55,56
 1343 70 1343 70 1342 65 c 2,57,-1
 1331 15 l 2,58,59
 1328 0 1328 0 1313 0 c 2,60,-1
 1018 0 l 2,0,1
EndSplineSet
Validated: 1
EndChar

StartChar: v
Encoding: 118 118 28
Width: 1199
GlyphClass: 2
Flags: W
HStem: -20 169<404.5 763.74> 1020 80<245.716 367.947>
VStem: 227 302<197.595 391.004> 371 308<776.484 1016.58> 1036 258<534.712 896>
DStem2: 165.605 -20 465.605 -20 0.207912 0.978148<332.933 999.852>
LayerCount: 2
Fore
SplineSet
476 -20 m 0,0,1
 333 -20 333 -20 270 64 c 0,2,3
 227 121 227 121 227 214 c 0,4,5
 227 269 227 269 240 330 c 2,6,-1
 368 930 l 6,7,8
 371 944 371 944 371 959 c 4,9,10
 371 1020 371 1020 297 1020 c 6,11,-1
 252 1020 l 6,12,13
 239 1020 239 1020 239 1028 c 4,14,15
 239 1030 239 1030 240 1035 c 6,16,-1
 251 1085 l 6,17,18
 254 1100 254 1100 269 1100 c 6,19,-1
 564 1100 l 6,20,21
 679 1100 679 1100 679 1005 c 4,22,23
 679 984 679 984 674 960 c 6,24,-1
 540 330 l 2,25,26
 529 278 529 278 529 242 c 0,27,28
 529 216 529 216 535 197 c 0,29,30
 550 149 550 149 603 149 c 0,31,32
 761 149 761 149 873 234 c 0,33,34
 969 308 969 308 1006 423 c 0,35,36
 1036 521 1036 521 1036 652 c 0,37,38
 1036 850 1036 850 931 1020 c 0,39,40
 918 1041 918 1041 918 1055 c 0,41,42
 918 1100 918 1100 974 1100 c 2,43,-1
 1192 1100 l 2,44,45
 1216 1100 1216 1100 1228 1090 c 0,46,47
 1241 1079 1241 1079 1249 1059 c 0,48,49
 1294 946 1294 946 1294 793 c 128,-1,50
 1294 640 1294 640 1233 491 c 0,51,52
 1149 283 1149 283 976 141 c 0,53,54
 781 -20 781 -20 476 -20 c 0,0,1
EndSplineSet
Validated: 1
EndChar

StartChar: w
Encoding: 119 119 29
Width: 1906
GlyphClass: 2
Flags: W
HStem: -20 169<404.5 653.009 1111.5 1470.74> 1020 80<245.716 367.947>
VStem: 227 302<197.595 391.004> 371 308<776.484 1016.58> 934 302<175.956 472.148> 1743 258<533.467 896>
DStem2: 165.605 -20 465.605 -20 0.207912 0.978148<332.933 999.852>
LayerCount: 2
Fore
SplineSet
476 -20 m 0,0,1
 333 -20 333 -20 270 64 c 0,2,3
 227 121 227 121 227 214 c 0,4,5
 227 269 227 269 240 330 c 2,6,-1
 368 930 l 2,7,8
 371 944 371 944 371 959 c 0,9,10
 371 1020 371 1020 297 1020 c 2,11,-1
 252 1020 l 2,12,13
 239 1020 239 1020 239 1028 c 0,14,15
 239 1030 239 1030 240 1035 c 2,16,-1
 251 1085 l 2,17,18
 254 1100 254 1100 269 1100 c 2,19,-1
 564 1100 l 2,20,21
 679 1100 679 1100 679 1005 c 0,22,23
 679 984 679 984 674 960 c 2,24,-1
 540 330 l 2,25,26
 529 278 529 278 529 242 c 0,27,28
 529 216 529 216 535 197 c 0,29,30
 550 149 550 149 603 149 c 0,31,32
 830 149 830 149 1095 1021 c 0,33,34
 1119 1100 1119 1100 1192 1100 c 2,35,-1
 1332 1100 l 2,36,37
 1398 1100 1398 1100 1398 1046 c 0,38,39
 1398 1035 1398 1035 1395 1021 c 2,40,-1
 1247 330 l 2,41,42
 1236 279 1236 279 1236 242 c 0,43,44
 1236 216 1236 216 1242 197 c 0,45,46
 1257 149 1257 149 1310 149 c 0,47,48
 1468 149 1468 149 1580 234 c 0,49,50
 1676 308 1676 308 1713 423 c 0,51,52
 1743 516 1743 516 1743 652 c 0,53,54
 1743 850 1743 850 1638 1020 c 0,55,56
 1625 1041 1625 1041 1625 1055 c 0,57,58
 1625 1100 1625 1100 1681 1100 c 2,59,-1
 1899 1100 l 2,60,61
 1923 1100 1923 1100 1935 1090 c 0,62,63
 1948 1079 1948 1079 1956 1059 c 0,64,65
 2001 946 2001 946 2001 793 c 128,-1,66
 2001 640 2001 640 1940 491 c 0,67,68
 1856 283 1856 283 1683 141 c 0,69,70
 1488 -20 1488 -20 1183 -20 c 0,71,72
 1040 -20 1040 -20 977 64 c 0,73,74
 934 121 934 121 934 214 c 0,75,76
 934 271 934 271 947 330 c 2,77,-1
 990 526 l 1,78,79
 813 -20 813 -20 476 -20 c 0,0,1
EndSplineSet
Validated: 1
EndChar

StartChar: y
Encoding: 121 121 30
Width: 1348
GlyphClass: 2
Flags: W
HStem: -430 111<376.817 655.87> -20 169<404.5 653.009> 1020 80<245.716 367.947>
VStem: 227 302<154.316 391.004> 241 83<-129.19 -48> 371 308<776.484 1016.58>
DStem2: 78.457 -430 378.457 -430 0.207912 0.978148<752.093 1419.01> 787.021 -430 1086.84 -430 0.207912 0.978148<390.981 977.311>
LayerCount: 2
Fore
SplineSet
476 -20 m 0,0,1
 333 -20 333 -20 270 64 c 0,2,3
 227 121 227 121 227 214 c 0,4,5
 227 269 227 269 240 330 c 2,6,-1
 368 930 l 2,7,8
 371 944 371 944 371 959 c 0,9,10
 371 1020 371 1020 297 1020 c 2,11,-1
 252 1020 l 2,12,13
 239 1020 239 1020 239 1028 c 0,14,15
 239 1030 239 1030 240 1035 c 2,16,-1
 251 1085 l 2,17,18
 254 1100 254 1100 269 1100 c 2,19,-1
 564 1100 l 2,20,21
 679 1100 679 1100 679 1005 c 0,22,23
 679 984 679 984 674 960 c 2,24,-1
 540 330 l 2,25,26
 529 278 529 278 529 242 c 0,27,28
 529 216 529 216 535 197 c 0,29,30
 549 149 549 149 603 149 c 0,31,32
 830 149 830 149 1095 1021 c 0,33,34
 1119 1100 1119 1100 1192 1100 c 2,35,36
 1332 1100 l 2,37,38
 1398 1100 1398 1100 1398 1046 c 0,39,40
 1398 1035 1398 1035 1395 1021 c 2,41,-1
 1208 140 l 2,42,43
 1153 -118 1153 -118 946 -287 c 0,44,45
 770 -430 770 -430 534 -430 c 0,46,47
 327 -430 327 -430 213 -354 c 0,48,49
 192 -340 192 -340 191 -307 c 0,50,51
 191 -294 191 -294 194 -280 c 2,52,-1
 241 -63 l 2,53,54
 244 -48 244 -48 259 -48 c 2,55,-1
 312 -48 l 2,56,57
 324 -48 324 -48 324 -61 c 0,58,59
 324 -62 324 -62 324 -63 c 0,60,61
 323 -81 323 -81 323 -98 c 0,62,63
 323 -319 323 -319 496 -319 c 0,64,65
 636 -319 636 -319 749 -203 c 0,66,67
 859 -90 859 -90 895 78 c 2,68,-1
 990 526 l 1,69,70
 813 -20 813 -20 476 -20 c 0,0,1
EndSplineSet
Validated: 1
EndChar

StartChar: z
Encoding: 122 122 31
Width: 977
GlyphClass: 2
Flags: W
HStem: 0 120<352 818.377> 980 120<392.614 813>
LayerCount: 2
Fore
SplineSet
54 0 m 2,0,1
 24 0 24 0 24 25 c 0,2,3
 24 40 24 40 41 78 c 0,4,5
 210 453 210 453 443 623 c 0,6,7
 721 826 721 826 813 980 c 1,8,-1
 563 980 l 2,9,10
 393 980 393 980 275 834 c 0,11,12
 267 824 267 824 260 824 c 0,13,14
 257 824 257 824 254 826 c 2,15,-1
 209 854 l 2,16,17
 202 858 202 858 202 864 c 0,18,19
 202 868 202 868 206 873 c 2,20,-1
 338 1037 l 2,21,22
 389 1100 389 1100 459 1100 c 2,23,-1
 1126 1100 l 2,24,25
 1158 1100 1158 1100 1158 1077 c 0,26,27
 1158 1060 1158 1060 1146 1034 c 0,28,29
 1000 725 1000 725 777 568 c 0,30,31
 465 349 465 349 352 120 c 1,32,-1
 647 120 l 2,33,34
 819 120 819 120 935 266 c 0,35,36
 943 276 943 276 950 276 c 0,37,38
 953 276 953 276 956 274 c 2,39,-1
 1001 246 l 2,40,41
 1007 242 1007 242 1007 236 c 0,42,43
 1007 231 1007 231 1004 227 c 2,44,-1
 871 63 l 2,45,46
 820 0 820 0 751 0 c 2,47,-1
 54 0 l 2,0,1
EndSplineSet
Validated: 1
EndChar

StartChar: figuredash
Encoding: 8210 8210 33
Width: 1133
GlyphClass: 2
Flags: W
HStem: 630 250<269.656 1184.34>
LayerCount: 2
Fore
SplineSet
342 880 m 2,0,-1
 1165 880 l 2,1,2
 1218 880 1218 880 1218 836 c 0,3,4
 1218 827 1218 827 1216 815 c 2,5,-1
 1191 695 l 2,6,7
 1177 630 1177 630 1112 630 c 2,8,-1
 289 630 l 2,9,10
 236 630 236 630 236 674 c 0,11,12
 236 683 236 683 238 695 c 2,13,-1
 263 815 l 2,14,15
 277 880 277 880 342 880 c 2,0,-1
EndSplineSet
Validated: 1
EndChar

StartChar: endash
Encoding: 8211 8211 34
Width: 1533
GlyphClass: 2
Flags: W
HStem: 630 250<269.656 1584.34>
LayerCount: 2
Fore
SplineSet
342 880 m 2,0,-1
 1565 880 l 2,1,2
 1618 880 1618 880 1618 836 c 0,3,4
 1618 827 1618 827 1616 815 c 2,5,-1
 1591 695 l 2,6,7
 1577 630 1577 630 1512 630 c 2,8,-1
 289 630 l 2,9,10
 236 630 236 630 236 674 c 0,11,12
 236 683 236 683 238 695 c 2,13,-1
 263 815 l 2,14,15
 277 880 277 880 342 880 c 2,0,-1
EndSplineSet
Validated: 1
EndChar

StartChar: emdash
Encoding: 8212 8212 35
Width: 1533
GlyphClass: 2
Flags: W
HStem: 630 250<269.656 1584.34>
LayerCount: 2
Fore
SplineSet
342 880 m 2,0,-1
 1565 880 l 2,1,2
 1618 880 1618 880 1618 836 c 0,3,4
 1618 827 1618 827 1616 815 c 2,5,-1
 1591 695 l 2,6,7
 1577 630 1577 630 1512 630 c 2,8,-1
 289 630 l 2,9,10
 236 630 236 630 236 674 c 0,11,12
 236 683 236 683 238 695 c 2,13,-1
 263 815 l 2,14,15
 277 880 277 880 342 880 c 2,0,-1
EndSplineSet
Validated: 1
EndChar

StartChar: quoteleft
Encoding: 8216 8216 36
Width: 415
GlyphClass: 2
Flags: W
HStem: 973 637
VStem: 315 214<1155.62 1395.3>
LayerCount: 2
Fore
SplineSet
406 973 m 0,0,1
 377 973 377 973 364 996 c 0,2,3
 315 1085 315 1085 315 1198 c 0,4,5
 315 1229 315 1229 318 1261 c 0,6,7
 340 1449 340 1449 540 1589 c 0,8,9
 570 1610 570 1610 590 1610 c 0,10,11
 608 1610 608 1610 625 1595 c 2,12,-1
 648 1575 l 2,13,14
 661 1564 661 1564 661 1547 c 128,-1,15
 661 1530 661 1530 639 1511 c 0,16,17
 554 1437 554 1437 537 1359 c 0,18,19
 529 1321 529 1321 529 1287 c 0,20,21
 529 1200 529 1200 583 1144 c 0,22,23
 599 1128 599 1128 599 1106 c 0,24,25
 599 1075 599 1075 555 1049 c 2,26,-1
 450 986 l 2,27,28
 428 973 428 973 406 973 c 0,0,1
EndSplineSet
Validated: 1
EndChar

StartChar: quoteright
Encoding: 8217 8217 37
Width: 415
GlyphClass: 2
Flags: W
HStem: 973 637
VStem: 435 214<1187.7 1427.38>
LayerCount: 2
Fore
SplineSet
558 1610 m 0,0,1
 587 1610 587 1610 600 1587 c 0,2,3
 649 1498 649 1498 649 1385 c 0,4,5
 649 1354 649 1354 646 1322 c 0,6,7
 624 1134 624 1134 424 994 c 0,8,9
 394 973 394 973 374 973 c 0,10,11
 356 973 356 973 339 988 c 2,12,-1
 316 1008 l 2,13,14
 303 1019 303 1019 303 1036 c 128,-1,15
 303 1053 303 1053 325 1072 c 0,16,17
 410 1146 410 1146 427 1224 c 0,18,19
 435 1262 435 1262 435 1296 c 0,20,21
 435 1383 435 1383 381 1439 c 0,22,23
 365 1455 365 1455 365 1477 c 0,24,25
 365 1508 365 1508 409 1534 c 2,26,-1
 514 1597 l 2,27,28
 536 1610 536 1610 558 1610 c 0,0,1
EndSplineSet
Validated: 1
EndChar

StartChar: quotesinglbase
Encoding: 8218 8218 38
Width: 415
GlyphClass: 2
Flags: W
HStem: -317 637
VStem: 161 214<-102.296 137.379>
LayerCount: 2
Fore
SplineSet
284 320 m 0,0,1
 313 320 313 320 326 297 c 0,2,3
 375 208 375 208 375 95 c 0,4,5
 375 64 375 64 372 32 c 0,6,7
 350 -156 350 -156 150 -296 c 0,8,9
 120 -317 120 -317 100 -317 c 0,10,11
 82 -317 82 -317 65 -302 c 2,12,-1
 42 -282 l 2,13,14
 29 -271 29 -271 29 -254 c 128,-1,15
 29 -237 29 -237 51 -218 c 0,16,17
 136 -144 136 -144 153 -66 c 0,18,19
 161 -28 161 -28 161 6 c 0,20,21
 161 93 161 93 107 149 c 0,22,23
 91 165 91 165 91 187 c 0,24,25
 91 218 91 218 135 244 c 2,26,-1
 240 307 l 2,27,28
 262 320 262 320 284 320 c 0,0,1
EndSplineSet
Validated: 1
EndChar

StartChar: quotereversed
Encoding: 8219 8219 39
Width: 415
GlyphClass: 2
Flags: W
HStem: 973 637<465.691 506.656>
VStem: 323 184<1063.31 1342.74>
LayerCount: 2
Fore
SplineSet
541 1610 m 128,-1,1
 563 1610 563 1610 579 1597 c 2,2,-1
 658 1534 l 2,3,4
 680 1516 680 1516 680 1491 c 0,5,6
 680 1464 680 1464 646 1439 c 0,7,8
 520 1348 520 1348 508 1224 c 0,9,10
 507 1210 507 1210 507 1197 c 0,11,12
 507 1125 507 1125 546 1072 c 0,13,14
 555 1060 555 1060 555 1047 c 0,15,16
 555 1026 555 1026 527 1008 c 2,17,-1
 496 988 l 2,18,19
 473 973 473 973 455 973 c 0,20,21
 432 973 432 973 413 994 c 0,22,23
 323 1096 323 1096 323 1235 c 0,24,25
 323 1277 323 1277 331 1322 c 0,26,27
 360 1487 360 1487 489 1587 c 0,28,0
 519 1610 519 1610 541 1610 c 128,-1,1
EndSplineSet
Validated: 1
EndChar

StartChar: quotedblleft
Encoding: 8220 8220 40
Width: 785
GlyphClass: 2
Flags: W
HStem: 973 637
VStem: 315 214<1155.62 1395.3> 685 214<1155.62 1395.3>
LayerCount: 2
Fore
SplineSet
406 973 m 0,0,1
 377 973 377 973 364 996 c 0,2,3
 315 1085 315 1085 315 1198 c 0,4,5
 315 1229 315 1229 318 1261 c 0,6,7
 340 1449 340 1449 540 1589 c 0,8,9
 570 1610 570 1610 590 1610 c 0,10,11
 608 1610 608 1610 625 1595 c 2,12,-1
 648 1575 l 2,13,14
 661 1564 661 1564 661 1547 c 128,-1,15
 661 1530 661 1530 639 1511 c 0,16,17
 554 1437 554 1437 537 1359 c 0,18,19
 529 1321 529 1321 529 1287 c 0,20,21
 529 1200 529 1200 583 1144 c 0,22,23
 599 1128 599 1128 599 1106 c 0,24,25
 599 1075 599 1075 555 1049 c 2,26,-1
 450 986 l 2,27,28
 428 973 428 973 406 973 c 0,0,1
776 973 m 0,29,30
 747 973 747 973 734 996 c 0,31,32
 685 1085 685 1085 685 1198 c 0,33,34
 685 1229 685 1229 688 1261 c 0,35,36
 710 1449 710 1449 910 1589 c 0,37,38
 940 1610 940 1610 960 1610 c 0,39,40
 978 1610 978 1610 995 1595 c 2,41,-1
 1018 1575 l 2,42,43
 1031 1564 1031 1564 1031 1547 c 128,-1,44
 1031 1530 1031 1530 1009 1511 c 0,45,46
 924 1437 924 1437 907 1359 c 0,47,48
 899 1321 899 1321 899 1287 c 0,49,50
 899 1200 899 1200 953 1144 c 0,51,52
 969 1128 969 1128 969 1106 c 0,53,54
 969 1075 969 1075 925 1049 c 2,55,-1
 820 986 l 2,56,57
 798 973 798 973 776 973 c 0,29,30
EndSplineSet
Validated: 1
EndChar

StartChar: quotedblright
Encoding: 8221 8221 41
Width: 785
GlyphClass: 2
Flags: W
HStem: 973 637
VStem: 435 214<1187.7 1427.38> 805 214<1187.7 1427.38>
LayerCount: 2
Fore
SplineSet
928 1610 m 0,0,1
 957 1610 957 1610 970 1587 c 0,2,3
 1019 1498 1019 1498 1019 1385 c 0,4,5
 1019 1354 1019 1354 1016 1322 c 0,6,7
 994 1134 994 1134 794 994 c 0,8,9
 764 973 764 973 744 973 c 0,10,11
 726 973 726 973 709 988 c 2,12,-1
 686 1008 l 2,13,14
 673 1019 673 1019 673 1036 c 128,-1,15
 673 1053 673 1053 695 1072 c 0,16,17
 780 1146 780 1146 797 1224 c 0,18,19
 805 1262 805 1262 805 1296 c 0,20,21
 805 1383 805 1383 751 1439 c 0,22,23
 735 1455 735 1455 735 1477 c 0,24,25
 735 1508 735 1508 779 1534 c 2,26,-1
 884 1597 l 2,27,28
 906 1610 906 1610 928 1610 c 0,0,1
558 1610 m 0,29,30
 587 1610 587 1610 600 1587 c 0,31,32
 649 1498 649 1498 649 1385 c 0,33,34
 649 1354 649 1354 646 1322 c 0,35,36
 624 1134 624 1134 424 994 c 0,37,38
 394 973 394 973 374 973 c 0,39,40
 356 973 356 973 339 988 c 2,41,-1
 316 1008 l 2,42,43
 303 1019 303 1019 303 1036 c 128,-1,44
 303 1053 303 1053 325 1072 c 0,45,46
 410 1146 410 1146 427 1224 c 0,47,48
 435 1262 435 1262 435 1296 c 0,49,50
 435 1383 435 1383 381 1439 c 0,51,52
 365 1455 365 1455 365 1477 c 0,53,54
 365 1508 365 1508 409 1534 c 2,55,-1
 514 1597 l 2,56,57
 536 1610 536 1610 558 1610 c 0,29,30
EndSplineSet
Validated: 1
EndChar

StartChar: quotedblbase
Encoding: 8222 8222 42
Width: 785
GlyphClass: 2
Flags: W
HStem: -317 637
VStem: 161 214<-102.296 137.379> 531 214<-102.296 137.379>
LayerCount: 2
Fore
SplineSet
654 320 m 0,0,1
 683 320 683 320 696 297 c 0,2,3
 745 208 745 208 745 95 c 0,4,5
 745 64 745 64 742 32 c 0,6,7
 720 -156 720 -156 520 -296 c 0,8,9
 490 -317 490 -317 470 -317 c 0,10,11
 452 -317 452 -317 435 -302 c 2,12,-1
 412 -282 l 2,13,14
 399 -271 399 -271 399 -254 c 128,-1,15
 399 -237 399 -237 421 -218 c 0,16,17
 506 -144 506 -144 523 -66 c 0,18,19
 531 -28 531 -28 531 6 c 0,20,21
 531 93 531 93 477 149 c 0,22,23
 461 165 461 165 461 187 c 0,24,25
 461 218 461 218 505 244 c 2,26,-1
 610 307 l 2,27,28
 632 320 632 320 654 320 c 0,0,1
284 320 m 0,29,30
 313 320 313 320 326 297 c 0,31,32
 375 208 375 208 375 95 c 0,33,34
 375 64 375 64 372 32 c 0,35,36
 350 -156 350 -156 150 -296 c 0,37,38
 120 -317 120 -317 100 -317 c 0,39,40
 82 -317 82 -317 65 -302 c 2,41,-1
 42 -282 l 2,42,43
 29 -271 29 -271 29 -254 c 128,-1,44
 29 -237 29 -237 51 -218 c 0,45,46
 136 -144 136 -144 153 -66 c 0,47,48
 161 -28 161 -28 161 6 c 0,49,50
 161 93 161 93 107 149 c 0,51,52
 91 165 91 165 91 187 c 0,53,54
 91 218 91 218 135 244 c 2,55,-1
 240 307 l 2,56,57
 262 320 262 320 284 320 c 0,29,30
EndSplineSet
Validated: 1
EndChar

StartChar: dagger
Encoding: 8224 8224 43
Width: 1150
GlyphClass: 2
Flags: W
HStem: 0 21G<462 695> 978 180<328.566 623 981 1275.43> 1490 20G<776 1009>
DStem2: 415.208 0 735.208 0 0.207912 0.978148<62.183 999.831 1250.33 1548>
LayerCount: 2
Fore
SplineSet
495 0 m 2,0,1
 429 0 429 0 429 54 c 0,2,3
 429 65 429 65 432 79 c 2,4,-1
 623 978 l 1,5,-1
 358 978 l 2,6,7
 308 978 308 978 308 1018 c 0,8,9
 308 1026 308 1026 310 1037 c 2,10,-1
 324 1099 l 2,11,12
 337 1158 337 1158 396 1158 c 2,13,-1
 661 1158 l 1,14,-1
 719 1431 l 2,15,16
 736 1510 736 1510 816 1510 c 2,17,-1
 976 1510 l 2,18,19
 1042 1510 1042 1510 1042 1456 c 0,20,21
 1042 1445 1042 1445 1039 1431 c 2,22,-1
 981 1158 l 1,23,-1
 1246 1158 l 2,24,25
 1296 1158 1296 1158 1296 1118 c 0,26,27
 1296 1110 1296 1110 1294 1099 c 2,28,-1
 1280 1037 l 2,29,30
 1267 978 1267 978 1208 978 c 2,31,-1
 943 978 l 1,32,-1
 752 79 l 2,33,34
 735 0 735 0 655 0 c 2,35,-1
 495 0 l 2,0,1
EndSplineSet
Validated: 1
EndChar

StartChar: daggerdbl
Encoding: 8225 8225 44
Width: 1150
GlyphClass: 2
Flags: W
HStem: 0 21G<462 695> 352 180<195.566 490 848 1142.43> 978 180<328.566 623 981 1275.43> 1490 20G<776 1009>
DStem2: 415.208 0 735.208 0 0.207912 0.978148<62.183 359.858 610.357 999.831 1250.33 1548>
LayerCount: 2
Fore
SplineSet
655 0 m 2,0,-1
 495 0 l 2,1,2
 429 0 429 0 429 54 c 0,3,4
 429 65 429 65 432 79 c 2,5,-1
 490 352 l 1,6,-1
 225 352 l 2,7,8
 175 352 175 352 175 392 c 0,9,10
 175 400 175 400 177 411 c 2,11,-1
 191 473 l 2,12,13
 204 532 204 532 263 532 c 2,14,-1
 528 532 l 1,15,-1
 623 978 l 1,16,-1
 358 978 l 2,17,18
 308 978 308 978 308 1018 c 0,19,20
 308 1026 308 1026 310 1037 c 2,21,-1
 324 1099 l 2,22,23
 337 1158 337 1158 396 1158 c 2,24,-1
 661 1158 l 1,25,-1
 719 1431 l 2,26,27
 736 1510 736 1510 816 1510 c 2,28,-1
 976 1510 l 2,29,30
 1042 1510 1042 1510 1042 1456 c 0,31,32
 1042 1445 1042 1445 1039 1431 c 2,33,-1
 981 1158 l 1,34,-1
 1246 1158 l 2,35,36
 1296 1158 1296 1158 1296 1118 c 0,37,38
 1296 1110 1296 1110 1294 1099 c 2,39,-1
 1280 1037 l 2,40,41
 1267 978 1267 978 1208 978 c 2,42,-1
 943 978 l 1,43,-1
 848 532 l 1,44,-1
 1113 532 l 2,45,46
 1163 532 1163 532 1163 492 c 0,47,48
 1163 484 1163 484 1161 473 c 2,49,-1
 1147 411 l 2,50,51
 1134 352 1134 352 1075 352 c 2,52,-1
 810 352 l 1,53,-1
 752 79 l 2,54,55
 735 0 735 0 655 0 c 2,0,-1
EndSplineSet
Validated: 1
EndChar

StartChar: bullet
Encoding: 8226 8226 45
Width: 888
GlyphClass: 2
Flags: W
HStem: 385 740<428.128 779.872>
VStem: 240 728<576.566 933.434>
LayerCount: 2
Fore
SplineSet
604 1125 m 128,-1,1
 756 1125 756 1125 862 1017 c 128,-1,2
 968 909 968 909 968 755 c 128,-1,3
 968 601 968 601 862 493 c 128,-1,4
 756 385 756 385 604 385 c 128,-1,5
 452 385 452 385 346 493 c 128,-1,6
 240 601 240 601 240 755 c 128,-1,7
 240 909 240 909 346 1017 c 128,-1,0
 452 1125 452 1125 604 1125 c 128,-1,1
EndSplineSet
Validated: 1
EndChar

StartChar: ellipsis
Encoding: 8230 8230 46
Width: 1332
GlyphClass: 2
Flags: W
HStem: -20 365<146.131 380.878 582.131 816.878 1018.13 1252.88>
VStem: 84 360<42.5657 282.578> 520 360<42.5657 282.578> 956 360<42.5657 282.578>
CounterMasks: 1 70
LayerCount: 2
Fore
SplineSet
1136 -20 m 0,0,1
 1060 -20 1060 -20 1008 34 c 128,-1,2
 956 88 956 88 956 162 c 0,3,4
 956 238 956 238 1008 291 c 0,5,6
 1061 345 1061 345 1136 345 c 128,-1,7
 1211 345 1211 345 1263.5 291.5 c 128,-1,8
 1316 238 1316 238 1316 163 c 128,-1,9
 1316 88 1316 88 1263 34 c 128,-1,10
 1210 -20 1210 -20 1136 -20 c 0,0,1
700 -20 m 0,11,12
 624 -20 624 -20 572 34 c 128,-1,13
 520 88 520 88 520 162 c 0,14,15
 520 238 520 238 572 291 c 0,16,17
 625 345 625 345 700 345 c 128,-1,18
 775 345 775 345 827.5 291.5 c 128,-1,19
 880 238 880 238 880 163 c 128,-1,20
 880 88 880 88 827 34 c 128,-1,21
 774 -20 774 -20 700 -20 c 0,11,12
264 -20 m 0,22,23
 188 -20 188 -20 136 34 c 128,-1,24
 84 88 84 88 84 162 c 0,25,26
 84 238 84 238 136 291 c 0,27,28
 189 345 189 345 264 345 c 128,-1,29
 339 345 339 345 391.5 291.5 c 128,-1,30
 444 238 444 238 444 163 c 128,-1,31
 444 88 444 88 391 34 c 128,-1,32
 338 -20 338 -20 264 -20 c 0,22,23
EndSplineSet
Validated: 1
EndChar

StartChar: perthousand
Encoding: 8240 8240 47
Width: 2586
GlyphClass: 2
Flags: W
HStem: -20 78<1286.21 1430.16 2086.21 2230.16> 645 77<1395.94 1537.58 2195.94 2337.58> 788 78<571.964 713.88> 1453 77<679.89 821.563>
VStem: 318 222<920.694 1260.63> 851 221<1056.36 1397.94> 1035 222<112.563 452.63> 1567 222<248.357 589.806> 1835 222<112.563 452.63> 2367 222<248.357 589.806>
DStem2: 395 129 607 0 0.624074 0.781365<-39.0561 1838.59>
LayerCount: 2
Fore
SplineSet
543 -40 m 0,0,1
 524 -40 524 -40 501 -27 c 2,2,-1
 400 29 l 2,3,4
 372 45 372 45 372 75 c 24,5,6
 372 100 372 100 395 129 c 2,7,-1
 1498 1510 l 2,8,9
 1530 1550 1530 1550 1563 1550 c 0,10,11
 1580 1550 1580 1550 1603 1537 c 2,12,-1
 1704 1481 l 2,13,14
 1732 1465 1732 1465 1732 1436 c 24,15,16
 1732 1409 1732 1409 1710 1381 c 2,17,-1
 607 0 l 2,18,19
 575 -40 575 -40 543 -40 c 0,0,1
2275 645 m 128,-1,21
 2215 645 2215 645 2156 560.5 c 128,-1,22
 2097 476 2097 476 2071 352 c 0,23,24
 2057 285 2057 285 2057 230 c 0,25,26
 2057 182 2057 182 2067 142 c 0,27,28
 2090 58 2090 58 2150 58 c 128,-1,29
 2210 58 2210 58 2268 142.5 c 128,-1,30
 2326 227 2326 227 2353 352 c 0,31,32
 2367 420 2367 420 2367 476 c 0,33,34
 2367 523 2367 523 2357 561 c 0,35,20
 2335 645 2335 645 2275 645 c 128,-1,21
2133 -20 m 0,36,37
 1978 -20 1978 -20 1896 89 c 0,38,39
 1835 168 1835 168 1835 270 c 0,40,41
 1835 309 1835 309 1844 352 c 0,42,43
 1877 506 1877 506 2007 613 c 0,44,45
 2138 722 2138 722 2290 722 c 0,46,47
 2445 722 2445 722 2528 613 c 0,48,49
 2589 533 2589 533 2589 431 c 0,50,51
 2589 392 2589 392 2580 350 c 0,52,53
 2547 196 2547 196 2417 89 c 0,54,55
 2285 -20 2285 -20 2133 -20 c 0,36,37
1475 645 m 128,-1,57
 1415 645 1415 645 1356 560.5 c 128,-1,58
 1297 476 1297 476 1271 352 c 0,59,60
 1257 285 1257 285 1257 230 c 0,61,62
 1257 182 1257 182 1267 142 c 0,63,64
 1290 58 1290 58 1350 58 c 128,-1,65
 1410 58 1410 58 1468 142.5 c 128,-1,66
 1526 227 1526 227 1553 352 c 0,67,68
 1567 420 1567 420 1567 476 c 0,69,70
 1567 523 1567 523 1557 561 c 0,71,56
 1535 645 1535 645 1475 645 c 128,-1,57
1333 -20 m 0,72,73
 1178 -20 1178 -20 1096 89 c 0,74,75
 1035 168 1035 168 1035 270 c 0,76,77
 1035 309 1035 309 1044 352 c 0,78,79
 1077 506 1077 506 1207 613 c 0,80,81
 1338 722 1338 722 1490 722 c 0,82,83
 1645 722 1645 722 1728 613 c 0,84,85
 1789 533 1789 533 1789 431 c 0,86,87
 1789 392 1789 392 1780 350 c 0,88,89
 1747 196 1747 196 1617 89 c 0,90,91
 1485 -20 1485 -20 1333 -20 c 0,72,73
759 1453 m 128,-1,93
 699 1453 699 1453 640 1368.5 c 128,-1,94
 581 1284 581 1284 554 1160 c 0,95,96
 540 1093 540 1093 540 1038 c 0,97,98
 540 990 540 990 551 950 c 0,99,100
 574 866 574 866 634 866 c 128,-1,101
 694 866 694 866 752 950.5 c 128,-1,102
 810 1035 810 1035 837 1160 c 0,103,104
 851 1228 851 1228 851 1284 c 0,105,106
 851 1331 851 1331 841 1369 c 0,107,92
 819 1453 819 1453 759 1453 c 128,-1,93
774 1530 m 0,108,109
 929 1530 929 1530 1011 1421 c 0,110,111
 1072 1342 1072 1342 1072 1240 c 0,112,113
 1072 1201 1072 1201 1063 1158 c 0,114,115
 1030 1004 1030 1004 900 897 c 0,116,117
 769 788 769 788 616 788 c 0,118,119
 461 788 461 788 379 897 c 0,120,121
 318 977 318 977 318 1079 c 0,122,123
 318 1118 318 1118 327 1160 c 0,124,125
 360 1314 360 1314 490 1421 c 0,126,127
 622 1530 622 1530 774 1530 c 0,108,109
EndSplineSet
Validated: 1
EndChar

StartChar: minute
Encoding: 8242 8242 48
Width: 410
GlyphClass: 2
Flags: W
HStem: 1090 440<405.003 479.219>
VStem: 288 392
LayerCount: 2
Fore
SplineSet
468 1530 m 2,0,-1
 649 1530 l 2,1,2
 680 1530 680 1530 680 1509 c 0,3,4
 680 1500 680 1500 672 1485 c 2,5,-1
 473 1123 l 2,6,7
 455 1090 455 1090 414 1090 c 2,8,-1
 322 1090 l 2,9,10
 288 1090 288 1090 288 1113 c 0,11,12
 288 1121 288 1121 291 1130 c 2,13,-1
 405 1485 l 2,14,15
 419 1530 419 1530 468 1530 c 2,0,-1
EndSplineSet
Validated: 1
EndChar

StartChar: second
Encoding: 8243 8243 49
Width: 760
GlyphClass: 2
Flags: W
HStem: 1090 440<405.003 479.219 638 680 755.003 829.219>
LayerCount: 2
Fore
SplineSet
818 1530 m 2,0,-1
 999 1530 l 2,1,2
 1030 1530 1030 1530 1030 1509 c 0,3,4
 1030 1500 1030 1500 1022 1485 c 2,5,-1
 823 1123 l 2,6,7
 805 1090 805 1090 764 1090 c 2,8,-1
 672 1090 l 2,9,10
 638 1090 638 1090 638 1113 c 0,11,12
 638 1121 638 1121 641 1130 c 2,13,-1
 755 1485 l 2,14,15
 769 1530 769 1530 818 1530 c 2,0,-1
468 1530 m 2,16,-1
 649 1530 l 2,17,18
 680 1530 680 1530 680 1509 c 0,19,20
 680 1500 680 1500 672 1485 c 2,21,-1
 473 1123 l 2,22,23
 455 1090 455 1090 414 1090 c 2,24,-1
 322 1090 l 2,25,26
 288 1090 288 1090 288 1113 c 0,27,28
 288 1121 288 1121 291 1130 c 2,29,-1
 405 1485 l 2,30,31
 419 1530 419 1530 468 1530 c 2,16,-1
EndSplineSet
Validated: 1
EndChar

StartChar: guilsinglleft
Encoding: 8249 8249 50
Width: 784
GlyphClass: 2
Flags: W
VStem: 239 611
DStem2: 476 831 245 720 0.440101 -0.897948<0 555.661> 260 791 476 831 0.6769 0.736075<175.653 733.199>
LayerCount: 2
Fore
SplineSet
239 744 m 0,0,1
 239 768 239 768 260 791 c 2,2,-1
 729 1301 l 2,3,4
 749 1323 749 1323 771 1323 c 0,5,6
 787 1323 787 1323 800 1310 c 2,7,-1
 834 1277 l 2,8,9
 850 1261 850 1261 850 1245 c 0,10,11
 850 1230 850 1230 828 1207 c 2,12,-1
 476 831 l 1,13,-1
 705 355 l 2,14,15
 713 339 713 339 713 328 c 0,16,17
 713 306 713 306 682 285 c 2,18,-1
 562 205 l 2,19,20
 542 192 542 192 527 192 c 0,21,22
 504 192 504 192 493 214 c 2,23,-1
 245 720 l 2,24,25
 239 732 239 732 239 744 c 0,0,1
EndSplineSet
Validated: 1
EndChar

StartChar: guilsinglright
Encoding: 8250 8250 51
Width: 784
GlyphClass: 2
Flags: W
VStem: 256 611
DStem2: 613 1301 401 1160 0.440101 -0.897948<5.85448 561.516> 630 684 377 214 0.6769 0.736075<-557.546 0>
LayerCount: 2
Fore
SplineSet
867 771 m 0,0,1
 867 747 867 747 846 724 c 2,2,-1
 377 214 l 2,3,4
 357 192 357 192 335 192 c 0,5,6
 319 192 319 192 306 205 c 2,7,-1
 272 238 l 2,8,9
 256 254 256 254 256 270 c 0,10,11
 256 285 256 285 278 308 c 2,12,-1
 630 684 l 1,13,-1
 401 1160 l 2,14,15
 393 1176 393 1176 393 1187 c 0,16,17
 393 1209 393 1209 424 1230 c 2,18,-1
 544 1310 l 2,19,20
 564 1323 564 1323 579 1323 c 0,21,22
 602 1323 602 1323 613 1301 c 2,23,-1
 861 795 l 2,24,25
 867 783 867 783 867 771 c 0,0,1
EndSplineSet
Validated: 1
EndChar

StartChar: fraction
Encoding: 8260 8260 52
Width: 1091
GlyphClass: 2
Flags: W
DStem2: 49 129 261 0 0.624074 0.781365<-39.0561 1838.59>
LayerCount: 2
Fore
SplineSet
197 -40 m 0,0,1
 178 -40 178 -40 155 -27 c 2,2,-1
 54 29 l 2,3,4
 26 45 26 45 26 75 c 24,5,6
 26 100 26 100 49 129 c 2,7,-1
 1152 1510 l 2,8,9
 1184 1550 1184 1550 1217 1550 c 0,10,11
 1234 1550 1234 1550 1257 1537 c 2,12,-1
 1358 1481 l 2,13,14
 1386 1465 1386 1465 1386 1436 c 24,15,16
 1386 1409 1386 1409 1364 1381 c 2,17,-1
 261 0 l 2,18,19
 229 -40 229 -40 197 -40 c 0,0,1
EndSplineSet
Validated: 1
EndChar

StartChar: Euro
Encoding: 8364 8364 53
Width: 1510
GlyphClass: 2
Flags: W
HStem: -20 120<784.77 1156.61> 519 180<189.689 302.703 659 1123.31> 811 180<251.689 333 741 1185.31> 1410 120<1043.84 1419.33>
VStem: 299 340<313.579 519> 1526 85<1027 1109.06>
LayerCount: 2
Fore
SplineSet
873 -20 m 0,0,1
 545 -20 545 -20 396 211 c 0,2,3
 309 347 309 347 299 519 c 1,4,-1
 205 519 l 2,5,6
 168 519 168 519 168 549 c 0,7,8
 168 556 168 556 170 564 c 2,9,-1
 189 654 l 2,10,11
 199 699 199 699 244 699 c 2,12,-1
 311 699 l 1,13,14
 315 727 315 727 320.5 755 c 128,-1,15
 326 783 326 783 333 811 c 1,16,-1
 267 811 l 2,17,18
 230 811 230 811 230 841 c 0,19,20
 230 848 230 848 232 856 c 2,21,-1
 251 946 l 2,22,23
 261 991 261 991 306 991 c 2,24,-1
 400 991 l 1,25,26
 482 1164 482 1164 627 1299 c 0,27,28
 875 1530 875 1530 1202 1530 c 0,29,30
 1500 1530 1500 1530 1652 1392 c 0,31,32
 1673 1373 1673 1373 1673 1342 c 0,33,34
 1673 1331 1673 1331 1670 1318 c 2,35,-1
 1611 1042 l 2,36,37
 1608 1027 1608 1027 1593 1027 c 2,38,-1
 1538 1027 l 2,39,40
 1526 1027 1526 1027 1526 1040 c 0,41,42
 1526 1041 1526 1041 1526 1042 c 0,43,44
 1528 1073 1528 1073 1528 1101 c 0,45,46
 1528 1410 1528 1410 1248 1410 c 0,47,48
 1022 1410 1022 1410 885 1240 c 0,49,50
 799 1132 799 1132 741 991 c 1,51,-1
 1170 991 l 2,52,53
 1207 991 1207 991 1207 961 c 0,54,55
 1207 954 1207 954 1205 946 c 2,56,-1
 1186 856 l 2,57,58
 1176 811 1176 811 1131 811 c 2,59,-1
 682 811 l 1,60,61
 675 783 675 783 669 754.5 c 128,-1,62
 663 726 663 726 659 699 c 1,63,-1
 1108 699 l 2,64,65
 1145 699 1145 699 1145 669 c 0,66,67
 1145 662 1145 662 1143 654 c 2,68,-1
 1124 564 l 2,69,70
 1114 519 1114 519 1069 519 c 2,71,-1
 639 519 l 1,72,73
 639 507 639 507 639 495 c 0,74,75
 639 366 639 366 678 270 c 0,76,77
 747 100 747 100 969 100 c 0,78,79
 1276 100 1276 100 1405 472 c 0,80,81
 1410 487 1410 487 1424 487 c 2,82,-1
 1479 487 l 2,83,84
 1491 487 1491 487 1491 478 c 0,85,86
 1491 476 1491 476 1490 472 c 2,87,-1
 1432 196 l 2,88,89
 1422 148 1422 148 1382 122 c 0,90,91
 1165 -20 1165 -20 873 -20 c 0,0,1
EndSplineSet
Validated: 1
EndChar

StartChar: afii61248
Encoding: 8453 8453 54
Width: 1826
GlyphClass: 2
Flags: W
HStem: -10 100<1296.94 1474.83> 684 100<1403.6 1581.54> 726 100<565.11 797.94> 1420 100<672.465 906.762>
VStem: 318 211<862.07 1225.83> 928 114<1233.81 1369.96> 928 83<1229 1253> 1050 211<121.102 485.904> 1617 212<285.322 652.007>
DStem2: 399 129 611 0 0.624074 0.781365<-39.0561 1838.59>
LayerCount: 2
Fore
SplineSet
547 -40 m 0,0,1
 528 -40 528 -40 505 -27 c 2,2,-1
 404 29 l 2,3,4
 376 45 376 45 376 75 c 24,5,6
 376 100 376 100 399 129 c 2,7,-1
 1502 1510 l 2,8,9
 1534 1550 1534 1550 1567 1550 c 0,10,11
 1584 1550 1584 1550 1607 1537 c 2,12,-1
 1708 1481 l 2,13,14
 1736 1465 1736 1465 1736 1436 c 24,15,16
 1736 1409 1736 1409 1714 1381 c 2,17,-1
 611 0 l 2,18,19
 579 -40 579 -40 547 -40 c 0,0,1
1500.5 684 m 128,-1,21
 1435 684 1435 684 1376 612 c 0,22,23
 1305 525 1305 525 1275 385 c 0,24,25
 1261 321 1261 321 1261 269 c 0,26,27
 1261 207 1261 207 1280 162 c 0,28,29
 1312 90 1312 90 1377.5 90 c 128,-1,30
 1443 90 1443 90 1502 162 c 0,31,32
 1576 252 1576 252 1604 389 c 0,33,34
 1617 452 1617 452 1617 505 c 0,35,36
 1617 567 1617 567 1598 612 c 0,37,20
 1566 684 1566 684 1500.5 684 c 128,-1,21
1355 -10 m 128,-1,39
 1182 -10 1182 -10 1102 109 c 0,40,41
 1050 186 1050 186 1050 290 c 0,42,43
 1050 336 1050 336 1060 388 c 0,44,45
 1095 552 1095 552 1220 665 c 0,46,47
 1351 784 1351 784 1524 784 c 128,-1,48
 1697 784 1697 784 1776 665 c 0,49,50
 1829 586 1829 586 1829 484 c 0,51,52
 1829 438 1829 438 1818 387 c 0,53,54
 1783 224 1783 224 1658 109 c 0,55,38
 1528 -10 1528 -10 1355 -10 c 128,-1,39
791 1520 m 0,56,57
 957 1520 957 1520 1029 1448 c 16,58,59
 1042 1435 1042 1435 1042 1413 c 0,60,61
 1042 1404 1042 1404 1040 1394 c 2,62,-1
 1011 1256 l 2,63,64
 1005 1229 1005 1229 979 1229 c 2,65,-1
 950 1229 l 2,66,67
 928 1229 928 1229 928 1249 c 0,68,69
 928 1251 928 1251 928 1253 c 0,70,71
 929 1268 929 1268 930 1283 c 0,72,73
 930 1338 930 1338 910 1371 c 0,74,75
 881 1420 881 1420 806 1420 c 0,76,77
 704 1420 704 1420 644 1348 c 0,78,79
 572 1260 572 1260 542 1121 c 0,80,81
 529 1061 529 1061 529 1005 c 0,82,83
 529 943 529 943 548 898 c 0,84,85
 579 826 579 826 680 826 c 0,86,87
 756 826 756 826 805 876 c 0,88,89
 834 905 834 905 874 996 c 0,90,91
 884 1019 884 1019 906 1019 c 2,92,-1
 935 1019 l 2,93,94
 956 1019 956 1019 956 1001 c 0,95,96
 956 997 956 997 955 992 c 2,97,-1
 926 854 l 2,98,99
 918 818 918 818 891 800 c 24,100,101
 780 726 780 726 622 726 c 0,102,103
 449 726 449 726 370 845 c 0,104,105
 318 924 318 924 318 1025 c 0,106,107
 318 1072 318 1072 329 1124 c 0,108,109
 364 1288 364 1288 488 1401 c 0,110,111
 619 1520 619 1520 791 1520 c 0,56,57
EndSplineSet
Validated: 1
EndChar

StartChar: afii61289
Encoding: 8467 8467 55
Width: 1197
GlyphClass: 2
Flags: W
HStem: -20 236<602 770.691> 0 21G<80 460.364> 1510 20G<1099.5 1197>
LayerCount: 2
Fore
SplineSet
656 -20 m 0,0,1
 548 -20 548 -20 480 44 c 1,2,-1
 444 0 l 1,3,-1
 80 0 l 1,4,5
 276 162 276 162 414 325 c 1,6,7
 423 420 423 420 445 524 c 0,8,9
 479 686 479 686 565 865 c 0,10,11
 743 1240 743 1240 933 1423 c 0,12,13
 1044 1530 1044 1530 1155 1530 c 0,14,15
 1239 1530 1239 1530 1279 1480 c 0,16,17
 1311 1439 1311 1439 1311 1371 c 0,18,19
 1311 1331 1311 1331 1300 1281 c 0,20,21
 1280 1186 1280 1186 1220 1041 c 0,22,23
 1075 688 1075 688 704 272 c 1,24,25
 704 216 704 216 720 216 c 128,-1,26
 736 216 736 216 770 260 c 0,27,28
 791 286 791 286 809 319 c 1,29,-1
 1125 319 l 1,30,31
 1038 173 1038 173 928.5 76.5 c 128,-1,32
 819 -20 819 -20 656 -20 c 0,0,1
EndSplineSet
Validated: 1
EndChar

StartChar: trademark
Encoding: 8482 8482 56
Width: 1811
GlyphClass: 2
Flags: W
HStem: 744 80<906.631 974.998 1836 1887.64> 1410 110<438.311 638 838 1018.53> 1438 80<1131.51 1181.97 1889.09 1957.2>
VStem: 1638 253<745.688 824>
DStem2: 492.459 726 692.459 726 0.207912 0.978148<41.623 699.313> 975 825 1083 799 0.321346 0.946962<-18.3551 422.46> 1438 960 1468 798 0.473477 0.880806<0 301.389> 1638 799 1836 825 0.0865591 0.996247<43.0411 380.261>
LayerCount: 2
Fore
SplineSet
992 744 m 2,0,1
 925 744 l 2,2,3
 903 744 903 744 903 763 c 0,4,5
 903 767 903 767 904 772 c 2,6,-1
 909 796 l 2,7,8
 915 824 915 824 942 824 c 2,9,-1
 965 824 l 2,10,11
 975 824 975 824 975 825 c 0,12,-1
 1182 1435 l 1,13,14
 1181 1438 1181 1438 1173 1438 c 2,15,-1
 1151 1438 l 2,16,17
 1128 1438 1128 1438 1128 1457 c 0,18,19
 1128 1461 1128 1461 1129 1466 c 2,20,-1
 1134 1491 l 2,21,22
 1140 1518 1140 1518 1168 1518 c 2,23,-1
 1327 1518 l 2,24,25
 1389 1518 1389 1518 1394 1466 c 2,26,-1
 1438 960 l 1,27,-1
 1710 1466 l 2,28,29
 1738 1518 1738 1518 1799 1518 c 2,30,-1
 1938 1518 l 2,31,32
 1961 1518 1961 1518 1961 1500 c 0,33,34
 1961 1496 1961 1496 1960 1491 c 2,35,-1
 1955 1466 l 2,36,37
 1949 1438 1949 1438 1921 1438 c 2,38,-1
 1899 1438 l 2,39,40
 1892 1438 1892 1438 1889 1435 c 1,41,-1
 1836 825 l 1,42,43
 1840 824 1840 824 1846 824 c 2,44,-1
 1869 824 l 2,45,46
 1891 824 1891 824 1891 805 c 0,47,48
 1891 801 1891 801 1890 795 c 2,49,-1
 1885 771 l 2,50,51
 1879 744 1879 744 1852 744 c 2,52,-1
 1705 744 l 2,53,54
 1638 744 1638 744 1638 792 c 0,55,56
 1638 795 1638 795 1638 799 c 2,57,-1
 1669 1178 l 1,58,-1
 1468 798 l 2,59,60
 1440 744 1440 744 1380 744 c 2,61,-1
 1316 744 l 2,62,63
 1254 744 1254 744 1250 798 c 2,64,-1
 1217 1189 l 1,65,-1
 1083 799 l 2,66,67
 1064 744 1064 744 992 744 c 2,0,1
552 726 m 2,68,69
 503 726 503 726 503 766 c 0,70,71
 503 776 503 776 505 785 c 2,72,-1
 638 1410 l 1,73,-1
 548 1410 l 2,74,75
 470 1410 470 1410 424 1349 c 0,76,77
 411 1332 411 1332 398 1332 c 0,78,79
 392 1332 392 1332 382 1338 c 2,80,-1
 362 1350 l 2,81,82
 351 1357 351 1357 351 1369 c 0,83,84
 351 1377 351 1377 361 1390 c 2,85,-1
 432 1479 l 2,86,87
 465 1520 465 1520 512 1520 c 2,88,-1
 1010 1520 l 2,89,90
 1057 1520 1057 1520 1072 1479 c 2,91,-1
 1105 1390 l 2,92,93
 1108 1382 1108 1382 1108 1375 c 0,94,95
 1108 1359 1108 1359 1088 1350 c 2,96,-1
 1062 1338 l 2,97,98
 1049 1332 1049 1332 1044 1332 c 0,99,100
 1031 1332 1031 1332 1026 1349 c 0,101,102
 1006 1410 1006 1410 928 1410 c 2,103,-1
 838 1410 l 1,104,-1
 705 785 l 2,105,106
 692 726 692 726 632 726 c 2,107,-1
 552 726 l 2,68,69
EndSplineSet
Validated: 1
EndChar

StartChar: uni2126
Encoding: 8486 8486 57
Width: 1702
GlyphClass: 2
Flags: W
HStem: 0 140<235.652 425 1337 1545.88> 1410 120<999.281 1282.25>
VStem: 273 338<319.6 806.876> 1410 340<701.319 1195.86>
LayerCount: 2
Fore
SplineSet
239 0 m 2,0,1
 169 0 169 0 145 63 c 2,2,-1
 75 247 l 2,3,4
 74 250 74 250 74 254 c 0,5,6
 74 260 74 260 86 266 c 2,7,-1
 142 294 l 2,8,9
 146 296 146 296 150 296 c 0,10,11
 157 296 157 296 161 286 c 0,12,13
 218 140 218 140 387 140 c 2,14,-1
 425 140 l 1,15,16
 386 184 386 184 370 211 c 0,17,18
 273 371 273 371 273 567 c 0,19,20
 273 657 273 657 294 755 c 0,21,22
 362 1077 362 1077 601 1299 c 0,23,24
 849 1530 849 1530 1176 1530 c 0,25,26
 1505 1530 1505 1530 1653 1299 c 0,27,28
 1750 1148 1750 1148 1750 951 c 0,29,30
 1750 858 1750 858 1728 752 c 0,31,32
 1660 428 1660 428 1422 211 c 0,33,34
 1386 178 1386 178 1337 140 c 1,35,-1
 1375 140 l 2,36,37
 1546 140 1546 140 1663 286 c 0,38,39
 1671 296 1671 296 1678 296 c 0,40,41
 1681 296 1681 296 1684 294 c 2,42,-1
 1730 266 l 2,43,44
 1736 262 1736 262 1736 256 c 0,45,46
 1736 251 1736 251 1733 247 c 2,47,-1
 1583 63 l 2,48,49
 1532 0 1532 0 1463 0 c 2,50,-1
 992 0 l 2,51,52
 939 0 939 0 939 52 c 0,53,54
 939 98 939 98 974 117 c 0,55,56
 1089 176 1089 176 1164 270 c 0,57,58
 1316 460 1316 460 1379 755 c 0,59,60
 1410 899 1410 899 1410 1015 c 0,61,62
 1410 1145 1410 1145 1371 1240 c 0,63,64
 1301 1410 1301 1410 1150 1410 c 0,65,66
 996 1410 996 1410 859 1240 c 24,67,68
 705 1048 705 1048 643 755 c 0,69,70
 611 604 611 604 611 488 c 0,71,72
 611 357 611 357 652 270 c 0,73,74
 704 160 704 160 779 119 c 0,75,76
 790 113 790 113 790 59 c 0,77,78
 790 0 790 0 710 0 c 2,79,-1
 239 0 l 2,0,1
EndSplineSet
Validated: 1
EndChar

StartChar: estimated
Encoding: 8494 8494 58
Width: 1261
GlyphClass: 2
Flags: W
HStem: -20 183<494.071 854.178> 491 189<548 1000> 935 185<639.618 998.502>
LayerCount: 2
Fore
SplineSet
625 -20 m 0,0,1
 374 -20 374 -20 255 145 c 0,2,3
 172 260 172 260 172 412 c 0,4,5
 172 479 172 479 188 553 c 0,6,7
 241 802 241 802 430 960 c 0,8,9
 622 1120 622 1120 864 1120 c 0,10,11
 1107 1120 1107 1120 1224 974 c 0,12,13
 1316 858 1316 858 1316 679 c 0,14,15
 1316 593 1316 593 1295 491 c 1,16,-1
 507 491 l 1,17,-1
 454 239 l 1,18,19
 533 163 533 163 664 163 c 0,20,21
 872 163 872 163 1030 351 c 1,22,-1
 1173 255 l 1,23,24
 1013 85 1013 85 883 32.5 c 128,-1,25
 753 -20 753 -20 625 -20 c 0,0,1
1000 680 m 1,26,-1
 1038 862 l 1,27,28
 956 935 956 935 826 935 c 0,29,30
 694 935 694 935 586 861 c 1,31,-1
 548 680 l 1,32,-1
 1000 680 l 1,26,-1
EndSplineSet
Validated: 1
EndChar

StartChar: partialdiff
Encoding: 8706 8706 59
Width: 1265
GlyphClass: 2
Flags: W
HStem: -20 273<488.171 700.08> 823 260<712.537 955.899> 1257 273<751.982 1056.06>
VStem: 153 317<275.435 519.417> 1100 310<1024.77 1213.04>
LayerCount: 2
Fore
SplineSet
498 -20 m 0,0,1
 228 -20 228 -20 169 171 c 0,2,3
 153 223 153 223 153 285 c 0,4,5
 153 345 153 345 168 416 c 0,6,7
 223 673 223 673 420.5 878 c 128,-1,8
 618 1083 618 1083 890 1083 c 0,9,10
 1009 1083 1009 1083 1094 1024 c 1,11,12
 1100 1059 1100 1059 1100 1089 c 0,13,14
 1100 1138 1100 1138 1084 1173 c 0,15,16
 1045 1257 1045 1257 923 1257 c 0,17,18
 768 1257 768 1257 591 1132 c 1,19,-1
 657 1443 l 1,20,21
 821 1530 821 1530 1018 1530 c 0,22,23
 1335 1530 1335 1530 1396 1271 c 0,24,25
 1410 1213 1410 1213 1410 1145 c 0,26,27
 1410 1057 1410 1057 1387 950 c 0,28,29
 1305 563 1305 563 1060 272 c 0,30,31
 817 -20 817 -20 498 -20 c 0,0,1
998 699 m 1,32,33
 989 756 989 756 952 788 c 0,34,35
 912 823 912 823 845 823 c 0,36,37
 736 823 736 823 630 706 c 0,38,39
 505 567 505 567 477 431 c 0,40,41
 470 396 470 396 470 367 c 0,42,43
 470 324 470 324 486 295 c 0,44,45
 509 253 509 253 569 253 c 0,46,47
 676 253 676 253 797 376 c 128,-1,48
 918 499 918 499 998 699 c 1,32,33
EndSplineSet
Validated: 1
EndChar

StartChar: uni2206
Encoding: 8710 8710 60
Width: 1596
GlyphClass: 2
Flags: W
HStem: 0 140<348 1163> 0 80<28.7158 165.996 1482 1584.28> 1490 20G<963 1275.5>
DStem2: 166 120 348 140 0.485145 0.874434<105.785 1467.43> 1308 1460 1008 1331 0.12877 -0.991675<89.2951 1290.34>
LayerCount: 2
Fore
SplineSet
35 0 m 2,0,1
 22 0 22 0 22 9 c 0,2,3
 22 10 22 10 23 15 c 2,4,-1
 34 65 l 2,5,6
 37 80 37 80 52 80 c 2,7,-1
 97 80 l 2,8,9
 144 80 144 80 166 120 c 2,10,-1
 910 1461 l 2,11,12
 937 1510 937 1510 989 1510 c 2,13,-1
 1249 1510 l 2,14,15
 1302 1510 1302 1510 1308 1460 c 2,16,-1
 1482 120 l 2,17,18
 1487 80 1487 80 1533 80 c 2,19,-1
 1578 80 l 2,20,21
 1591 80 1591 80 1591 71 c 0,22,23
 1591 70 1591 70 1590 65 c 2,24,-1
 1579 15 l 2,25,26
 1576 0 1576 0 1561 0 c 2,27,-1
 35 0 l 2,0,1
1008 1331 m 1,28,-1
 348 140 l 1,29,-1
 1163 140 l 1,30,-1
 1008 1331 l 1,28,-1
EndSplineSet
Validated: 1
EndChar

StartChar: product
Encoding: 8719 8719 61
Width: 1609
GlyphClass: 2
Flags: W
HStem: -410 80<-58.2842 97.5479 1388.05 1510.28> 1430 80<332.716 454.947 1745.45 1901.28>
VStem: 1056 329<-326.577 -91.25>
DStem2: 82.8654 -410 403.242 -410 0.207912 0.978148<84.7551 1817.66> 1032.24 -410 1351.87 -410 0.207912 0.978148<211.72 1819.64>
LayerCount: 2
Fore
SplineSet
263 -410 m 2,0,-1
 -52 -410 l 2,1,2
 -65 -410 -65 -410 -65 -401 c 0,3,4
 -65 -400 -65 -400 -64 -395 c 2,5,-1
 -53 -345 l 2,6,7
 -50 -330 -50 -330 -35 -330 c 2,8,-1
 10 -330 l 2,9,10
 100 -330 100 -330 119 -240 c 2,11,-1
 455 1340 l 2,12,13
 458 1354 458 1354 458 1369 c 0,14,15
 458 1430 458 1430 384 1430 c 2,16,-1
 339 1430 l 2,17,18
 326 1430 326 1430 326 1439 c 0,19,20
 326 1440 326 1440 327 1445 c 2,21,-1
 338 1495 l 2,22,23
 341 1510 341 1510 356 1510 c 2,24,-1
 1895 1510 l 2,25,26
 1908 1510 1908 1510 1908 1500 c 0,27,28
 1907 1495 l 2,29,-1
 1896 1445 l 2,30,31
 1893 1430 1893 1430 1878 1430 c 2,32,-1
 1833 1430 l 2,33,34
 1743 1430 1743 1430 1724 1340 c 2,35,-1
 1388 -240 l 2,36,37
 1385 -254 1385 -254 1385 -269 c 0,38,39
 1385 -330 1385 -330 1459 -330 c 2,40,-1
 1504 -330 l 2,41,42
 1517 -330 1517 -330 1517 -339 c 0,43,44
 1517 -340 1517 -340 1516 -345 c 2,45,-1
 1505 -395 l 2,46,47
 1502 -410 1502 -410 1487 -410 c 2,48,-1
 1172 -410 l 2,49,50
 1057 -410 1057 -410 1056 -315 c 0,51,52
 1056 -298 1056 -298 1062 -270 c 2,53,-1
 1410 1370 l 1,54,-1
 781 1370 l 1,55,-1
 433 -270 l 2,56,57
 403 -410 403 -410 263 -410 c 2,0,-1
EndSplineSet
Validated: 1
EndChar

StartChar: summation
Encoding: 8721 8721 62
Width: 1294
GlyphClass: 2
Flags: W
HStem: -410 140<399 1020.88> 1370 140<725 1325.35>
DStem2: 725 1370 368 1441 0.31899 -0.947758<0 687.195>
LayerCount: 2
Fore
SplineSet
40 -410 m 2,0,1
 -7 -410 -7 -410 -7 -385 c 0,2,3
 -7 -371 -7 -371 13 -341 c 2,4,-1
 645 618 l 1,5,-1
 368 1441 l 2,6,7
 362 1459 362 1459 362 1470 c 0,8,9
 362 1510 362 1510 424 1510 c 2,10,-1
 1322 1510 l 2,11,12
 1392 1510 1392 1510 1416 1447 c 2,13,-1
 1486 1263 l 2,14,15
 1488 1259 1488 1259 1488 1258 c 0,16,17
 1488 1250 1488 1250 1475 1244 c 2,18,-1
 1418 1216 l 2,19,20
 1414 1214 1414 1214 1411 1214 c 0,21,22
 1404 1214 1404 1214 1400 1224 c 0,23,24
 1343 1370 1343 1370 1174 1370 c 2,25,-1
 725 1370 l 1,26,-1
 977 636 l 2,27,28
 982 621 982 621 982 609 c 0,29,30
 982 583 982 583 962 554 c 2,31,-1
 399 -270 l 1,32,-1
 850 -270 l 2,33,34
 1021 -270 1021 -270 1138 -124 c 0,35,36
 1146 -114 1146 -114 1153 -114 c 0,37,38
 1156 -114 1156 -114 1159 -116 c 2,39,-1
 1204 -144 l 2,40,41
 1211 -148 1211 -148 1211 -154 c 0,42,43
 1211 -158 1211 -158 1207 -163 c 2,44,-1
 1058 -347 l 2,45,46
 1007 -410 1007 -410 938 -410 c 2,47,-1
 40 -410 l 2,0,1
EndSplineSet
Validated: 1
EndChar

StartChar: minus
Encoding: 8722 8722 63
Width: 1133
GlyphClass: 2
Flags: W
HStem: 630 250<269.656 1184.34>
LayerCount: 2
Fore
SplineSet
342 880 m 2,0,-1
 1165 880 l 2,1,2
 1218 880 1218 880 1218 836 c 0,3,4
 1218 827 1218 827 1216 815 c 2,5,-1
 1191 695 l 2,6,7
 1177 630 1177 630 1112 630 c 2,8,-1
 289 630 l 2,9,10
 236 630 236 630 236 674 c 0,11,12
 236 683 236 683 238 695 c 2,13,-1
 263 815 l 2,14,15
 277 880 277 880 342 880 c 2,0,-1
EndSplineSet
Validated: 1
EndChar

StartChar: uni2215
Encoding: 8725 8725 64
Width: 1091
GlyphClass: 2
Flags: W
DStem2: 49 129 261 0 0.624074 0.781365<-39.0561 1838.59>
LayerCount: 2
Fore
SplineSet
197 -40 m 0,0,1
 178 -40 178 -40 155 -27 c 2,2,-1
 54 29 l 2,3,4
 26 45 26 45 26 75 c 24,5,6
 26 100 26 100 49 129 c 2,7,-1
 1152 1510 l 2,8,9
 1184 1550 1184 1550 1217 1550 c 0,10,11
 1234 1550 1234 1550 1257 1537 c 2,12,-1
 1358 1481 l 2,13,14
 1386 1465 1386 1465 1386 1436 c 24,15,16
 1386 1409 1386 1409 1364 1381 c 2,17,-1
 261 0 l 2,18,19
 229 -40 229 -40 197 -40 c 0,0,1
EndSplineSet
Validated: 1
EndChar

StartChar: uni2219
Encoding: 8729 8729 65
Width: 460
GlyphClass: 2
Flags: W
HStem: 573 365<272.131 506.878>
VStem: 210 360<635.566 875.578>
LayerCount: 2
Fore
SplineSet
390 938 m 128,-1,1
 465 938 465 938 517.5 884.5 c 128,-1,2
 570 831 570 831 570 756 c 128,-1,3
 570 681 570 681 517 627 c 128,-1,4
 464 573 464 573 390 573 c 0,5,6
 314 573 314 573 262 627 c 128,-1,7
 210 681 210 681 210 755 c 0,8,9
 210 831 210 831 262 884 c 0,10,0
 315 938 315 938 390 938 c 128,-1,1
EndSplineSet
Validated: 1
EndChar

StartChar: radical
Encoding: 8730 8730 66
Width: 1228
GlyphClass: 2
Flags: W
HStem: 0 21G<412 657> 700 80<177.716 291.075> 1430 80<1370.13 1520.28>
DStem2: 580 726 304 612 0.128197 -0.991749<-14.3823 518.348> 647 212 714 55 0.436839 0.89954<0 1434.79>
LayerCount: 2
Fore
SplineSet
441 0 m 2,0,1
 383 0 383 0 376 55 c 2,2,-1
 304 612 l 2,3,4
 293 700 293 700 229 700 c 2,5,-1
 184 700 l 2,6,7
 171 700 171 700 171 708 c 0,8,9
 171 710 171 710 172 715 c 2,10,-1
 183 765 l 2,11,12
 186 780 186 780 201 780 c 2,13,-1
 516 780 l 2,14,15
 573 780 573 780 580 726 c 2,16,-1
 647 212 l 1,17,-1
 1254 1455 l 2,18,19
 1281 1510 1281 1510 1341 1510 c 2,20,-1
 1514 1510 l 2,21,22
 1527 1510 1527 1510 1527 1501 c 0,23,24
 1527 1500 1527 1500 1526 1495 c 2,25,-1
 1515 1445 l 2,26,27
 1512 1430 1512 1430 1497 1430 c 2,28,-1
 1452 1430 l 2,29,30
 1382 1430 1382 1430 1339 1342 c 2,31,-1
 714 55 l 2,32,33
 687 0 687 0 627 0 c 2,34,-1
 441 0 l 2,0,1
EndSplineSet
Validated: 1
EndChar

StartChar: infinity
Encoding: 8734 8734 67
Width: 1405
GlyphClass: 2
Flags: W
HStem: 382 78<484.964 625.401 992.299 1135.66> 1047 77<592.939 733.987 1100.93 1243.58>
VStem: 231 222<515.453 854.321> 764 198<652.377 858.265> 1273 222<652.445 991.806>
CounterMasks: 1 38
LayerCount: 2
Fore
SplineSet
1181 1047 m 128,-1,1
 1121 1047 1121 1047 1062 962.5 c 128,-1,2
 1003 878 1003 878 976 754 c 0,3,4
 962 687 962 687 962 632 c 0,5,6
 962 584 962 584 973 544 c 0,7,8
 996 460 996 460 1056 460 c 128,-1,9
 1116 460 1116 460 1174 544 c 0,10,11
 1229 624 1229 624 1258 754 c 0,12,13
 1273 821 1273 821 1273 878 c 0,14,15
 1273 925 1273 925 1263 963 c 0,16,0
 1241 1047 1241 1047 1181 1047 c 128,-1,1
687 1124 m 0,17,18
 838 1124 838 1124 920 1021 c 1,19,20
 1048 1124 1048 1124 1196 1124 c 0,21,22
 1351 1124 1351 1124 1434 1015 c 0,23,24
 1495 935 1495 935 1495 833 c 0,25,26
 1495 794 1495 794 1486 752 c 0,27,28
 1453 598 1453 598 1322 491 c 0,29,30
 1190 382 1190 382 1038 382 c 0,31,32
 887 382 887 382 806 485 c 1,33,34
 677 382 677 382 529 382 c 0,35,36
 374 382 374 382 292 491 c 0,37,38
 231 570 231 570 231 672 c 0,39,40
 231 711 231 711 240 754 c 0,41,42
 273 908 273 908 404 1015 c 0,43,44
 535 1124 535 1124 687 1124 c 0,17,18
672 1047 m 128,-1,46
 612 1047 612 1047 553 962.5 c 128,-1,47
 494 878 494 878 467 754 c 0,48,49
 453 687 453 687 453 632 c 0,50,51
 453 584 453 584 464 544 c 0,52,53
 487 460 487 460 547 460 c 128,-1,54
 607 460 607 460 665 544.5 c 128,-1,55
 723 629 723 629 749 754 c 0,56,57
 763 822 763 822 764 878 c 0,58,59
 764 925 764 925 754 963 c 0,60,45
 732 1047 732 1047 672 1047 c 128,-1,46
EndSplineSet
Validated: 1
EndChar

StartChar: approxequal
Encoding: 8776 8776 68
Width: 1158
GlyphClass: 2
Flags: W
HStem: 206 219<716 947.63> 469 219<381.785 613> 705 219<842 1073.63> 968 219<507.785 739>
LayerCount: 2
Fore
SplineSet
536 688 m 0,0,1
 690 688 690 688 769 537 c 0,2,3
 827 425 827 425 881 425 c 0,4,5
 962 425 962 425 999 603 c 0,6,7
 1012 667 1012 667 1077 667 c 2,8,-1
 1125 667 l 2,9,10
 1179 667 1179 667 1179 623 c 0,11,12
 1179 614 1179 614 1177 603 c 0,13,14
 1092 206 1092 206 793 206 c 0,15,16
 639 206 639 206 561 357 c 0,17,18
 502 469 502 469 448 469 c 0,19,20
 368 469 368 469 331 291 c 0,21,22
 317 227 317 227 252 227 c 2,23,-1
 204 227 l 2,24,25
 150 227 150 227 150 271 c 0,26,27
 150 280 150 280 153 291 c 0,28,29
 237 688 237 688 536 688 c 0,0,1
662 1187 m 0,30,31
 816 1187 816 1187 895 1036 c 0,32,33
 953 924 953 924 1007 924 c 0,34,35
 1088 924 1088 924 1125 1102 c 0,36,37
 1138 1166 1138 1166 1203 1166 c 2,38,-1
 1251 1166 l 2,39,40
 1305 1166 1305 1166 1305 1122 c 0,41,42
 1305 1113 1305 1113 1303 1102 c 0,43,44
 1218 705 1218 705 919 705 c 0,45,46
 765 705 765 705 687 856 c 0,47,48
 628 968 628 968 574 968 c 0,49,50
 494 968 494 968 457 790 c 0,51,52
 443 726 443 726 378 726 c 2,53,-1
 330 726 l 2,54,55
 276 726 276 726 276 770 c 0,56,57
 276 779 276 779 279 790 c 0,58,59
 363 1187 363 1187 662 1187 c 0,30,31
EndSplineSet
Validated: 1
EndChar

StartChar: notequal
Encoding: 8800 8800 69
Width: 1133
GlyphClass: 2
Flags: W
HStem: 430 250<227.648 394 545 592 743 1141.35> 830 250<312.648 710 861 908 1059 1226.35>
DStem2: 202 186 301 121 0.61975 0.784799<-24.0673 310.483 722.976 820.244 1232.74 1567.29>
LayerCount: 2
Fore
SplineSet
385 1080 m 2,0,-1
 908 1080 l 1,1,-1
 1152 1389 l 2,2,3
 1167 1408 1167 1408 1184 1408 c 0,4,5
 1194 1408 1194 1408 1203 1402 c 2,6,-1
 1249 1372 l 2,7,8
 1262 1364 1262 1364 1262 1349 c 0,9,10
 1262 1338 1262 1338 1251 1324 c 2,11,-1
 1059 1080 l 1,12,-1
 1208 1080 l 2,13,14
 1262 1080 1262 1080 1262 1036 c 0,15,16
 1262 1026 1262 1026 1259 1015 c 2,17,-1
 1233 895 l 2,18,19
 1219 830 1219 830 1154 830 c 2,20,-1
 861 830 l 1,21,-1
 743 680 l 1,22,-1
 1123 680 l 2,23,24
 1177 680 1177 680 1177 636 c 0,25,26
 1177 626 1177 626 1174 615 c 2,27,-1
 1148 495 l 2,28,29
 1134 430 1134 430 1069 430 c 2,30,-1
 545 430 l 1,31,-1
 301 121 l 2,32,33
 286 102 286 102 269 102 c 0,34,35
 259 102 259 102 250 108 c 2,36,-1
 204 138 l 2,37,38
 191 147 191 147 191 162 c 0,39,40
 191 172 191 172 202 186 c 2,41,-1
 394 430 l 1,42,-1
 246 430 l 2,43,44
 192 430 192 430 192 474 c 0,45,46
 192 484 192 484 195 495 c 2,47,-1
 221 615 l 2,48,49
 235 680 235 680 300 680 c 2,50,-1
 592 680 l 1,51,-1
 710 830 l 1,52,-1
 331 830 l 2,53,54
 277 830 277 830 277 874 c 0,55,56
 277 884 277 884 280 895 c 2,57,-1
 306 1015 l 2,58,59
 320 1080 320 1080 385 1080 c 2,0,-1
EndSplineSet
Validated: 1
EndChar

StartChar: lessequal
Encoding: 8804 8804 70
Width: 1173
GlyphClass: 2
Flags: W
HStem: 97 250<146.656 1061.34>
DStem2: 495 931 295 773 0.85125 -0.524761<0 697.434> 346 1014 495 931 0.898758 0.438444<97.5241 990.783>
LayerCount: 2
Fore
SplineSet
219 347 m 2,0,-1
 1042 347 l 2,1,2
 1095 347 1095 347 1095 303 c 0,3,4
 1095 294 1095 294 1093 282 c 2,5,-1
 1068 162 l 2,6,7
 1054 97 1054 97 989 97 c 2,8,-1
 166 97 l 2,9,10
 113 97 113 97 113 141 c 0,11,12
 113 150 113 150 115 162 c 2,13,-1
 140 282 l 2,14,15
 154 347 154 347 219 347 c 2,0,-1
281 944 m 2,16,17
 290 987 290 987 346 1014 c 2,18,-1
 1209 1435 l 2,19,20
 1227 1444 1227 1444 1239 1444 c 0,21,22
 1262 1444 1262 1444 1273 1417 c 2,23,-1
 1293 1363 l 2,24,25
 1297 1352 1297 1352 1297 1341 c 0,26,27
 1297 1312 1297 1312 1261 1295 c 2,28,-1
 495 931 l 1,29,-1
 1095 574 l 2,30,31
 1115 562 1115 562 1115 545 c 128,-1,32
 1115 528 1115 528 1098 506 c 2,33,-1
 1011 394 l 2,34,35
 990 367 990 367 967 367 c 0,36,37
 955 367 955 367 939 376 c 2,38,-1
 295 773 l 2,39,40
 258 796 258 796 258 826 c 0,41,42
 258 835 258 835 260 843 c 2,43,-1
 281 944 l 2,16,17
EndSplineSet
Validated: 1
EndChar

StartChar: greaterequal
Encoding: 8805 8805 71
Width: 1173
GlyphClass: 2
Flags: W
HStem: 97 250<206.656 1121.34>
DStem2: 1230 1038 1030 880 0.85125 -0.524761<-784.771 -87.3377> 1030 880 316 376 0.898758 0.438444<-893.259 0>
LayerCount: 2
Fore
SplineSet
1244 867 m 2,0,1
 1235 824 1235 824 1179 797 c 2,2,-1
 316 376 l 2,3,4
 298 367 298 367 286 367 c 0,5,6
 263 367 263 367 252 394 c 2,7,-1
 232 448 l 2,8,9
 228 459 228 459 228 470 c 0,10,11
 228 499 228 499 264 516 c 2,12,-1
 1030 880 l 1,13,-1
 430 1237 l 2,14,15
 410 1249 410 1249 410 1266 c 128,-1,16
 410 1283 410 1283 427 1305 c 2,17,-1
 514 1417 l 2,18,19
 535 1444 535 1444 558 1444 c 0,20,21
 570 1444 570 1444 586 1435 c 2,22,-1
 1230 1038 l 2,23,24
 1267 1015 1267 1015 1267 985 c 0,25,26
 1267 976 1267 976 1265 968 c 2,27,-1
 1244 867 l 2,0,1
279 347 m 2,28,-1
 1102 347 l 2,29,30
 1155 347 1155 347 1155 303 c 0,31,32
 1155 294 1155 294 1153 282 c 2,33,-1
 1128 162 l 2,34,35
 1114 97 1114 97 1049 97 c 2,36,-1
 226 97 l 2,37,38
 173 97 173 97 173 141 c 0,39,40
 173 150 173 150 175 162 c 2,41,-1
 200 282 l 2,42,43
 214 347 214 347 279 347 c 2,28,-1
EndSplineSet
Validated: 1
EndChar

StartChar: lozenge
Encoding: 9674 9674 72
Width: 1198
GlyphClass: 2
Flags: W
HStem: -20 21G<585.29 613.16> 1510 20G<906.399 933.176>
DStem2: 227 738 494 846 0.660649 0.750695<257.468 674.114> 494 846 227 738 0.436739 -0.899588<0 577.407> 745 326 595 -20 0.672237 0.740336<0 410.132> 924 1530 769 1159 0.417012 -0.908901<272.566 854.066>
LayerCount: 2
Fore
SplineSet
745 326 m 1,0,-1
 1017 633 l 1,1,-1
 769 1159 l 1,2,-1
 494 846 l 1,3,-1
 745 326 l 1,0,-1
595 -20 m 1,4,-1
 227 738 l 1,5,-1
 924 1530 l 1,6,-1
 1286 741 l 1,7,-1
 595 -20 l 1,4,-1
EndSplineSet
Validated: 1
EndChar

StartChar: uni1E02
Encoding: 7682 7682 73
Width: 1320
Flags: W
HStem: 0 121<516 795.52> 0 80<28.7158 184.548> 776 120<680 916.432> 1389 121<785 1024.58> 1430 80<332.716 454.947> 1590 365<846.131 1080.88>
VStem: 784 360<1652.57 1892.58> 1034 336<357.05 668.076> 1089 334<1057.91 1326.37>
DStem2: 169.865 0 490.281 0 0.207912 0.978148<190.321 859.908 982.483 1398.56>
LayerCount: 2
Fore
SplineSet
964 1955 m 128,-1,1
 1039 1955 1039 1955 1091.5 1901.5 c 128,-1,2
 1144 1848 1144 1848 1144 1773 c 128,-1,3
 1144 1698 1144 1698 1091 1644 c 128,-1,4
 1038 1590 1038 1590 964 1590 c 0,5,6
 888 1590 888 1590 836 1644 c 128,-1,7
 784 1698 784 1698 784 1772 c 0,8,9
 784 1848 784 1848 836 1901 c 0,10,0
 889 1955 889 1955 964 1955 c 128,-1,1
785 1389 m 1,11,-1
 680 896 l 1,12,-1
 735 896 l 2,13,14
 904 896 904 896 990 978 c 0,15,16
 1063 1048 1063 1048 1083 1143 c 0,17,18
 1089 1173 1089 1173 1089 1200 c 0,19,20
 1089 1259 1089 1259 1060 1307 c 0,21,22
 1009 1389 1009 1389 840 1389 c 2,23,-1
 785 1389 l 1,11,-1
516 121 m 1,24,-1
 571 121 l 2,25,26
 767 121 767 121 887 221 c 0,27,28
 997 313 997 313 1026 450 c 0,29,30
 1034 489 1034 489 1034 524 c 0,31,32
 1034 611 1034 611 984 676 c 0,33,34
 906 776 906 776 710 776 c 2,35,-1
 655 776 l 1,36,-1
 516 121 l 1,24,-1
755 0 m 2,37,-1
 35 0 l 2,38,39
 22 0 22 0 22 9 c 0,40,41
 22 10 22 10 23 15 c 2,42,-1
 34 65 l 2,43,44
 37 80 37 80 52 80 c 2,45,-1
 97 80 l 2,46,47
 187 80 187 80 206 170 c 2,48,-1
 455 1340 l 2,49,50
 458 1355 458 1355 458 1369 c 0,51,52
 458 1430 458 1430 384 1430 c 2,53,-1
 339 1430 l 2,54,55
 326 1430 326 1430 326 1439 c 0,56,57
 326 1440 326 1440 327 1445 c 2,58,-1
 338 1495 l 2,59,60
 341 1510 341 1510 356 1510 c 2,61,-1
 1076 1510 l 2,62,63
 1246 1510 1246 1510 1340 1422 c 0,64,65
 1423 1344 1423 1344 1423 1232 c 0,66,67
 1423 1197 1423 1197 1415 1158 c 0,68,69
 1373 959 1373 959 1149 855 c 1,70,71
 1222 833 1222 833 1275 785 c 0,72,73
 1370 698 1370 698 1370 563 c 0,74,75
 1370 519 1370 519 1358 463 c 0,76,77
 1316 264 1316 264 1161 137 c 0,78,79
 995 0 995 0 755 0 c 2,37,-1
EndSplineSet
Validated: 1
EndChar

StartChar: uni1E03
Encoding: 7683 7683 74
Width: 1272
Flags: W
HStem: -20 111<587.706 801.092> 0 21G<217 430> 1009 111<765.623 972.442> 1180 365<934.131 1168.88> 1430 80<332.716 454.947>
VStem: 458 308<1183.75 1426.58> 872 360<1242.57 1482.58> 1041 304<469.935 894.568>
DStem2: 165.957 -20 465.744 -20 0.207912 0.978148<78.5327 164.563 283.371 1024.09 1127.56 1418.91>
LayerCount: 2
Fore
SplineSet
1052 1545 m 128,-1,1
 1127 1545 1127 1545 1179.5 1491.5 c 128,-1,2
 1232 1438 1232 1438 1232 1363 c 128,-1,3
 1232 1288 1232 1288 1179 1234 c 128,-1,4
 1126 1180 1126 1180 1052 1180 c 0,5,6
 976 1180 976 1180 924 1234 c 128,-1,7
 872 1288 872 1288 872 1362 c 0,8,9
 872 1438 872 1438 924 1491 c 0,10,0
 977 1545 977 1545 1052 1545 c 128,-1,1
250 0 m 2,11,12
 184 0 184 0 184 54 c 0,13,14
 184 65 184 65 187 79 c 2,15,-1
 455 1340 l 2,16,17
 458 1354 458 1354 458 1369 c 0,18,19
 458 1430 458 1430 384 1430 c 2,20,-1
 339 1430 l 2,21,22
 326 1430 326 1430 326 1439 c 0,23,24
 326 1440 326 1440 327 1445 c 2,25,-1
 338 1495 l 2,26,27
 341 1510 341 1510 356 1510 c 2,28,-1
 651 1510 l 2,29,30
 766 1510 766 1510 766 1415 c 0,31,32
 766 1394 766 1394 761 1370 c 2,33,-1
 687 1022 l 1,34,35
 784 1120 784 1120 927 1120 c 0,36,37
 1133 1120 1133 1120 1249 977 c 0,38,39
 1345 857 1345 857 1345 692 c 0,40,41
 1345 625 1345 625 1329 550 c 0,42,43
 1272 283 1272 283 1067 124 c 0,44,45
 881 -20 881 -20 685 -20 c 0,46,47
 544 -20 544 -20 487 80 c 1,48,49
 470 0 470 0 390 0 c 2,50,-1
 250 0 l 2,11,12
873 1009 m 0,51,52
 795 1009 795 1009 704 905 c 0,53,54
 668 865 668 865 639 795 c 1,55,-1
 535 305 l 1,56,57
 535 230 535 230 555 187 c 0,58,59
 599 91 599 91 679 91 c 0,60,61
 774 91 774 91 858 187 c 0,62,63
 965 309 965 309 1016 550 c 0,64,65
 1041 668 1041 668 1041 755 c 0,66,67
 1041 847 1041 847 1013 905 c 0,68,69
 963 1009 963 1009 873 1009 c 0,51,52
EndSplineSet
Validated: 1
EndChar

StartChar: uni1E0A
Encoding: 7690 7690 75
Width: 1497
Flags: W
HStem: 0 121<516 888.535> 0 80<28.7158 184.548> 1389 121<785 1139.39> 1430 80<332.716 454.947> 1590 365<896.131 1130.88>
VStem: 834 360<1652.57 1892.58> 1276 342<688.211 1169.38>
DStem2: 169.865 0 490.281 0 0.207912 0.978148<190.321 1398.53>
LayerCount: 2
Fore
SplineSet
1014 1955 m 128,-1,1
 1089 1955 1089 1955 1141.5 1901.5 c 128,-1,2
 1194 1848 1194 1848 1194 1773 c 128,-1,3
 1194 1698 1194 1698 1141 1644 c 128,-1,4
 1088 1590 1088 1590 1014 1590 c 0,5,6
 938 1590 938 1590 886 1644 c 128,-1,7
 834 1698 834 1698 834 1772 c 0,8,9
 834 1848 834 1848 886 1901 c 0,10,0
 939 1955 939 1955 1014 1955 c 128,-1,1
726 121 m 2,11,12
 902 121 902 121 1038 290 c 0,13,14
 1190 480 1190 480 1248 755 c 0,15,16
 1275 883 1275 883 1276 990 c 0,17,18
 1276 1120 1276 1120 1235 1220 c 0,19,20
 1166 1389 1166 1389 995 1389 c 2,21,-1
 785 1389 l 1,22,-1
 516 121 l 1,23,-1
 726 121 l 2,11,12
720 0 m 2,24,-1
 35 0 l 2,25,26
 22 0 22 0 22 9 c 0,27,28
 22 11 22 11 23 15 c 2,29,-1
 33 60 l 2,30,31
 37 80 37 80 52 80 c 2,32,-1
 97 80 l 2,33,34
 187 80 187 80 206 170 c 2,35,-1
 455 1340 l 2,36,37
 458 1354 458 1354 458 1369 c 0,38,39
 458 1430 458 1430 384 1430 c 2,40,-1
 339 1430 l 2,41,42
 326 1430 326 1430 326 1439 c 0,43,44
 326 1440 326 1440 327 1445 c 2,45,-1
 338 1495 l 2,46,47
 341 1510 341 1510 356 1510 c 2,48,-1
 1041 1510 l 2,49,50
 1370 1510 1370 1510 1518 1279 c 0,51,52
 1618 1122 1618 1122 1618 933 c 0,53,54
 1618 852 1618 852 1600 765 c 0,55,56
 1534 455 1534 455 1295 231 c 0,57,58
 1048 0 1048 0 720 0 c 2,24,-1
EndSplineSet
Validated: 1
EndChar

StartChar: uni1E0B
Encoding: 7691 7691 76
Width: 1272
Flags: W
HStem: -20 111<533.058 738.725> 0 80<1138.05 1260.28> 1009 111<704.381 918.24> 1180 365<564.131 798.878> 1430 80<964.716 1086.95>
VStem: 161 304<205.432 630.065> 502 360<1242.57 1482.58> 1090 308<1183.75 1426.58>
DStem2: 797.766 -20 1097.61 -20 0.207912 0.978148<228.055 944.463 1063.27 1418.95>
LayerCount: 2
Fore
SplineSet
682 1545 m 128,-1,1
 757 1545 757 1545 809.5 1491.5 c 128,-1,2
 862 1438 862 1438 862 1363 c 128,-1,3
 862 1288 862 1288 809 1234 c 128,-1,4
 756 1180 756 1180 682 1180 c 0,5,6
 606 1180 606 1180 554 1234 c 128,-1,7
 502 1288 502 1288 502 1362 c 0,8,9
 502 1438 502 1438 554 1491 c 0,10,0
 607 1545 607 1545 682 1545 c 128,-1,1
942 0 m 2,11,12
 832 0 832 0 826 87 c 1,13,14
 727 -20 727 -20 579 -20 c 0,15,16
 373 -20 373 -20 257 123 c 0,17,18
 161 243 161 243 161 408 c 0,19,20
 161 475 161 475 177 550 c 0,21,22
 234 817 234 817 438 976 c 0,23,24
 624 1120 624 1120 821 1120 c 0,25,26
 962 1120 962 1120 1019 1020 c 1,27,-1
 1087 1340 l 2,28,29
 1090 1354 1090 1354 1090 1369 c 0,30,31
 1090 1430 1090 1430 1016 1430 c 2,32,-1
 971 1430 l 2,33,34
 958 1430 958 1430 958 1437 c 0,35,36
 958 1440 958 1440 959 1445 c 2,37,-1
 970 1495 l 2,38,39
 973 1510 973 1510 988 1510 c 2,40,-1
 1283 1510 l 2,41,42
 1398 1510 1398 1510 1398 1415 c 0,43,44
 1398 1394 1398 1394 1393 1370 c 2,45,-1
 1138 170 l 2,46,47
 1135 156 1135 156 1135 141 c 0,48,49
 1135 80 1135 80 1209 80 c 2,50,-1
 1254 80 l 2,51,52
 1267 80 1267 80 1267 72 c 0,53,54
 1267 70 1267 70 1266 65 c 2,55,-1
 1255 15 l 2,56,57
 1252 0 1252 0 1237 0 c 2,58,-1
 942 0 l 2,11,12
632 91 m 0,59,60
 710 91 710 91 801 195 c 0,61,62
 837 235 837 235 867 305 c 1,63,-1
 971 795 l 1,64,65
 971 870 971 870 951 913 c 0,66,67
 907 1009 907 1009 826 1009 c 0,68,69
 731 1009 731 1009 648 913 c 0,70,71
 541 791 541 791 490 550 c 0,72,73
 465 432 465 432 465 345 c 0,74,75
 465 253 465 253 492 195 c 0,76,77
 542 91 542 91 632 91 c 0,59,60
EndSplineSet
Validated: 1
EndChar

StartChar: uni1E1E
Encoding: 7710 7710 77
Width: 1199
Flags: W
HStem: 0 21G<217 450> 685 140<665 963.996> 1370 140<781 1294.35> 1430 80<332.716 454.947> 1590 365<846.131 1080.88>
VStem: 784 360<1652.57 1892.58>
DStem2: 170.208 0 490.208 0 0.207912 0.978148<62.183 766.875 909.845 1398.46> 842.157 0 922.157 0 0.207912 0.978148<551.291 624.268 849.961 1009.09>
LayerCount: 2
Fore
SplineSet
964 1955 m 128,-1,1
 1039 1955 1039 1955 1091.5 1901.5 c 128,-1,2
 1144 1848 1144 1848 1144 1773 c 128,-1,3
 1144 1698 1144 1698 1091 1644 c 128,-1,4
 1038 1590 1038 1590 964 1590 c 0,5,6
 888 1590 888 1590 836 1644 c 128,-1,7
 784 1698 784 1698 784 1772 c 0,8,9
 784 1848 784 1848 836 1901 c 0,10,0
 889 1955 889 1955 964 1955 c 128,-1,1
250 0 m 2,11,12
 184 0 184 0 184 54 c 0,13,14
 184 65 184 65 187 79 c 2,15,-1
 455 1340 l 2,16,17
 458 1354 458 1354 458 1369 c 0,18,19
 458 1430 458 1430 384 1430 c 2,20,-1
 339 1430 l 2,21,22
 326 1430 326 1430 326 1438 c 0,23,24
 326 1440 326 1440 327 1445 c 2,25,-1
 338 1495 l 2,26,27
 341 1510 341 1510 356 1510 c 2,28,-1
 1291 1510 l 2,29,30
 1361 1510 1361 1510 1385 1447 c 2,31,-1
 1455 1263 l 2,32,33
 1457 1258 1457 1258 1457 1257 c 0,34,35
 1457 1250 1457 1250 1444 1244 c 2,36,-1
 1387 1216 l 2,37,38
 1383 1214 1383 1214 1380 1214 c 0,39,40
 1373 1214 1373 1214 1369 1224 c 0,41,42
 1312 1370 1312 1370 1143 1370 c 2,43,-1
 781 1370 l 1,44,-1
 665 825 l 1,45,-1
 927 825 l 2,46,47
 1019 825 1019 825 1043 945 c 2,48,-1
 1047 965 l 2,49,50
 1050 979 1050 979 1064 979 c 2,51,-1
 1114 979 l 2,52,53
 1128 979 1128 979 1128 971 c 0,54,55
 1128 970 1128 970 1127 965 c 2,56,-1
 1038 545 l 2,57,58
 1035 531 1035 531 1019 531 c 2,59,-1
 969 531 l 2,60,61
 957 531 957 531 957 539 c 0,62,63
 957 540 957 540 958 545 c 2,64,-1
 962 565 l 2,65,66
 968 595 968 595 968 612 c 0,67,68
 968 685 968 685 898 685 c 2,69,-1
 636 685 l 1,70,-1
 507 79 l 2,71,72
 490 0 490 0 410 0 c 2,73,-1
 250 0 l 2,11,12
EndSplineSet
Validated: 1
EndChar

StartChar: uni1E1F
Encoding: 7711 7711 78
Width: 995
Flags: W
HStem: -410 50<-133.95 -24.6484> 710 120<186.766 321 646 920.234> 1420 110<855.253 1093.56> 1590 365<746.131 980.878>
VStem: 684 360<1652.57 1892.58> 1139 131<1177.88 1374.62> 1139 83<1146 1228.32>
DStem2: 82.9367 -410 382.977 -410 0.207912 0.978148<255.345 1145.02 1329.97 1779.47>
LayerCount: 2
Fore
SplineSet
864 1955 m 128,-1,1
 939 1955 939 1955 991.5 1901.5 c 128,-1,2
 1044 1848 1044 1848 1044 1773 c 128,-1,3
 1044 1698 1044 1698 991 1644 c 128,-1,4
 938 1590 938 1590 864 1590 c 0,5,6
 788 1590 788 1590 736 1644 c 128,-1,7
 684 1698 684 1698 684 1772 c 0,8,9
 684 1848 684 1848 736 1901 c 0,10,0
 789 1955 789 1955 864 1955 c 128,-1,1
-124 -410 m 0,11,12
 -137 -410 -137 -410 -137 -401 c 0,13,14
 -137 -400 -137 -400 -136 -395 c 2,15,-1
 -132 -375 l 2,16,17
 -129 -360 -129 -360 -113 -360 c 16,18,19
 -28 -360 -28 -360 45 -286 c 0,20,21
 127 -203 127 -203 168 -10 c 2,22,-1
 321 710 l 1,23,-1
 186 710 l 2,24,25
 173 710 173 710 173 718 c 0,26,27
 173 720 173 720 174 725 c 2,28,-1
 193 815 l 2,29,30
 196 830 196 830 211 830 c 2,31,-1
 346 830 l 1,32,-1
 410 1130 l 2,33,34
 449 1312 449 1312 604 1431 c 0,35,36
 733 1530 733 1530 942 1530 c 0,37,38
 1138 1530 1138 1530 1255 1429 c 0,39,40
 1270 1416 1270 1416 1270 1394 c 0,41,42
 1270 1386 1270 1386 1268 1377 c 2,43,-1
 1222 1161 l 2,44,45
 1219 1146 1219 1146 1208 1146 c 2,46,-1
 1151 1146 l 2,47,48
 1139 1146 1139 1146 1139 1159 c 0,49,50
 1139 1160 1139 1160 1139 1161 c 0,51,52
 1140 1181 1140 1181 1140 1199 c 0,53,54
 1140 1420 1140 1420 994 1420 c 0,55,56
 894 1420 894 1420 820 1346 c 0,57,58
 738 1264 738 1264 697 1070 c 2,59,-1
 646 830 l 1,60,-1
 921 830 l 2,61,62
 934 830 934 830 934 821 c 0,63,64
 934 820 934 820 933 815 c 2,65,-1
 914 725 l 2,66,67
 911 710 911 710 896 710 c 2,68,-1
 621 710 l 1,69,-1
 468 -10 l 2,70,71
 428 -200 428 -200 284 -311 c 0,72,73
 155 -410 155 -410 -124 -410 c 0,11,12
EndSplineSet
Validated: 1
EndChar

StartChar: uni1E41
Encoding: 7745 7745 79
Width: 2056
Flags: W
HStem: 0 80<1922.05 2044.28> 951 169<928.991 1177.5 1636.99 1885.5> 1020 80<245.716 367.947> 1180 365<1214.13 1448.88>
VStem: 371 309<781.93 1015.63> 1052 303<718.912 902.405> 1152 360<1242.57 1482.58> 1611 308<83.4235 323.516> 1760 303<708.996 902.405>
DStem2: 1586.24 0 1885.87 0 0.207912 0.978148<207.561 874.092>
LayerCount: 2
Fore
SplineSet
1332 1545 m 128,-1,1
 1407 1545 1407 1545 1459.5 1491.5 c 128,-1,2
 1512 1438 1512 1438 1512 1363 c 128,-1,3
 1512 1288 1512 1288 1459 1234 c 128,-1,4
 1406 1180 1406 1180 1332 1180 c 0,5,6
 1256 1180 1256 1180 1204 1234 c 128,-1,7
 1152 1288 1152 1288 1152 1362 c 0,8,9
 1152 1438 1152 1438 1204 1491 c 0,10,0
 1257 1545 1257 1545 1332 1545 c 128,-1,1
250 0 m 2,11,12
 184 0 184 0 184 54 c 0,13,14
 184 65 184 65 187 79 c 2,15,-1
 368 930 l 2,16,17
 371 944 371 944 371 959 c 0,18,19
 371 1020 371 1020 297 1020 c 2,20,-1
 252 1020 l 2,21,22
 239 1020 239 1020 239 1029 c 0,23,24
 239 1030 239 1030 240 1035 c 2,25,-1
 251 1085 l 2,26,27
 254 1100 254 1100 269 1100 c 2,28,-1
 564 1100 l 2,29,30
 680 1100 680 1100 680 1006 c 0,31,32
 680 990 680 990 674 962 c 2,33,-1
 592 574 l 1,34,35
 769 1120 769 1120 1106 1120 c 0,36,37
 1249 1120 1249 1120 1312 1036 c 0,38,39
 1355 979 1355 979 1355 886 c 0,40,41
 1355 831 1355 831 1342 770 c 2,42,-1
 1300 574 l 1,43,44
 1477 1120 1477 1120 1814 1120 c 0,45,46
 1957 1120 1957 1120 2020 1036 c 0,47,48
 2063 979 2063 979 2063 886 c 0,49,50
 2063 831 2063 831 2050 770 c 2,51,-1
 1922 170 l 2,52,53
 1919 156 1919 156 1919 141 c 0,54,55
 1919 80 1919 80 1993 80 c 2,56,-1
 2038 80 l 2,57,58
 2051 80 2051 80 2051 72 c 0,59,60
 2051 70 2051 70 2050 65 c 2,61,-1
 2039 15 l 2,62,63
 2036 0 2036 0 2021 0 c 2,64,-1
 1726 0 l 2,65,66
 1611 0 1611 0 1611 95 c 0,67,68
 1611 116 1611 116 1616 140 c 2,69,-1
 1750 770 l 2,70,71
 1760 816 1760 816 1760 858 c 0,72,73
 1760 884 1760 884 1755 903 c 0,74,75
 1741 951 1741 951 1687 951 c 0,76,77
 1460 951 1460 951 1195 79 c 0,78,79
 1171 0 1171 0 1098 0 c 2,80,-1
 958 0 l 2,81,82
 892 0 892 0 892 54 c 0,83,84
 892 65 892 65 895 79 c 2,85,-1
 1042 770 l 2,86,87
 1052 816 1052 816 1052 858 c 0,88,89
 1052 884 1052 884 1047 903 c 0,90,91
 1033 951 1033 951 979 951 c 0,92,93
 752 951 752 951 487 79 c 0,94,95
 463 0 463 0 390 0 c 2,96,-1
 250 0 l 2,11,12
EndSplineSet
Validated: 1
EndChar

StartChar: uni1E56
Encoding: 7766 7766 80
Width: 1258
Flags: W
HStem: 0 21G<217 450> 548 121<632 870.39> 1389 121<785 1004.24> 1430 80<332.716 454.947> 1590 365<846.131 1080.88>
VStem: 784 360<1652.57 1892.58> 1098 332<927.548 1296.99>
DStem2: 170.208 0 490.208 0 0.207912 0.978148<62.183 626.631 750.393 1398.46>
LayerCount: 2
Fore
SplineSet
964 1955 m 128,-1,1
 1039 1955 1039 1955 1091.5 1901.5 c 128,-1,2
 1144 1848 1144 1848 1144 1773 c 128,-1,3
 1144 1698 1144 1698 1091 1644 c 128,-1,4
 1038 1590 1038 1590 964 1590 c 0,5,6
 888 1590 888 1590 836 1644 c 128,-1,7
 784 1698 784 1698 784 1772 c 0,8,9
 784 1848 784 1848 836 1901 c 0,10,0
 889 1955 889 1955 964 1955 c 128,-1,1
250 0 m 2,11,12
 184 0 184 0 184 54 c 0,13,14
 184 65 184 65 187 79 c 2,15,-1
 455 1340 l 2,16,17
 458 1354 458 1354 458 1369 c 0,18,19
 458 1430 458 1430 384 1430 c 2,20,-1
 339 1430 l 2,21,22
 326 1430 326 1430 326 1439 c 0,23,24
 326 1440 326 1440 327 1445 c 2,25,-1
 338 1495 l 2,26,27
 341 1510 341 1510 356 1510 c 2,28,-1
 1034 1510 l 2,29,30
 1256 1510 1256 1510 1364 1361 c 0,31,32
 1430 1270 1430 1270 1430 1146 c 0,33,34
 1430 1091 1430 1091 1417 1029 c 0,35,36
 1374 829 1374 829 1223 697 c 0,37,38
 1053 548 1053 548 829 548 c 2,39,-1
 606 548 l 1,40,-1
 507 79 l 2,41,42
 490 0 490 0 410 0 c 2,43,-1
 250 0 l 2,11,12
785 1389 m 1,44,-1
 632 669 l 1,45,-1
 675 669 l 2,46,47
 860 669 860 669 964 785 c 0,48,49
 1057 889 1057 889 1087 1029 c 0,50,51
 1098 1083 1098 1083 1098 1131 c 0,52,53
 1098 1210 1098 1210 1068 1273 c 0,54,55
 1011 1389 1011 1389 828 1389 c 2,56,-1
 785 1389 l 1,44,-1
EndSplineSet
Validated: 1
EndChar

StartChar: uni1E57
Encoding: 7767 7767 81
Width: 1272
Flags: W
HStem: -410 21G<130 343> -20 111<587.706 801.301> 1009 111<766.358 972.442> 1020 80<245.716 367.947> 1180 365<814.131 1048.88>
VStem: 752 360<1242.57 1482.58> 1041 304<469.935 894.568>
DStem2: 83.208 -410 383.208 -410 0.207912 0.978148<58.0247 563.245 682.053 1398.46>
LayerCount: 2
Fore
SplineSet
932 1545 m 128,-1,1
 1007 1545 1007 1545 1059.5 1491.5 c 128,-1,2
 1112 1438 1112 1438 1112 1363 c 128,-1,3
 1112 1288 1112 1288 1059 1234 c 128,-1,4
 1006 1180 1006 1180 932 1180 c 0,5,6
 856 1180 856 1180 804 1234 c 128,-1,7
 752 1288 752 1288 752 1362 c 0,8,9
 752 1438 752 1438 804 1491 c 0,10,0
 857 1545 857 1545 932 1545 c 128,-1,1
685 -20 m 0,11,12
 544 -20 544 -20 487 80 c 1,13,-1
 400 -331 l 2,14,15
 383 -410 383 -410 303 -410 c 2,16,-1
 163 -410 l 2,17,18
 97 -410 97 -410 97 -356 c 0,19,20
 97 -345 97 -345 100 -331 c 2,21,-1
 368 930 l 2,22,23
 371 944 371 944 371 959 c 0,24,25
 371 1020 371 1020 297 1020 c 2,26,-1
 252 1020 l 2,27,28
 239 1020 239 1020 239 1029 c 0,29,30
 239 1030 239 1030 240 1035 c 2,31,-1
 251 1085 l 2,32,33
 254 1100 254 1100 269 1100 c 2,34,-1
 564 1100 l 2,35,36
 674 1100 674 1100 679 1013 c 1,37,38
 778 1120 778 1120 927 1120 c 0,39,40
 1133 1120 1133 1120 1249 977 c 0,41,42
 1345 857 1345 857 1345 692 c 0,43,44
 1345 625 1345 625 1329 550 c 0,45,46
 1272 283 1272 283 1067 124 c 0,47,48
 882 -20 882 -20 685 -20 c 0,11,12
873 1009 m 0,49,50
 795 1009 795 1009 704 905 c 0,51,52
 668 865 668 865 639 795 c 1,53,-1
 535 305 l 1,54,55
 535 230 535 230 555 187 c 0,56,57
 599 91 599 91 679 91 c 0,58,59
 774 91 774 91 858 187 c 0,60,61
 965 309 965 309 1016 550 c 0,62,63
 1041 668 1041 668 1041 755 c 0,64,65
 1041 847 1041 847 1013 905 c 0,66,67
 963 1009 963 1009 873 1009 c 0,49,50
EndSplineSet
Validated: 1
EndChar

StartChar: uni1E60
Encoding: 7776 7776 82
Width: 1200
Flags: W
HStem: -20 120<334.24 678.043> 1399 131<779.272 1056.66> 1590 365<846.131 1080.88>
VStem: 78 146<168 468> 372 311<1061 1240.78> 784 360<1652.57 1892.58> 907 326<381.5 608.218> 1141 136<1095 1356>
LayerCount: 2
Fore
SplineSet
964 1955 m 128,-1,1
 1039 1955 1039 1955 1091.5 1901.5 c 128,-1,2
 1144 1848 1144 1848 1144 1773 c 128,-1,3
 1144 1698 1144 1698 1091 1644 c 128,-1,4
 1038 1590 1038 1590 964 1590 c 0,5,6
 888 1590 888 1590 836 1644 c 128,-1,7
 784 1698 784 1698 784 1772 c 0,8,9
 784 1848 784 1848 836 1901 c 0,10,0
 889 1955 889 1955 964 1955 c 128,-1,1
522 -20 m 0,11,12
 252 -20 252 -20 99 118 c 0,13,14
 78 137 78 137 78 168 c 0,15,16
 78 178 78 178 81 192 c 2,17,-1
 139 468 l 2,18,19
 142 483 142 483 158 483 c 2,20,-1
 213 483 l 2,21,22
 224 483 224 483 224 468 c 0,23,24
 224 100 224 100 476 100 c 0,25,26
 645 100 645 100 765 200 c 0,27,28
 868 285 868 285 898 403 c 0,29,30
 907 439 907 439 907 474 c 0,31,32
 907 520 907 520 891 563 c 0,33,34
 867 626 867 626 767 674 c 2,35,-1
 591 758 l 2,36,37
 478 812 478 812 424 892 c 0,38,39
 372 970 372 970 372 1061 c 0,40,41
 372 1098 372 1098 380 1136 c 0,42,43
 397 1219 397 1219 446 1293 c 0,44,45
 505 1383 505 1383 608 1450 c 0,46,47
 733 1530 733 1530 910 1530 c 0,48,49
 1120 1530 1120 1530 1256 1406 c 0,50,51
 1277 1387 1277 1387 1277 1356 c 0,52,53
 1277 1346 1277 1346 1274 1332 c 2,54,-1
 1224 1095 l 2,55,56
 1221 1080 1221 1080 1206 1080 c 2,57,-1
 1153 1080 l 2,58,59
 1141 1080 1141 1080 1141 1095 c 0,60,61
 1141 1399 1141 1399 924 1399 c 0,62,63
 837 1399 837 1399 768 1346 c 0,64,65
 697 1291 697 1291 686 1212 c 0,66,67
 683 1192 683 1192 683 1174 c 0,68,69
 683 1117 683 1117 712 1079 c 0,70,71
 747 1034 747 1034 821 999 c 2,72,-1
 1013 909 l 2,73,74
 1145 847 1145 847 1202 719 c 0,75,76
 1233 649 1233 649 1233 573 c 0,77,78
 1233 531 1233 531 1224 488 c 0,79,80
 1185 304 1185 304 1014 155 c 0,81,82
 815 -20 815 -20 522 -20 c 0,11,12
EndSplineSet
Validated: 1
EndChar

StartChar: uni1E61
Encoding: 7777 7777 83
Width: 996
Flags: W
HStem: -20 111<277.922 584.545> 1010 110<639.164 864.676> 1180 365<664.131 898.878>
VStem: 75 130<166.366 374.656> 124 83<327.371 410> 276 303<699 911.36> 602 360<1242.57 1482.58> 705 298<264.048 448> 900 131<779.875 977.487> 900 83<748 830.317>
LayerCount: 2
Fore
SplineSet
782 1545 m 128,-1,1
 857 1545 857 1545 909.5 1491.5 c 128,-1,2
 962 1438 962 1438 962 1363 c 128,-1,3
 962 1288 962 1288 909 1234 c 128,-1,4
 856 1180 856 1180 782 1180 c 0,5,6
 706 1180 706 1180 654 1234 c 128,-1,7
 602 1288 602 1288 602 1362 c 0,8,9
 602 1438 602 1438 654 1491 c 0,10,0
 707 1545 707 1545 782 1545 c 128,-1,1
442 -20 m 0,11,12
 232 -20 232 -20 96 104 c 0,13,14
 75 123 75 123 75 154 c 0,15,16
 75 165 75 165 78 178 c 2,17,-1
 124 395 l 2,18,19
 127 410 127 410 142 410 c 2,20,-1
 195 410 l 2,21,22
 207 410 207 410 207 397 c 0,23,24
 207 396 207 396 207 395 c 0,25,26
 205 368 205 368 205 343 c 0,27,28
 205 91 205 91 423 91 c 0,29,30
 546 91 546 91 623 165 c 0,31,32
 687 228 687 228 701 292 c 0,33,34
 705 313 705 313 705 330 c 0,35,36
 705 368 705 368 686 394 c 0,37,38
 659 429 659 429 606 448 c 2,39,-1
 506 484 l 2,40,41
 386 527 386 527 328 594 c 0,42,43
 276 654 276 654 276 744 c 0,44,45
 276 781 276 781 285 822 c 0,46,47
 313 952 313 952 451 1045 c 0,48,49
 563 1120 563 1120 721 1120 c 0,50,51
 916 1120 916 1120 1016 1031 c 0,52,53
 1031 1018 1031 1018 1031 996 c 0,54,55
 1031 988 1031 988 1029 979 c 2,56,-1
 983 763 l 2,57,58
 980 748 980 748 969 748 c 2,59,-1
 912 748 l 2,60,61
 900 748 900 748 900 761 c 0,62,63
 900 762 900 762 900 763 c 0,64,65
 902 790 902 790 902 813 c 0,66,67
 902 1010 902 1010 773 1010 c 0,68,69
 693 1010 693 1010 644 971 c 128,-1,70
 595 932 595 932 583 875 c 0,71,72
 579 858 579 858 579 843 c 0,73,74
 579 808 579 808 599 785 c 0,75,76
 620 760 620 760 677 739 c 2,77,-1
 801 693 l 2,78,79
 907 654 907 654 960 587 c 0,80,81
 1003 531 1003 531 1003 448 c 0,82,83
 1003 409 1003 409 993 363 c 0,84,85
 959 201 959 201 809 94 c 0,86,87
 649 -20 649 -20 442 -20 c 0,11,12
EndSplineSet
Validated: 1
EndChar

StartChar: uni1E6A
Encoding: 7786 7786 84
Width: 1454
Flags: W
HStem: 0 21G<614 847> 1370 140<468.11 858 1178 1549.35> 1590 365<976.131 1210.88>
VStem: 914 360<1652.57 1892.58>
DStem2: 567.208 0 887.208 0 0.207912 0.978148<62.183 1400.52>
LayerCount: 2
Fore
SplineSet
1094 1955 m 128,-1,1
 1169 1955 1169 1955 1221.5 1901.5 c 128,-1,2
 1274 1848 1274 1848 1274 1773 c 128,-1,3
 1274 1698 1274 1698 1221 1644 c 128,-1,4
 1168 1590 1168 1590 1094 1590 c 0,5,6
 1018 1590 1018 1590 966 1644 c 128,-1,7
 914 1698 914 1698 914 1772 c 0,8,9
 914 1848 914 1848 966 1901 c 0,10,0
 1019 1955 1019 1955 1094 1955 c 128,-1,1
647 0 m 2,11,12
 581 0 581 0 581 54 c 0,13,14
 581 65 581 65 584 79 c 2,15,-1
 858 1370 l 1,16,-1
 638 1370 l 2,17,18
 469 1370 469 1370 350 1224 c 0,19,20
 342 1214 342 1214 335 1214 c 0,21,22
 332 1214 332 1214 328 1216 c 2,23,-1
 283 1244 l 2,24,25
 277 1248 277 1248 277 1254 c 0,26,27
 277 1259 277 1259 280 1263 c 2,28,-1
 430 1447 l 2,29,30
 481 1510 481 1510 550 1510 c 2,31,-1
 1546 1510 l 2,32,33
 1615 1510 1615 1510 1640 1447 c 2,34,-1
 1710 1263 l 2,35,36
 1711 1262 1711 1262 1711 1260 c 0,37,38
 1711 1250 1711 1250 1699 1244 c 2,39,-1
 1642 1216 l 2,40,41
 1638 1214 1638 1214 1635 1214 c 0,42,43
 1628 1214 1628 1214 1624 1224 c 0,44,45
 1567 1370 1567 1370 1398 1370 c 2,46,-1
 1178 1370 l 1,47,-1
 904 79 l 2,48,49
 887 0 887 0 807 0 c 2,50,-1
 647 0 l 2,11,12
EndSplineSet
Validated: 1
EndChar

StartChar: uni1E6B
Encoding: 7787 7787 85
Width: 780
Flags: W
HStem: 0 80<566.053 688.284> 980 120<244.438 438 764 977.562> 1430 80<392.716 514.947> 1590 365<616.131 850.878>
VStem: 518 308<1183.44 1426.58> 554 360<1652.57 1892.58>
DStem2: 230.242 0 529.865 0 0.207912 0.978148<207.561 1001.78 1186.94 1398.45>
LayerCount: 2
Fore
SplineSet
734 1955 m 128,-1,1
 809 1955 809 1955 861.5 1901.5 c 128,-1,2
 914 1848 914 1848 914 1773 c 128,-1,3
 914 1698 914 1698 861 1644 c 128,-1,4
 808 1590 808 1590 734 1590 c 0,5,6
 658 1590 658 1590 606 1644 c 128,-1,7
 554 1698 554 1698 554 1772 c 0,8,9
 554 1848 554 1848 606 1901 c 0,10,0
 659 1955 659 1955 734 1955 c 128,-1,1
370 0 m 2,11,12
 255 0 255 0 255 95 c 0,13,14
 255 116 255 116 260 140 c 2,15,-1
 438 980 l 1,16,-1
 243 980 l 2,17,18
 230 980 230 980 230 988 c 0,19,20
 230 990 230 990 231 995 c 2,21,-1
 251 1085 l 2,22,23
 254 1100 254 1100 269 1100 c 2,24,-1
 464 1100 l 1,25,-1
 515 1340 l 2,26,27
 518 1354 518 1354 518 1369 c 0,28,29
 518 1430 518 1430 444 1430 c 2,30,-1
 399 1430 l 2,31,32
 386 1430 386 1430 386 1438 c 0,33,34
 386 1440 386 1440 387 1445 c 2,35,-1
 398 1495 l 2,36,37
 401 1510 401 1510 416 1510 c 2,38,-1
 711 1510 l 2,39,40
 826 1510 826 1510 826 1415 c 0,41,42
 826 1394 826 1394 821 1370 c 2,43,-1
 764 1100 l 1,44,-1
 979 1100 l 2,45,46
 992 1100 992 1100 992 1092 c 0,47,48
 992 1090 992 1090 991 1085 c 2,49,-1
 971 995 l 2,50,51
 968 980 968 980 953 980 c 2,52,-1
 738 980 l 1,53,-1
 566 170 l 2,54,55
 563 156 563 156 563 141 c 0,56,57
 563 80 563 80 637 80 c 2,58,-1
 682 80 l 2,59,60
 695 80 695 80 695 72 c 0,61,62
 695 70 695 70 694 65 c 2,63,-1
 683 15 l 2,64,65
 680 0 680 0 665 0 c 2,66,-1
 370 0 l 2,11,12
EndSplineSet
Validated: 1
EndChar

StartChar: Wgrave
Encoding: 7808 7808 86
Width: 2164
Flags: W
HStem: 0 21G<662.5 938.5 1229.5 1505.5> 1430 80<332.716 434.999 899.716 1002 1753.14 1889.28 2319 2456.28>
VStem: 1291 260<1834.72 1960.75>
DStem2: 753 1434 435 1390 0.130278 -0.991477<-43.3422 1278.56> 917 166 1026 80 0.484736 0.874661<0 224.71 930.2 1544.73> 1310 1434 1002 1390 0.130278 -0.991477<-41.594 458.809 687.652 876.971 1106.94 1277.57> 1474 167 1593 80 0.484736 0.874661<0 1549.37>
LayerCount: 2
Fore
SplineSet
1329 1961 m 2,0,1
 1500 1961 l 2,2,3
 1545 1961 1545 1961 1551 1920 c 2,4,-1
 1600 1616 l 2,5,6
 1601 1607 1601 1607 1601 1600 c 0,7,8
 1601 1570 1601 1570 1565 1570 c 2,9,-1
 1496 1570 l 2,10,11
 1457 1570 1457 1570 1439 1610 c 2,12,-1
 1297 1916 l 2,13,14
 1291 1928 1291 1928 1291 1937 c 0,15,16
 1292 1961 1292 1961 1329 1961 c 2,0,1
707 0 m 2,17,18
 618 0 618 0 607 81 c 2,19,-1
 435 1390 l 2,20,21
 430 1430 430 1430 384 1430 c 2,22,-1
 339 1430 l 2,23,24
 326 1430 326 1430 326 1438 c 0,25,26
 326 1440 326 1440 327 1445 c 2,27,-1
 338 1495 l 2,28,29
 341 1510 341 1510 356 1510 c 2,30,-1
 651 1510 l 2,31,32
 743 1510 743 1510 753 1434 c 2,33,-1
 917 166 l 1,34,-1
 1116 524 l 1,35,-1
 1002 1390 l 2,36,37
 997 1430 997 1430 951 1430 c 2,38,-1
 906 1430 l 2,39,40
 893 1430 893 1430 893 1438 c 0,41,42
 893 1440 893 1440 894 1445 c 2,43,-1
 905 1495 l 2,44,45
 908 1510 908 1510 923 1510 c 2,46,-1
 1208 1510 l 2,47,48
 1300 1510 1300 1510 1310 1434 c 2,49,-1
 1369 979 l 1,50,-1
 1622 1434 l 2,51,52
 1664 1510 1664 1510 1756 1510 c 2,53,-1
 1883 1510 l 2,54,55
 1896 1510 1896 1510 1896 1502 c 0,56,57
 1896 1500 1896 1500 1895 1495 c 2,58,-1
 1884 1445 l 2,59,60
 1881 1430 1881 1430 1866 1430 c 2,61,-1
 1821 1430 l 2,62,63
 1774 1430 1774 1430 1752 1390 c 2,64,-1
 1398 752 l 1,65,-1
 1474 167 l 1,66,-1
 2179 1434 l 2,67,68
 2221 1510 2221 1510 2313 1510 c 2,69,-1
 2450 1510 l 2,70,71
 2463 1510 2463 1510 2463 1502 c 0,72,73
 2463 1500 2463 1500 2462 1495 c 2,74,-1
 2451 1445 l 2,75,76
 2448 1430 2448 1430 2433 1430 c 2,77,-1
 2388 1430 l 2,78,79
 2341 1430 2341 1430 2319 1390 c 2,80,-1
 1593 80 l 2,81,82
 1549 0 1549 0 1462 0 c 2,83,-1
 1274 0 l 2,84,85
 1185 0 1185 0 1174 81 c 2,86,-1
 1146 296 l 1,87,-1
 1026 80 l 2,88,89
 982 0 982 0 895 0 c 2,90,-1
 707 0 l 2,17,18
EndSplineSet
Validated: 1
EndChar

StartChar: wgrave
Encoding: 7809 7809 87
Width: 1906
Flags: W
HStem: -20 169<404.5 653.009 1111.5 1470.74> 1020 80<245.716 367.947>
VStem: 227 302<197.595 391.004> 371 308<776.484 1016.58> 934 302<175.956 472.148> 998 260<1424.72 1550.75> 1743 258<533.467 896>
DStem2: 165.605 -20 465.605 -20 0.207912 0.978148<332.933 999.852>
LayerCount: 2
Fore
SplineSet
1036 1551 m 2,0,1
 1207 1551 l 2,2,3
 1252 1551 1252 1551 1258 1510 c 2,4,-1
 1307 1206 l 2,5,6
 1308 1197 1308 1197 1308 1190 c 0,7,8
 1308 1160 1308 1160 1272 1160 c 2,9,-1
 1203 1160 l 2,10,11
 1164 1160 1164 1160 1146 1200 c 2,12,-1
 1004 1506 l 2,13,14
 998 1518 998 1518 998 1527 c 0,15,16
 999 1551 999 1551 1036 1551 c 2,0,1
476 -20 m 0,17,18
 333 -20 333 -20 270 64 c 0,19,20
 227 121 227 121 227 214 c 0,21,22
 227 269 227 269 240 330 c 2,23,-1
 368 930 l 2,24,25
 371 944 371 944 371 959 c 0,26,27
 371 1020 371 1020 297 1020 c 2,28,-1
 252 1020 l 2,29,30
 239 1020 239 1020 239 1028 c 0,31,32
 239 1030 239 1030 240 1035 c 2,33,-1
 251 1085 l 2,34,35
 254 1100 254 1100 269 1100 c 2,36,-1
 564 1100 l 2,37,38
 679 1100 679 1100 679 1005 c 0,39,40
 679 984 679 984 674 960 c 2,41,-1
 540 330 l 2,42,43
 529 278 529 278 529 242 c 0,44,45
 529 216 529 216 535 197 c 0,46,47
 550 149 550 149 603 149 c 0,48,49
 830 149 830 149 1095 1021 c 0,50,51
 1119 1100 1119 1100 1192 1100 c 2,52,-1
 1332 1100 l 2,53,54
 1398 1100 1398 1100 1398 1046 c 0,55,56
 1398 1035 1398 1035 1395 1021 c 2,57,-1
 1247 330 l 2,58,59
 1236 279 1236 279 1236 242 c 0,60,61
 1236 216 1236 216 1242 197 c 0,62,63
 1257 149 1257 149 1310 149 c 0,64,65
 1468 149 1468 149 1580 234 c 0,66,67
 1676 308 1676 308 1713 423 c 0,68,69
 1743 516 1743 516 1743 652 c 0,70,71
 1743 850 1743 850 1638 1020 c 0,72,73
 1625 1041 1625 1041 1625 1055 c 0,74,75
 1625 1100 1625 1100 1681 1100 c 2,76,-1
 1899 1100 l 2,77,78
 1923 1100 1923 1100 1935 1090 c 0,79,80
 1948 1079 1948 1079 1956 1059 c 0,81,82
 2001 946 2001 946 2001 793 c 128,-1,83
 2001 640 2001 640 1940 491 c 0,84,85
 1856 283 1856 283 1683 141 c 0,86,87
 1488 -20 1488 -20 1183 -20 c 0,88,89
 1040 -20 1040 -20 977 64 c 0,90,91
 934 121 934 121 934 214 c 0,92,93
 934 271 934 271 947 330 c 2,94,-1
 990 526 l 1,95,96
 813 -20 813 -20 476 -20 c 0,17,18
EndSplineSet
Validated: 1
EndChar

StartChar: Wacute
Encoding: 7810 7810 88
Width: 2164
Flags: W
HStem: 0 21G<662.5 938.5 1229.5 1505.5> 1430 80<332.716 434.999 899.716 1002 1753.14 1889.28 2319 2456.28>
DStem2: 753 1434 435 1390 0.130278 -0.991477<-43.3422 1278.56> 917 166 1026 80 0.484736 0.874661<0 224.71 930.2 1544.73> 1310 1434 1002 1390 0.130278 -0.991477<-41.594 458.809 687.652 876.971 1106.94 1277.57> 1474 167 1593 80 0.484736 0.874661<0 1549.37>
LayerCount: 2
Fore
SplineSet
1860 1961 m 2,0,1
 1889 1961 1889 1961 1889 1944 c 0,2,3
 1889 1933 1889 1933 1874 1916 c 2,4,-1
 1602 1610 l 2,5,6
 1566 1570 1566 1570 1527 1570 c 2,7,-1
 1458 1570 l 2,8,9
 1432 1570 1432 1570 1432 1589 c 0,10,11
 1432 1597 1432 1597 1443 1616 c 2,12,-1
 1620 1920 l 2,13,14
 1644 1961 1644 1961 1689 1961 c 2,15,-1
 1860 1961 l 2,0,1
707 0 m 2,16,17
 618 0 618 0 607 81 c 2,18,-1
 435 1390 l 2,19,20
 430 1430 430 1430 384 1430 c 2,21,-1
 339 1430 l 2,22,23
 326 1430 326 1430 326 1438 c 0,24,25
 326 1440 326 1440 327 1445 c 2,26,-1
 338 1495 l 2,27,28
 341 1510 341 1510 356 1510 c 2,29,-1
 651 1510 l 2,30,31
 743 1510 743 1510 753 1434 c 2,32,-1
 917 166 l 1,33,-1
 1116 524 l 1,34,-1
 1002 1390 l 2,35,36
 997 1430 997 1430 951 1430 c 2,37,-1
 906 1430 l 2,38,39
 893 1430 893 1430 893 1438 c 0,40,41
 893 1440 893 1440 894 1445 c 2,42,-1
 905 1495 l 2,43,44
 908 1510 908 1510 923 1510 c 2,45,-1
 1208 1510 l 2,46,47
 1300 1510 1300 1510 1310 1434 c 2,48,-1
 1369 979 l 1,49,-1
 1622 1434 l 2,50,51
 1664 1510 1664 1510 1756 1510 c 2,52,-1
 1883 1510 l 2,53,54
 1896 1510 1896 1510 1896 1502 c 0,55,56
 1896 1500 1896 1500 1895 1495 c 2,57,-1
 1884 1445 l 2,58,59
 1881 1430 1881 1430 1866 1430 c 2,60,-1
 1821 1430 l 2,61,62
 1774 1430 1774 1430 1752 1390 c 2,63,-1
 1398 752 l 1,64,-1
 1474 167 l 1,65,-1
 2179 1434 l 2,66,67
 2221 1510 2221 1510 2313 1510 c 2,68,-1
 2450 1510 l 2,69,70
 2463 1510 2463 1510 2463 1502 c 0,71,72
 2463 1500 2463 1500 2462 1495 c 2,73,-1
 2451 1445 l 2,74,75
 2448 1430 2448 1430 2433 1430 c 2,76,-1
 2388 1430 l 2,77,78
 2341 1430 2341 1430 2319 1390 c 2,79,-1
 1593 80 l 2,80,81
 1549 0 1549 0 1462 0 c 2,82,-1
 1274 0 l 2,83,84
 1185 0 1185 0 1174 81 c 2,85,-1
 1146 296 l 1,86,-1
 1026 80 l 2,87,88
 982 0 982 0 895 0 c 2,89,-1
 707 0 l 2,16,17
EndSplineSet
Validated: 1
EndChar

StartChar: wacute
Encoding: 7811 7811 89
Width: 1906
Flags: W
HStem: -20 169<404.5 653.009 1111.5 1470.74> 1020 80<245.716 367.947>
VStem: 227 302<197.595 391.004> 371 308<776.484 1016.58> 934 302<175.956 472.148> 1743 258<533.467 896>
DStem2: 165.605 -20 465.605 -20 0.207912 0.978148<332.933 999.852>
LayerCount: 2
Fore
SplineSet
1562 1551 m 2,0,1
 1591 1551 1591 1551 1591 1534 c 0,2,3
 1591 1523 1591 1523 1576 1506 c 2,4,-1
 1304 1200 l 2,5,6
 1268 1160 1268 1160 1229 1160 c 2,7,-1
 1160 1160 l 2,8,9
 1134 1160 1134 1160 1134 1179 c 0,10,11
 1134 1187 1134 1187 1145 1206 c 2,12,-1
 1322 1510 l 2,13,14
 1346 1551 1346 1551 1391 1551 c 2,15,-1
 1562 1551 l 2,0,1
476 -20 m 0,16,17
 333 -20 333 -20 270 64 c 0,18,19
 227 121 227 121 227 214 c 0,20,21
 227 269 227 269 240 330 c 2,22,-1
 368 930 l 2,23,24
 371 944 371 944 371 959 c 0,25,26
 371 1020 371 1020 297 1020 c 2,27,-1
 252 1020 l 2,28,29
 239 1020 239 1020 239 1028 c 0,30,31
 239 1030 239 1030 240 1035 c 2,32,-1
 251 1085 l 2,33,34
 254 1100 254 1100 269 1100 c 2,35,-1
 564 1100 l 2,36,37
 679 1100 679 1100 679 1005 c 0,38,39
 679 984 679 984 674 960 c 2,40,-1
 540 330 l 2,41,42
 529 278 529 278 529 242 c 0,43,44
 529 216 529 216 535 197 c 0,45,46
 550 149 550 149 603 149 c 0,47,48
 830 149 830 149 1095 1021 c 0,49,50
 1119 1100 1119 1100 1192 1100 c 2,51,-1
 1332 1100 l 2,52,53
 1398 1100 1398 1100 1398 1046 c 0,54,55
 1398 1035 1398 1035 1395 1021 c 2,56,-1
 1247 330 l 2,57,58
 1236 279 1236 279 1236 242 c 0,59,60
 1236 216 1236 216 1242 197 c 0,61,62
 1257 149 1257 149 1310 149 c 0,63,64
 1468 149 1468 149 1580 234 c 0,65,66
 1676 308 1676 308 1713 423 c 0,67,68
 1743 516 1743 516 1743 652 c 0,69,70
 1743 850 1743 850 1638 1020 c 0,71,72
 1625 1041 1625 1041 1625 1055 c 0,73,74
 1625 1100 1625 1100 1681 1100 c 2,75,-1
 1899 1100 l 2,76,77
 1923 1100 1923 1100 1935 1090 c 0,78,79
 1948 1079 1948 1079 1956 1059 c 0,80,81
 2001 946 2001 946 2001 793 c 128,-1,82
 2001 640 2001 640 1940 491 c 0,83,84
 1856 283 1856 283 1683 141 c 0,85,86
 1488 -20 1488 -20 1183 -20 c 0,87,88
 1040 -20 1040 -20 977 64 c 0,89,90
 934 121 934 121 934 214 c 0,91,92
 934 271 934 271 947 330 c 2,93,-1
 990 526 l 1,94,95
 813 -20 813 -20 476 -20 c 0,16,17
EndSplineSet
Validated: 1
EndChar

StartChar: Wdieresis
Encoding: 7812 7812 90
Width: 2164
Flags: W
HStem: 0 21G<662.5 938.5 1229.5 1505.5> 1430 80<332.716 434.999 899.716 1002 1753.14 1889.28 2319 2456.28> 1620 297<1283.83 1487.65 1621.83 1826.17>
VStem: 1240 292<1665.38 1871.62> 1578 292<1665.38 1871.62>
DStem2: 753 1434 435 1390 0.130278 -0.991477<-43.3422 1278.56> 917 166 1026 80 0.484736 0.874661<0 224.71 930.2 1544.73> 1310 1434 1002 1390 0.130278 -0.991477<-41.594 458.809 687.652 876.971 1106.94 1277.57> 1474 167 1593 80 0.484736 0.874661<0 1549.37>
LayerCount: 2
Fore
SplineSet
1724.5 1917 m 128,-1,1
 1785 1917 1785 1917 1827.5 1873 c 128,-1,2
 1870 1829 1870 1829 1870 1768.5 c 128,-1,3
 1870 1708 1870 1708 1827.5 1664 c 128,-1,4
 1785 1620 1785 1620 1724 1620 c 128,-1,5
 1663 1620 1663 1620 1620.5 1664 c 128,-1,6
 1578 1708 1578 1708 1578 1768 c 0,7,8
 1578 1829 1578 1829 1621 1872 c 0,9,0
 1664 1917 1664 1917 1724.5 1917 c 128,-1,1
1385.5 1917 m 128,-1,11
 1446 1917 1446 1917 1489 1873 c 128,-1,12
 1532 1829 1532 1829 1532 1768.5 c 128,-1,13
 1532 1708 1532 1708 1489 1664 c 128,-1,14
 1446 1620 1446 1620 1386 1620 c 0,15,16
 1325 1620 1325 1620 1282.5 1664 c 128,-1,17
 1240 1708 1240 1708 1240 1768 c 0,18,19
 1240 1829 1240 1829 1282 1872 c 0,20,10
 1325 1917 1325 1917 1385.5 1917 c 128,-1,11
707 0 m 2,21,22
 618 0 618 0 607 81 c 2,23,-1
 435 1390 l 2,24,25
 430 1430 430 1430 384 1430 c 2,26,-1
 339 1430 l 2,27,28
 326 1430 326 1430 326 1438 c 0,29,30
 326 1440 326 1440 327 1445 c 2,31,-1
 338 1495 l 2,32,33
 341 1510 341 1510 356 1510 c 2,34,-1
 651 1510 l 2,35,36
 743 1510 743 1510 753 1434 c 2,37,-1
 917 166 l 1,38,-1
 1116 524 l 1,39,-1
 1002 1390 l 2,40,41
 997 1430 997 1430 951 1430 c 2,42,-1
 906 1430 l 2,43,44
 893 1430 893 1430 893 1438 c 0,45,46
 893 1440 893 1440 894 1445 c 2,47,-1
 905 1495 l 2,48,49
 908 1510 908 1510 923 1510 c 2,50,-1
 1208 1510 l 2,51,52
 1300 1510 1300 1510 1310 1434 c 2,53,-1
 1369 979 l 1,54,-1
 1622 1434 l 2,55,56
 1664 1510 1664 1510 1756 1510 c 2,57,-1
 1883 1510 l 2,58,59
 1896 1510 1896 1510 1896 1502 c 0,60,61
 1896 1500 1896 1500 1895 1495 c 2,62,-1
 1884 1445 l 2,63,64
 1881 1430 1881 1430 1866 1430 c 2,65,-1
 1821 1430 l 2,66,67
 1774 1430 1774 1430 1752 1390 c 2,68,-1
 1398 752 l 1,69,-1
 1474 167 l 1,70,-1
 2179 1434 l 2,71,72
 2221 1510 2221 1510 2313 1510 c 2,73,-1
 2450 1510 l 2,74,75
 2463 1510 2463 1510 2463 1502 c 0,76,77
 2463 1500 2463 1500 2462 1495 c 2,78,-1
 2451 1445 l 2,79,80
 2448 1430 2448 1430 2433 1430 c 2,81,-1
 2388 1430 l 2,82,83
 2341 1430 2341 1430 2319 1390 c 2,84,-1
 1593 80 l 2,85,86
 1549 0 1549 0 1462 0 c 2,87,-1
 1274 0 l 2,88,89
 1185 0 1185 0 1174 81 c 2,90,-1
 1146 296 l 1,91,-1
 1026 80 l 2,92,93
 982 0 982 0 895 0 c 2,94,-1
 707 0 l 2,21,22
EndSplineSet
Validated: 1
EndChar

StartChar: wdieresis
Encoding: 7813 7813 91
Width: 1906
Flags: W
HStem: -20 169<404.5 653.009 1111.5 1470.74> 1020 80<245.716 367.947> 1210 297<1045.83 1249.65 1383.83 1588.17>
VStem: 227 302<197.595 391.004> 371 308<776.484 1016.58> 934 302<175.956 472.148> 1002 292<1255.38 1461.62> 1340 292<1255.38 1461.62> 1743 258<533.467 896>
DStem2: 165.605 -20 465.605 -20 0.207912 0.978148<332.933 999.852>
LayerCount: 2
Fore
SplineSet
1486.5 1507 m 128,-1,1
 1547 1507 1547 1507 1589.5 1463 c 128,-1,2
 1632 1419 1632 1419 1632 1358.5 c 128,-1,3
 1632 1298 1632 1298 1589.5 1254 c 128,-1,4
 1547 1210 1547 1210 1486 1210 c 128,-1,5
 1425 1210 1425 1210 1382.5 1254 c 128,-1,6
 1340 1298 1340 1298 1340 1358 c 0,7,8
 1340 1419 1340 1419 1383 1462 c 0,9,0
 1426 1507 1426 1507 1486.5 1507 c 128,-1,1
1147.5 1507 m 128,-1,11
 1208 1507 1208 1507 1251 1463 c 128,-1,12
 1294 1419 1294 1419 1294 1358.5 c 128,-1,13
 1294 1298 1294 1298 1251 1254 c 128,-1,14
 1208 1210 1208 1210 1148 1210 c 0,15,16
 1087 1210 1087 1210 1044.5 1254 c 128,-1,17
 1002 1298 1002 1298 1002 1358 c 0,18,19
 1002 1419 1002 1419 1044 1462 c 0,20,10
 1087 1507 1087 1507 1147.5 1507 c 128,-1,11
476 -20 m 0,21,22
 333 -20 333 -20 270 64 c 0,23,24
 227 121 227 121 227 214 c 0,25,26
 227 269 227 269 240 330 c 2,27,-1
 368 930 l 2,28,29
 371 944 371 944 371 959 c 0,30,31
 371 1020 371 1020 297 1020 c 2,32,-1
 252 1020 l 2,33,34
 239 1020 239 1020 239 1028 c 0,35,36
 239 1030 239 1030 240 1035 c 2,37,-1
 251 1085 l 2,38,39
 254 1100 254 1100 269 1100 c 2,40,-1
 564 1100 l 2,41,42
 679 1100 679 1100 679 1005 c 0,43,44
 679 984 679 984 674 960 c 2,45,-1
 540 330 l 2,46,47
 529 278 529 278 529 242 c 0,48,49
 529 216 529 216 535 197 c 0,50,51
 550 149 550 149 603 149 c 0,52,53
 830 149 830 149 1095 1021 c 0,54,55
 1119 1100 1119 1100 1192 1100 c 2,56,-1
 1332 1100 l 2,57,58
 1398 1100 1398 1100 1398 1046 c 0,59,60
 1398 1035 1398 1035 1395 1021 c 2,61,-1
 1247 330 l 2,62,63
 1236 279 1236 279 1236 242 c 0,64,65
 1236 216 1236 216 1242 197 c 0,66,67
 1257 149 1257 149 1310 149 c 0,68,69
 1468 149 1468 149 1580 234 c 0,70,71
 1676 308 1676 308 1713 423 c 0,72,73
 1743 516 1743 516 1743 652 c 0,74,75
 1743 850 1743 850 1638 1020 c 0,76,77
 1625 1041 1625 1041 1625 1055 c 0,78,79
 1625 1100 1625 1100 1681 1100 c 2,80,-1
 1899 1100 l 2,81,82
 1923 1100 1923 1100 1935 1090 c 0,83,84
 1948 1079 1948 1079 1956 1059 c 0,85,86
 2001 946 2001 946 2001 793 c 128,-1,87
 2001 640 2001 640 1940 491 c 0,88,89
 1856 283 1856 283 1683 141 c 0,90,91
 1488 -20 1488 -20 1183 -20 c 0,92,93
 1040 -20 1040 -20 977 64 c 0,94,95
 934 121 934 121 934 214 c 0,96,97
 934 271 934 271 947 330 c 2,98,-1
 990 526 l 1,99,100
 813 -20 813 -20 476 -20 c 0,21,22
EndSplineSet
Validated: 1
EndChar

StartChar: Ygrave
Encoding: 7922 7922 92
Width: 1428
Flags: W
HStem: 0 21G<603 836> 1430 80<332.716 434.997 1585.25 1720.28>
VStem: 941 260<1834.72 1960.75>
DStem2: 556.208 0 876.208 0 0.207912 0.978148<62.183 654.247> 953 783 692 640 0.324163 -0.946001<-777.021 0> 953 783 1012 640 0.605756 0.795651<0 940.339>
LayerCount: 2
Fore
SplineSet
979 1961 m 2,0,1
 1150 1961 l 2,2,3
 1195 1961 1195 1961 1201 1920 c 2,4,-1
 1250 1616 l 2,5,6
 1251 1607 1251 1607 1251 1600 c 0,7,8
 1251 1570 1251 1570 1215 1570 c 2,9,-1
 1146 1570 l 2,10,11
 1107 1570 1107 1570 1089 1610 c 2,12,-1
 947 1916 l 2,13,14
 941 1928 941 1928 941 1937 c 0,15,16
 942 1961 942 1961 979 1961 c 2,0,1
636 0 m 2,17,18
 570 0 570 0 570 54 c 0,19,20
 570 65 570 65 573 79 c 2,21,-1
 692 640 l 1,22,-1
 435 1390 l 2,23,24
 421 1430 421 1430 384 1430 c 2,25,-1
 339 1430 l 2,26,27
 326 1430 326 1430 326 1439 c 0,28,29
 326 1440 326 1440 327 1445 c 2,30,-1
 338 1495 l 2,31,32
 341 1510 341 1510 356 1510 c 2,33,-1
 614 1510 l 2,34,35
 705 1510 705 1510 731 1434 c 2,36,-1
 953 783 l 1,37,-1
 1465 1434 l 2,38,39
 1525 1510 1525 1510 1599 1510 c 2,40,-1
 1714 1510 l 2,41,42
 1727 1510 1727 1510 1727 1501 c 0,43,44
 1727 1500 1727 1500 1726 1495 c 2,45,-1
 1715 1445 l 2,46,47
 1712 1430 1712 1430 1697 1430 c 2,48,-1
 1652 1430 l 2,49,50
 1613 1430 1613 1430 1583 1390 c 2,51,-1
 1012 640 l 1,52,-1
 893 79 l 2,53,54
 876 0 876 0 796 0 c 2,55,-1
 636 0 l 2,17,18
EndSplineSet
Validated: 1
EndChar

StartChar: ygrave
Encoding: 7923 7923 93
Width: 1348
Flags: W
HStem: -430 111<376.817 655.87> -20 169<404.5 653.009> 1020 80<245.716 367.947>
VStem: 227 302<154.316 391.004> 241 83<-129.19 -48> 371 308<776.484 1016.58> 698 260<1424.72 1550.75>
DStem2: 78.457 -430 378.457 -430 0.207912 0.978148<752.093 1419.01> 787.021 -430 1086.84 -430 0.207912 0.978148<390.981 977.311>
LayerCount: 2
Fore
SplineSet
736 1551 m 2,0,1
 907 1551 l 2,2,3
 952 1551 952 1551 958 1510 c 2,4,-1
 1007 1206 l 2,5,6
 1008 1197 1008 1197 1008 1190 c 0,7,8
 1008 1160 1008 1160 972 1160 c 2,9,-1
 903 1160 l 2,10,11
 864 1160 864 1160 846 1200 c 2,12,-1
 704 1506 l 2,13,14
 698 1518 698 1518 698 1527 c 0,15,16
 699 1551 699 1551 736 1551 c 2,0,1
476 -20 m 0,17,18
 333 -20 333 -20 270 64 c 0,19,20
 227 121 227 121 227 214 c 0,21,22
 227 269 227 269 240 330 c 2,23,-1
 368 930 l 2,24,25
 371 944 371 944 371 959 c 0,26,27
 371 1020 371 1020 297 1020 c 2,28,-1
 252 1020 l 2,29,30
 239 1020 239 1020 239 1028 c 0,31,32
 239 1030 239 1030 240 1035 c 2,33,-1
 251 1085 l 2,34,35
 254 1100 254 1100 269 1100 c 2,36,-1
 564 1100 l 2,37,38
 679 1100 679 1100 679 1005 c 0,39,40
 679 984 679 984 674 960 c 2,41,-1
 540 330 l 2,42,43
 529 278 529 278 529 242 c 0,44,45
 529 216 529 216 535 197 c 0,46,47
 549 149 549 149 603 149 c 0,48,49
 830 149 830 149 1095 1021 c 0,50,51
 1119 1100 1119 1100 1192 1100 c 2,52,-1
 1332 1100 l 2,53,54
 1398 1100 1398 1100 1398 1046 c 0,55,56
 1398 1035 1398 1035 1395 1021 c 2,57,-1
 1208 140 l 2,58,59
 1153 -118 1153 -118 946 -287 c 0,60,61
 770 -430 770 -430 534 -430 c 0,62,63
 327 -430 327 -430 213 -354 c 0,64,65
 192 -340 192 -340 191 -307 c 0,66,67
 191 -294 191 -294 194 -280 c 2,68,-1
 241 -63 l 2,69,70
 244 -48 244 -48 259 -48 c 2,71,-1
 312 -48 l 2,72,73
 324 -48 324 -48 324 -61 c 0,74,75
 324 -62 324 -62 324 -63 c 0,76,77
 323 -81 323 -81 323 -98 c 0,78,79
 323 -319 323 -319 496 -319 c 0,80,81
 636 -319 636 -319 749 -203 c 0,82,83
 859 -90 859 -90 895 78 c 2,84,-1
 990 526 l 1,85,86
 813 -20 813 -20 476 -20 c 0,17,18
EndSplineSet
Validated: 1
EndChar

StartChar: uni1E40
Encoding: 7744 7744 94
Width: 1923
Flags: W
HStem: 0 80<28.7158 165.997 1809 1911.28> 1430 80<487.716 589.895 1921.72 2058.28> 1590 365<1226.13 1460.88>
VStem: 1164 360<1652.57 1892.58> 1493 316<80.125 250.452>
DStem2: 590 1390 634 1043 0.316676 0.948534<-1395.23 -315.207> 911 1434 634 1043 0.0879935 -0.996121<365.109 1170.54> 1014 268 1075 80 0.473018 0.881053<0 919.382>
LayerCount: 2
Fore
SplineSet
1344 1955 m 128,-1,1
 1419 1955 1419 1955 1471.5 1901.5 c 128,-1,2
 1524 1848 1524 1848 1524 1773 c 128,-1,3
 1524 1698 1524 1698 1471 1644 c 128,-1,4
 1418 1590 1418 1590 1344 1590 c 0,5,6
 1268 1590 1268 1590 1216 1644 c 128,-1,7
 1164 1698 1164 1698 1164 1772 c 0,8,9
 1164 1848 1164 1848 1216 1901 c 0,10,0
 1269 1955 1269 1955 1344 1955 c 128,-1,1
168 0 m 2,11,-1
 35 0 l 2,12,13
 22 0 22 0 22 9 c 0,14,15
 22 10 22 10 23 15 c 2,16,-1
 34 65 l 2,17,18
 37 80 37 80 52 80 c 2,19,-1
 97 80 l 2,20,21
 153 80 153 80 166 120 c 2,22,-1
 590 1390 l 1,23,24
 587 1430 587 1430 539 1430 c 2,25,-1
 494 1430 l 2,26,27
 481 1430 481 1430 481 1438 c 0,28,29
 481 1440 481 1440 482 1445 c 2,30,-1
 493 1495 l 2,31,32
 496 1510 496 1510 511 1510 c 2,33,-1
 809 1510 l 2,34,35
 904 1510 904 1510 911 1434 c 2,36,-1
 1014 268 l 1,37,-1
 1640 1434 l 2,38,39
 1681 1510 1681 1510 1774 1510 c 2,40,-1
 2052 1510 l 2,41,42
 2065 1510 2065 1510 2065 1501 c 0,43,44
 2065 1500 2065 1500 2064 1495 c 2,45,-1
 2053 1445 l 2,46,47
 2050 1430 2050 1430 2035 1430 c 2,48,-1
 1990 1430 l 2,49,50
 1944 1430 1944 1430 1921 1390 c 1,51,-1
 1809 120 l 2,52,53
 1809 116 1809 116 1809 112 c 0,54,55
 1809 80 1809 80 1860 80 c 2,56,-1
 1905 80 l 2,57,58
 1918 80 1918 80 1918 72 c 0,59,60
 1918 70 1918 70 1917 65 c 2,61,-1
 1906 15 l 2,62,63
 1903 0 1903 0 1888 0 c 2,64,-1
 1595 0 l 2,65,66
 1493 0 1493 0 1493 68 c 0,67,68
 1493 72 1493 72 1493 76 c 2,69,-1
 1570 1013 l 1,70,-1
 1075 80 l 2,71,72
 1033 0 1033 0 944 0 c 2,73,-1
 816 0 l 2,74,75
 723 0 723 0 716 81 c 2,76,-1
 634 1043 l 1,77,-1
 302 76 l 2,78,79
 276 0 276 0 168 0 c 2,11,-1
EndSplineSet
Validated: 1
EndChar

StartChar: p
Encoding: 112 112 95
Width: 1272
Flags: W
HStem: -410 21G<130 343> -20 111<587.706 801.301> 1009 111<766.358 972.442> 1020 80<245.716 367.947>
VStem: 1041 304<469.935 894.568>
DStem2: 83.208 -410 383.208 -410 0.207912 0.978148<58.0247 563.245 682.053 1398.46>
LayerCount: 2
Fore
SplineSet
685 -20 m 0,0,1
 544 -20 544 -20 487 80 c 1,2,-1
 400 -331 l 2,3,4
 383 -410 383 -410 303 -410 c 2,5,-1
 163 -410 l 2,6,7
 97 -410 97 -410 97 -356 c 0,8,9
 97 -345 97 -345 100 -331 c 2,10,-1
 368 930 l 2,11,12
 371 944 371 944 371 959 c 0,13,14
 371 1020 371 1020 297 1020 c 2,15,-1
 252 1020 l 2,16,17
 239 1020 239 1020 239 1029 c 0,18,19
 239 1030 239 1030 240 1035 c 2,20,-1
 251 1085 l 2,21,22
 254 1100 254 1100 269 1100 c 2,23,-1
 564 1100 l 2,24,25
 674 1100 674 1100 679 1013 c 1,26,27
 778 1120 778 1120 927 1120 c 0,28,29
 1133 1120 1133 1120 1249 977 c 0,30,31
 1345 857 1345 857 1345 692 c 0,32,33
 1345 625 1345 625 1329 550 c 0,34,35
 1272 283 1272 283 1067 124 c 0,36,37
 882 -20 882 -20 685 -20 c 0,0,1
873 1009 m 0,38,39
 795 1009 795 1009 704 905 c 0,40,41
 668 865 668 865 639 795 c 1,42,-1
 535 305 l 1,43,44
 535 230 535 230 555 187 c 0,45,46
 599 91 599 91 679 91 c 0,47,48
 774 91 774 91 858 187 c 0,49,50
 965 309 965 309 1016 550 c 0,51,52
 1041 668 1041 668 1041 755 c 0,53,54
 1041 847 1041 847 1013 905 c 0,55,56
 963 1009 963 1009 873 1009 c 0,38,39
EndSplineSet
Validated: 1
EndChar

StartChar: b
Encoding: 98 98 96
Width: 1272
Flags: W
HStem: -20 111<587.706 801.092> 0 21G<217 430> 1009 111<765.623 972.442> 1430 80<332.716 454.947>
VStem: 458 308<1183.75 1426.58> 1041 304<469.935 894.568>
DStem2: 165.957 -20 465.744 -20 0.207912 0.978148<78.5327 164.563 283.371 1024.09 1127.56 1418.91>
LayerCount: 2
Fore
SplineSet
250 0 m 2,0,1
 184 0 184 0 184 54 c 0,2,3
 184 65 184 65 187 79 c 2,4,-1
 455 1340 l 2,5,6
 458 1354 458 1354 458 1369 c 0,7,8
 458 1430 458 1430 384 1430 c 2,9,-1
 339 1430 l 2,10,11
 326 1430 326 1430 326 1439 c 0,12,13
 326 1440 326 1440 327 1445 c 2,14,-1
 338 1495 l 2,15,16
 341 1510 341 1510 356 1510 c 2,17,-1
 651 1510 l 2,18,19
 766 1510 766 1510 766 1415 c 0,20,21
 766 1394 766 1394 761 1370 c 2,22,-1
 687 1022 l 1,23,24
 784 1120 784 1120 927 1120 c 0,25,26
 1133 1120 1133 1120 1249 977 c 0,27,28
 1345 857 1345 857 1345 692 c 0,29,30
 1345 625 1345 625 1329 550 c 0,31,32
 1272 283 1272 283 1067 124 c 0,33,34
 881 -20 881 -20 685 -20 c 0,35,36
 544 -20 544 -20 487 80 c 1,37,38
 470 0 470 0 390 0 c 2,39,-1
 250 0 l 2,0,1
873 1009 m 0,40,41
 795 1009 795 1009 704 905 c 0,42,43
 668 865 668 865 639 795 c 1,44,-1
 535 305 l 1,45,46
 535 230 535 230 555 187 c 0,47,48
 599 91 599 91 679 91 c 0,49,50
 774 91 774 91 858 187 c 0,51,52
 965 309 965 309 1016 550 c 0,53,54
 1041 668 1041 668 1041 755 c 0,55,56
 1041 847 1041 847 1013 905 c 0,57,58
 963 1009 963 1009 873 1009 c 0,40,41
EndSplineSet
Validated: 1
EndChar

StartChar: q
Encoding: 113 113 97
Width: 1272
Flags: W
HStem: -410 80<1051.05 1173.28> -20 111<533.058 739.877> 1009 111<704.381 918.24> 1080 20G<1076 1289>
VStem: 161 304<205.432 630.065> 739 309<-326.577 -96.3203>
DStem2: 715.242 -410 1014.87 -410 0.207912 0.978148<207.561 498.909 605.865 1343.1 1461.91 1547.94>
LayerCount: 2
Fore
SplineSet
579 -20 m 0,0,1
 373 -20 373 -20 257 123 c 0,2,3
 161 243 161 243 161 408 c 0,4,5
 161 475 161 475 177 550 c 0,6,7
 234 817 234 817 438 976 c 0,8,9
 624 1120 624 1120 821 1120 c 0,10,11
 962 1120 962 1120 1019 1020 c 1,12,13
 1036 1100 1036 1100 1116 1100 c 2,14,-1
 1256 1100 l 2,15,16
 1322 1100 1322 1100 1322 1046 c 0,17,18
 1322 1035 1322 1035 1319 1021 c 2,19,-1
 1051 -240 l 2,20,21
 1048 -254 1048 -254 1048 -269 c 0,22,23
 1048 -330 1048 -330 1122 -330 c 2,24,-1
 1167 -330 l 2,25,26
 1180 -330 1180 -330 1180 -339 c 0,27,28
 1180 -340 1180 -340 1179 -345 c 2,29,-1
 1168 -395 l 2,30,31
 1165 -410 1165 -410 1150 -410 c 2,32,-1
 855 -410 l 2,33,34
 739 -410 739 -410 739 -315 c 0,35,36
 739 -298 739 -298 745 -270 c 2,37,-1
 819 78 l 1,38,39
 722 -20 722 -20 579 -20 c 0,0,1
632 91 m 0,40,41
 710 91 710 91 801 195 c 0,42,43
 837 235 837 235 867 305 c 1,44,-1
 971 795 l 1,45,46
 971 870 971 870 951 913 c 0,47,48
 907 1009 907 1009 826 1009 c 0,49,50
 731 1009 731 1009 648 913 c 0,51,52
 541 791 541 791 490 550 c 0,53,54
 465 432 465 432 465 345 c 0,55,56
 465 253 465 253 492 195 c 0,57,58
 542 91 542 91 632 91 c 0,40,41
EndSplineSet
Validated: 1
EndChar

StartChar: g
Encoding: 103 103 98
Width: 1262
Flags: W
HStem: -430 111<302.28 579.87> -20 111<533.058 739.877> 1009 111<704.381 918.24> 1080 20G<1076 1289>
VStem: 161 304<205.432 630.065> 165 83<-129.19 -48>
DStem2: 711.021 -430 1010.84 -430 0.207912 0.978148<391.447 519.349 626.305 1363.54 1482.35 1568.38>
LayerCount: 2
Fore
SplineSet
579 -20 m 0,0,1
 373 -20 373 -20 257 123 c 0,2,3
 161 243 161 243 161 408 c 0,4,5
 161 475 161 475 177 550 c 0,6,7
 234 817 234 817 438 976 c 0,8,9
 624 1120 624 1120 821 1120 c 0,10,11
 962 1120 962 1120 1019 1020 c 1,12,13
 1036 1100 1036 1100 1116 1100 c 2,14,-1
 1256 1100 l 2,15,16
 1322 1100 1322 1100 1322 1046 c 0,17,18
 1322 1035 1322 1035 1319 1021 c 2,19,-1
 1132 140 l 2,20,21
 1077 -118 1077 -118 870 -287 c 0,22,23
 694 -430 694 -430 458 -430 c 0,24,25
 257 -430 257 -430 137 -354 c 0,26,27
 116 -340 116 -340 115 -307 c 0,28,29
 115 -295 115 -295 118 -280 c 2,30,-1
 165 -63 l 2,31,32
 168 -48 168 -48 183 -48 c 2,33,-1
 236 -48 l 2,34,35
 248 -48 248 -48 248 -61 c 0,36,37
 248 -62 248 -62 248 -63 c 0,38,39
 247 -81 247 -81 247 -98 c 0,40,41
 247 -319 247 -319 420 -319 c 0,42,43
 560 -319 560 -319 673 -203 c 0,44,45
 783 -89 783 -89 819 78 c 1,46,47
 722 -20 722 -20 579 -20 c 0,0,1
632 91 m 0,48,49
 710 91 710 91 801 195 c 0,50,51
 837 235 837 235 867 305 c 1,52,-1
 971 795 l 1,53,54
 971 870 971 870 951 913 c 0,55,56
 907 1009 907 1009 826 1009 c 0,57,58
 731 1009 731 1009 648 913 c 0,59,60
 541 791 541 791 490 550 c 0,61,62
 465 432 465 432 465 345 c 0,63,64
 465 253 465 253 492 195 c 0,65,66
 542 91 542 91 632 91 c 0,48,49
EndSplineSet
Validated: 1
EndChar

StartChar: f
Encoding: 102 102 99
Width: 995
Flags: W
HStem: -410 50<-133.95 -24.6484> 710 120<186.766 321 646 920.234> 1420 110<855.253 1093.56>
VStem: 1139 131<1177.88 1374.62> 1139 83<1146 1228.32>
DStem2: 82.9367 -410 382.977 -410 0.207912 0.978148<255.345 1145.02 1329.97 1779.47>
LayerCount: 2
Fore
SplineSet
-124 -410 m 0,0,1
 -137 -410 -137 -410 -137 -401 c 0,2,3
 -137 -400 -137 -400 -136 -395 c 2,4,-1
 -132 -375 l 2,5,6
 -129 -360 -129 -360 -113 -360 c 16,7,8
 -28 -360 -28 -360 45 -286 c 0,9,10
 127 -203 127 -203 168 -10 c 2,11,-1
 321 710 l 1,12,-1
 186 710 l 2,13,14
 173 710 173 710 173 718 c 0,15,16
 173 720 173 720 174 725 c 2,17,-1
 193 815 l 2,18,19
 196 830 196 830 211 830 c 2,20,-1
 346 830 l 1,21,-1
 410 1130 l 2,22,23
 449 1312 449 1312 604 1431 c 0,24,25
 733 1530 733 1530 942 1530 c 0,26,27
 1138 1530 1138 1530 1255 1429 c 0,28,29
 1270 1416 1270 1416 1270 1394 c 0,30,31
 1270 1386 1270 1386 1268 1377 c 2,32,-1
 1222 1161 l 2,33,34
 1219 1146 1219 1146 1208 1146 c 2,35,-1
 1151 1146 l 2,36,37
 1139 1146 1139 1146 1139 1159 c 0,38,39
 1139 1160 1139 1160 1139 1161 c 0,40,41
 1140 1181 1140 1181 1140 1199 c 0,42,43
 1140 1420 1140 1420 994 1420 c 0,44,45
 894 1420 894 1420 820 1346 c 0,46,47
 738 1264 738 1264 697 1070 c 2,48,-1
 646 830 l 1,49,-1
 921 830 l 2,50,51
 934 830 934 830 934 821 c 0,52,53
 934 820 934 820 933 815 c 2,54,-1
 914 725 l 2,55,56
 911 710 911 710 896 710 c 2,57,-1
 621 710 l 1,58,-1
 468 -10 l 2,59,60
 428 -200 428 -200 284 -311 c 0,61,62
 155 -410 155 -410 -124 -410 c 0,0,1
EndSplineSet
Validated: 1
EndChar

StartChar: a
Encoding: 97 97 100
Width: 1272
Flags: W
HStem: -20 111<533.058 739.877> 0 80<1138.05 1260.28> 1009 111<704.381 918.24> 1080 20G<1076 1289>
VStem: 161 304<205.432 630.065>
DStem2: 797.766 -20 1097.61 -20 0.207912 0.978148<228.055 944.463 1063.27 1149.3>
LayerCount: 2
Fore
SplineSet
942 0 m 2,0,1
 844 0 844 0 819 78 c 1,2,3
 722 -20 722 -20 579 -20 c 0,4,5
 373 -20 373 -20 257 123 c 0,6,7
 161 243 161 243 161 408 c 0,8,9
 161 475 161 475 177 550 c 0,10,11
 234 817 234 817 438 976 c 0,12,13
 624 1120 624 1120 821 1120 c 0,14,15
 962 1120 962 1120 1019 1020 c 1,16,17
 1036 1100 1036 1100 1116 1100 c 2,18,-1
 1256 1100 l 2,19,20
 1322 1100 1322 1100 1322 1046 c 0,21,22
 1322 1035 1322 1035 1319 1021 c 2,23,-1
 1138 170 l 2,24,25
 1135 156 1135 156 1135 141 c 0,26,27
 1135 80 1135 80 1209 80 c 2,28,-1
 1254 80 l 2,29,30
 1267 80 1267 80 1267 71 c 0,31,32
 1267 70 1267 70 1266 65 c 2,33,-1
 1255 15 l 2,34,35
 1252 0 1252 0 1237 0 c 2,36,-1
 942 0 l 2,0,1
632 91 m 0,37,38
 710 91 710 91 801 195 c 0,39,40
 837 235 837 235 867 305 c 1,41,-1
 971 795 l 1,42,43
 971 870 971 870 951 913 c 0,44,45
 907 1009 907 1009 826 1009 c 0,46,47
 731 1009 731 1009 648 913 c 0,48,49
 541 791 541 791 490 550 c 0,50,51
 465 432 465 432 465 345 c 0,52,53
 465 253 465 253 492 195 c 0,54,55
 542 91 542 91 632 91 c 0,37,38
EndSplineSet
Validated: 1
EndChar

StartChar: s
Encoding: 115 115 101
Width: 996
Flags: W
HStem: -20 111<277.922 584.545> 1010 110<639.164 864.676>
VStem: 75 130<166.366 374.656> 124 83<327.371 410> 276 303<699 911.36> 705 298<264.048 448> 900 131<779.875 977.487> 900 83<748 830.317>
LayerCount: 2
Fore
SplineSet
442 -20 m 0,0,1
 232 -20 232 -20 96 104 c 0,2,3
 75 123 75 123 75 154 c 0,4,5
 75 165 75 165 78 178 c 2,6,-1
 124 395 l 2,7,8
 127 410 127 410 142 410 c 2,9,-1
 195 410 l 2,10,11
 207 410 207 410 207 397 c 0,12,13
 207 396 207 396 207 395 c 0,14,15
 205 368 205 368 205 343 c 0,16,17
 205 91 205 91 423 91 c 0,18,19
 546 91 546 91 623 165 c 0,20,21
 687 228 687 228 701 292 c 0,22,23
 705 313 705 313 705 330 c 0,24,25
 705 368 705 368 686 394 c 0,26,27
 659 429 659 429 606 448 c 2,28,-1
 506 484 l 2,29,30
 386 527 386 527 328 594 c 0,31,32
 276 654 276 654 276 744 c 0,33,34
 276 781 276 781 285 822 c 0,35,36
 313 952 313 952 451 1045 c 0,37,38
 563 1120 563 1120 721 1120 c 0,39,40
 916 1120 916 1120 1016 1031 c 0,41,42
 1031 1018 1031 1018 1031 996 c 0,43,44
 1031 988 1031 988 1029 979 c 2,45,-1
 983 763 l 2,46,47
 980 748 980 748 969 748 c 2,48,-1
 912 748 l 2,49,50
 900 748 900 748 900 761 c 0,51,52
 900 762 900 762 900 763 c 0,53,54
 902 790 902 790 902 813 c 0,55,56
 902 1010 902 1010 773 1010 c 0,57,58
 693 1010 693 1010 644 971 c 128,-1,59
 595 932 595 932 583 875 c 0,60,61
 579 858 579 858 579 843 c 0,62,63
 579 808 579 808 599 785 c 0,64,65
 620 760 620 760 677 739 c 2,66,-1
 801 693 l 2,67,68
 907 654 907 654 960 587 c 0,69,70
 1003 531 1003 531 1003 448 c 0,71,72
 1003 409 1003 409 993 363 c 0,73,74
 959 201 959 201 809 94 c 0,75,76
 649 -20 649 -20 442 -20 c 0,0,1
EndSplineSet
Validated: 1
EndChar

StartChar: x
Encoding: 120 120 102
Width: 1166
Flags: W
HStem: 0 80<60.7158 196.44 1032.05 1154.28> 1020 80<245.716 367.947 1208.56 1344.28>
VStem: 371 272<796.999 1014.59> 757 272<85.4141 309.281>
LayerCount: 2
Fore
SplineSet
168 0 m 2,0,-1
 67 0 l 2,1,2
 54 0 54 0 54 9 c 0,3,4
 54 10 54 10 55 15 c 2,5,-1
 66 65 l 2,6,7
 69 80 69 80 84 80 c 2,8,-1
 129 80 l 2,9,10
 173 80 173 80 198 120 c 0,11,12
 318 316 318 316 561 522 c 1,13,14
 371 742 371 742 371 959 c 24,15,16
 371 1020 371 1020 297 1020 c 2,17,-1
 252 1020 l 2,18,19
 239 1020 239 1020 239 1028 c 0,20,21
 239 1030 239 1030 240 1035 c 2,22,-1
 251 1085 l 2,23,24
 254 1100 254 1100 269 1100 c 2,25,-1
 527 1100 l 2,26,27
 643 1100 643 1100 643 996 c 0,28,29
 643 821 643 821 775 656 c 1,30,31
 981 832 981 832 1103 1024 c 0,32,33
 1151 1100 1151 1100 1237 1100 c 2,34,-1
 1338 1100 l 2,35,36
 1351 1100 1351 1100 1351 1092 c 0,37,38
 1351 1090 1351 1090 1350 1085 c 2,39,-1
 1339 1035 l 2,40,41
 1336 1020 1336 1020 1321 1020 c 2,42,-1
 1276 1020 l 2,43,44
 1232 1020 1232 1020 1207 980 c 0,45,46
 1089 787 1089 787 846 581 c 1,47,48
 1029 368 1029 368 1029 141 c 0,49,50
 1029 80 1029 80 1103 80 c 2,51,-1
 1148 80 l 2,52,53
 1161 80 1161 80 1161 72 c 0,54,55
 1161 70 1161 70 1160 65 c 2,56,-1
 1149 15 l 2,57,58
 1146 0 1146 0 1131 0 c 2,59,-1
 873 0 l 2,60,61
 757 0 757 0 757 104 c 0,62,63
 757 285 757 285 630 444 c 1,64,65
 424 268 424 268 302 76 c 0,66,67
 254 0 254 0 168 0 c 2,0,-1
EndSplineSet
Validated: 1
EndChar

StartChar: K
Encoding: 75 75 103
Width: 1331
Flags: W
HStem: 0 80<28.7158 184.548 1203.32 1319.28> 1430 80<332.716 454.947 1455.01 1582.28>
VStem: 458 328<1189.62 1426.58>
DStem2: 169.865 0 490.242 0 0.207912 0.978148<84.7551 538.839 796.56 1398.53> 642 714 749 633 0.682683 0.730715<0 13.8592 391.717 1130.51> 1006 910 749 633 0.241958 -0.970287<206.586 865.75>
LayerCount: 2
Fore
SplineSet
350 0 m 2,0,-1
 35 0 l 2,1,2
 22 0 22 0 22 8 c 0,3,4
 22 10 22 10 23 15 c 2,5,-1
 34 65 l 2,6,7
 37 80 37 80 52 80 c 2,8,-1
 97 80 l 2,9,10
 187 80 187 80 206 170 c 2,11,-1
 455 1340 l 2,12,13
 458 1354 458 1354 458 1369 c 0,14,15
 458 1430 458 1430 384 1430 c 2,16,-1
 339 1430 l 2,17,18
 326 1430 326 1430 326 1438 c 0,19,20
 326 1440 326 1440 327 1445 c 2,21,-1
 338 1495 l 2,22,23
 341 1510 341 1510 356 1510 c 2,24,-1
 671 1510 l 2,25,26
 786 1510 786 1510 786 1415 c 0,27,28
 786 1394 786 1394 781 1370 c 2,29,-1
 642 714 l 1,30,-1
 1316 1434 l 2,31,32
 1387 1510 1387 1510 1450 1510 c 2,33,-1
 1576 1510 l 2,34,35
 1589 1510 1589 1510 1589 1501 c 0,36,37
 1589 1500 1589 1500 1588 1495 c 2,38,-1
 1577 1445 l 2,39,40
 1574 1430 1574 1430 1559 1430 c 2,41,-1
 1524 1430 l 2,42,43
 1492 1430 1492 1430 1455 1390 c 2,44,-1
 1006 910 l 1,45,-1
 1203 120 l 2,46,47
 1213 80 1213 80 1268 80 c 2,48,-1
 1313 80 l 2,49,50
 1326 80 1326 80 1326 71 c 0,51,52
 1326 70 1326 70 1325 65 c 2,53,-1
 1314 15 l 2,54,55
 1311 0 1311 0 1296 0 c 2,56,-1
 987 0 l 2,57,58
 904 0 904 0 885 76 c 2,59,-1
 749 633 l 1,60,-1
 588 462 l 1,61,-1
 520 140 l 2,62,63
 490 0 490 0 350 0 c 2,0,-1
EndSplineSet
Validated: 1
EndChar

StartChar: D
Encoding: 68 68 104
Width: 1497
Flags: W
HStem: 0 121<516 888.535> 0 80<28.7158 184.548> 1389 121<785 1139.39> 1430 80<332.716 454.947>
VStem: 1276 342<688.211 1169.38>
DStem2: 169.865 0 490.281 0 0.207912 0.978148<190.321 1398.53>
LayerCount: 2
Fore
SplineSet
726 121 m 2,0,1
 902 121 902 121 1038 290 c 0,2,3
 1190 480 1190 480 1248 755 c 0,4,5
 1275 883 1275 883 1276 990 c 0,6,7
 1276 1120 1276 1120 1235 1220 c 0,8,9
 1166 1389 1166 1389 995 1389 c 2,10,-1
 785 1389 l 1,11,-1
 516 121 l 1,12,-1
 726 121 l 2,0,1
720 0 m 2,13,-1
 35 0 l 2,14,15
 22 0 22 0 22 9 c 0,16,17
 22 11 22 11 23 15 c 2,18,-1
 33 60 l 2,19,20
 37 80 37 80 52 80 c 2,21,-1
 97 80 l 2,22,23
 187 80 187 80 206 170 c 2,24,-1
 455 1340 l 2,25,26
 458 1354 458 1354 458 1369 c 0,27,28
 458 1430 458 1430 384 1430 c 2,29,-1
 339 1430 l 2,30,31
 326 1430 326 1430 326 1439 c 0,32,33
 326 1440 326 1440 327 1445 c 2,34,-1
 338 1495 l 2,35,36
 341 1510 341 1510 356 1510 c 2,37,-1
 1041 1510 l 2,38,39
 1370 1510 1370 1510 1518 1279 c 0,40,41
 1618 1122 1618 1122 1618 933 c 0,42,43
 1618 852 1618 852 1600 765 c 0,44,45
 1534 455 1534 455 1295 231 c 0,46,47
 1048 0 1048 0 720 0 c 2,13,-1
EndSplineSet
Validated: 1
EndChar

StartChar: C
Encoding: 67 67 105
Width: 1400
Flags: W
HStem: -20 120<684.77 1056.61> 1410 120<943.844 1319.63>
VStem: 199 340<314.776 816.386> 1426 85<1027 1109.06>
LayerCount: 2
Fore
SplineSet
773 -20 m 0,0,1
 445 -20 445 -20 296 211 c 0,2,3
 199 363 199 363 199 559 c 0,4,5
 199 652 199 652 220 755 c 0,6,7
 288 1077 288 1077 527 1299 c 0,8,9
 775 1530 775 1530 1102 1530 c 0,10,11
 1400 1530 1400 1530 1552 1392 c 0,12,13
 1573 1373 1573 1373 1573 1342 c 0,14,15
 1573 1331 1573 1331 1570 1318 c 2,16,-1
 1511 1042 l 2,17,18
 1508 1027 1508 1027 1493 1027 c 2,19,-1
 1438 1027 l 2,20,21
 1426 1027 1426 1027 1426 1040 c 0,22,23
 1426 1041 1426 1041 1426 1042 c 0,24,25
 1428 1073 1428 1073 1429 1101 c 0,26,27
 1429 1410 1429 1410 1148 1410 c 0,28,29
 922 1410 922 1410 785 1240 c 0,30,31
 633 1050 633 1050 569 755 c 0,32,33
 539 613 539 613 539 498 c 0,34,35
 539 367 539 367 578 270 c 0,36,37
 647 100 647 100 869 100 c 0,38,39
 1176 100 1176 100 1305 472 c 0,40,41
 1310 487 1310 487 1324 487 c 2,42,-1
 1379 487 l 2,43,44
 1391 487 1391 487 1391 477 c 0,45,46
 1391 475 1391 475 1390 472 c 2,47,-1
 1332 196 l 2,48,49
 1322 148 1322 148 1282 122 c 0,50,51
 1065 -20 1065 -20 773 -20 c 0,0,1
EndSplineSet
Validated: 1
EndChar

StartChar: G
Encoding: 71 71 106
Width: 1531
Flags: W
HStem: -20 120<684.528 1025.63> 746 80<1088.14 1210.95> 1410 120<943.844 1319.63>
VStem: 199 340<314.776 816.093> 1214 328<500.781 742.577> 1426 85<1027 1109.06>
DStem2: 1066.46 -20 1386.51 -20 0.207912 0.978148<276.07 719.835>
LayerCount: 2
Fore
SplineSet
773 -20 m 0,0,1
 443 -20 443 -20 296 211 c 0,2,3
 199 363 199 363 199 559 c 0,4,5
 199 652 199 652 220 755 c 0,6,7
 288 1077 288 1077 527 1299 c 0,8,9
 775 1530 775 1530 1102 1530 c 0,10,11
 1400 1530 1400 1530 1552 1392 c 0,12,13
 1573 1373 1573 1373 1573 1342 c 0,14,15
 1573 1332 1573 1332 1570 1318 c 2,16,-1
 1511 1042 l 2,17,18
 1508 1027 1508 1027 1493 1027 c 2,19,-1
 1438 1027 l 2,20,21
 1426 1027 1426 1027 1426 1040 c 0,22,23
 1426 1041 1426 1041 1426 1042 c 0,24,25
 1428 1073 1428 1073 1429 1101 c 0,26,27
 1429 1410 1429 1410 1148 1410 c 0,28,29
 922 1410 922 1410 785 1240 c 0,30,31
 631 1047 631 1047 569 755 c 0,32,33
 539 613 539 613 539 498 c 0,34,35
 539 367 539 367 578 270 c 0,36,37
 647 100 647 100 869 100 c 0,38,39
 979 100 979 100 1074 178 c 0,40,41
 1116 213 1116 213 1123 246 c 2,42,-1
 1210 656 l 2,43,44
 1213 671 1213 671 1214 685 c 0,45,46
 1214 746 1214 746 1140 746 c 2,47,-1
 1095 746 l 2,48,49
 1082 746 1082 746 1082 754 c 0,50,51
 1082 756 1082 756 1083 761 c 2,52,-1
 1093 811 l 2,53,54
 1096 826 1096 826 1112 826 c 2,55,-1
 1427 826 l 2,56,57
 1542 826 1542 826 1542 731 c 0,58,59
 1542 709 1542 709 1537 686 c 2,60,-1
 1449 274 l 2,61,62
 1440 231 1440 231 1400 200 c 0,63,64
 1124 -20 1124 -20 773 -20 c 0,0,1
EndSplineSet
Validated: 1
EndChar

StartChar: T
Encoding: 84 84 107
Width: 1454
Flags: W
HStem: 0 21G<614 847> 1370 140<468.11 858 1178 1549.35>
DStem2: 567.208 0 887.208 0 0.207912 0.978148<62.183 1400.52>
LayerCount: 2
Fore
SplineSet
647 0 m 2,0,1
 581 0 581 0 581 54 c 0,2,3
 581 65 581 65 584 79 c 2,4,-1
 858 1370 l 1,5,-1
 638 1370 l 2,6,7
 469 1370 469 1370 350 1224 c 0,8,9
 342 1214 342 1214 335 1214 c 0,10,11
 332 1214 332 1214 328 1216 c 2,12,-1
 283 1244 l 2,13,14
 277 1248 277 1248 277 1254 c 0,15,16
 277 1259 277 1259 280 1263 c 2,17,-1
 430 1447 l 2,18,19
 481 1510 481 1510 550 1510 c 2,20,-1
 1546 1510 l 2,21,22
 1615 1510 1615 1510 1640 1447 c 2,23,-1
 1710 1263 l 2,24,25
 1711 1262 1711 1262 1711 1260 c 0,26,27
 1711 1250 1711 1250 1699 1244 c 2,28,-1
 1642 1216 l 2,29,30
 1638 1214 1638 1214 1635 1214 c 0,31,32
 1628 1214 1628 1214 1624 1224 c 0,33,34
 1567 1370 1567 1370 1398 1370 c 2,35,-1
 1178 1370 l 1,36,-1
 904 79 l 2,37,38
 887 0 887 0 807 0 c 2,39,-1
 647 0 l 2,0,1
EndSplineSet
Validated: 1
EndChar

StartChar: S
Encoding: 83 83 108
Width: 1200
Flags: W
HStem: -20 120<334.24 678.043> 1399 131<779.272 1056.66>
VStem: 78 146<168 468> 372 311<1061 1240.78> 907 326<381.5 608.218> 1141 136<1095 1356>
LayerCount: 2
Fore
SplineSet
522 -20 m 0,0,1
 252 -20 252 -20 99 118 c 0,2,3
 78 137 78 137 78 168 c 0,4,5
 78 178 78 178 81 192 c 2,6,-1
 139 468 l 2,7,8
 142 483 142 483 158 483 c 2,9,-1
 213 483 l 2,10,11
 224 483 224 483 224 468 c 0,12,13
 224 100 224 100 476 100 c 0,14,15
 645 100 645 100 765 200 c 0,16,17
 868 285 868 285 898 403 c 0,18,19
 907 439 907 439 907 474 c 0,20,21
 907 520 907 520 891 563 c 0,22,23
 867 626 867 626 767 674 c 2,24,-1
 591 758 l 2,25,26
 478 812 478 812 424 892 c 0,27,28
 372 970 372 970 372 1061 c 0,29,30
 372 1098 372 1098 380 1136 c 0,31,32
 397 1219 397 1219 446 1293 c 0,33,34
 505 1383 505 1383 608 1450 c 0,35,36
 733 1530 733 1530 910 1530 c 0,37,38
 1120 1530 1120 1530 1256 1406 c 0,39,40
 1277 1387 1277 1387 1277 1356 c 0,41,42
 1277 1346 1277 1346 1274 1332 c 2,43,-1
 1224 1095 l 2,44,45
 1221 1080 1221 1080 1206 1080 c 2,46,-1
 1153 1080 l 2,47,48
 1141 1080 1141 1080 1141 1095 c 0,49,50
 1141 1399 1141 1399 924 1399 c 0,51,52
 837 1399 837 1399 768 1346 c 0,53,54
 697 1291 697 1291 686 1212 c 0,55,56
 683 1192 683 1192 683 1174 c 0,57,58
 683 1117 683 1117 712 1079 c 0,59,60
 747 1034 747 1034 821 999 c 2,61,-1
 1013 909 l 2,62,63
 1145 847 1145 847 1202 719 c 0,64,65
 1233 649 1233 649 1233 573 c 0,66,67
 1233 531 1233 531 1224 488 c 0,68,69
 1185 304 1185 304 1014 155 c 0,70,71
 815 -20 815 -20 522 -20 c 0,0,1
EndSplineSet
Validated: 1
EndChar

StartChar: U
Encoding: 85 85 109
Width: 1510
Flags: W
HStem: -20 161<696.97 1021.66> 1430 80<332.716 454.947 1647.27 1802.28>
VStem: 268 322<250.778 590.25> 458 328<1186.78 1426.58>
DStem2: 165.519 -20 485.519 -20 0.207912 0.978148<517.387 1419> 1185.52 -20 1335.52 -20 0.207912 0.978148<351.772 1514.16>
LayerCount: 2
Fore
SplineSet
751 -20 m 0,0,1
 506 -20 506 -20 380 114 c 0,2,3
 268 234 268 234 268 403 c 0,4,5
 268 462 268 462 282 528 c 2,6,-1
 455 1340 l 2,7,8
 458 1354 458 1354 458 1369 c 0,9,10
 458 1430 458 1430 384 1430 c 2,11,-1
 339 1430 l 2,12,13
 326 1430 326 1430 326 1438 c 0,14,15
 326 1440 326 1440 327 1445 c 2,16,-1
 338 1495 l 2,17,18
 341 1510 341 1510 356 1510 c 2,19,-1
 671 1510 l 2,20,21
 786 1510 786 1510 786 1415 c 0,22,23
 786 1394 786 1394 781 1370 c 2,24,-1
 602 528 l 2,25,26
 590 472 590 472 590 417 c 0,27,28
 590 313 590 313 641 240 c 0,29,30
 710 141 710 141 861 141 c 0,31,32
 1001 141 1001 141 1123 239 c 0,33,34
 1265 353 1265 353 1302 528 c 2,35,-1
 1481 1370 l 2,36,37
 1511 1510 1511 1510 1711 1510 c 2,38,-1
 1796 1510 l 2,39,40
 1809 1510 1809 1510 1809 1501 c 0,41,42
 1809 1500 1809 1500 1808 1495 c 2,43,-1
 1797 1445 l 2,44,45
 1794 1430 1794 1430 1779 1430 c 2,46,-1
 1734 1430 l 2,47,48
 1644 1430 1644 1430 1625 1340 c 2,49,-1
 1452 528 l 2,50,51
 1397 270 1397 270 1188 114 c 0,52,53
 1008 -20 1008 -20 751 -20 c 0,0,1
EndSplineSet
Validated: 1
EndChar

StartChar: J
Encoding: 74 74 110
Width: 1261
Flags: W
HStem: -20 120<313.203 656.844> 1370 140<531.119 1062> 1430 80<1397.45 1553.28>
VStem: 120 85<403.78 487>
DStem2: 766.519 -20 1086.52 -20 0.207912 0.978148<366.298 1421.06>
LayerCount: 2
Fore
SplineSet
529 -20 m 0,0,1
 237 -20 237 -20 80 122 c 0,2,3
 59 141 59 141 59 172 c 0,4,5
 59 182 59 182 62 196 c 2,6,-1
 120 472 l 2,7,8
 123 487 123 487 139 487 c 2,9,-1
 194 487 l 2,10,11
 205 487 205 487 205 479 c 0,12,13
 205 474 205 474 205 472 c 0,14,15
 203 442 203 442 203 410 c 0,16,17
 203 100 203 100 483 100 c 0,18,19
 639 100 639 100 743 212 c 0,20,21
 837 313 837 313 883 528 c 2,22,-1
 1062 1370 l 1,23,-1
 702 1370 l 2,24,25
 531 1370 531 1370 414 1224 c 0,26,27
 406 1214 406 1214 399 1214 c 0,28,29
 395 1214 395 1214 392 1216 c 2,30,-1
 347 1244 l 2,31,32
 341 1248 341 1248 341 1254 c 0,33,34
 341 1259 341 1259 344 1263 c 2,35,-1
 494 1447 l 2,36,37
 545 1510 545 1510 614 1510 c 2,38,-1
 1547 1510 l 2,39,40
 1560 1510 1560 1510 1560 1501 c 0,41,42
 1560 1500 1560 1500 1559 1495 c 2,43,-1
 1548 1445 l 2,44,45
 1545 1430 1545 1430 1530 1430 c 2,46,-1
 1485 1430 l 2,47,48
 1395 1430 1395 1430 1376 1340 c 2,49,-1
 1203 528 l 2,50,51
 1148 269 1148 269 959 114 c 0,52,53
 796 -20 796 -20 529 -20 c 0,0,1
EndSplineSet
Validated: 1
EndChar

StartChar: M
Encoding: 77 77 111
Width: 1923
Flags: W
HStem: 0 80<28.7158 165.997 1809 1911.28> 1430 80<487.716 589.895 1921.72 2058.28>
VStem: 1493 316<80.125 250.452>
DStem2: 590 1390 634 1043 0.316676 0.948534<-1395.23 -315.207> 911 1434 634 1043 0.0879935 -0.996121<365.109 1170.54> 1014 268 1075 80 0.473018 0.881053<0 919.382>
LayerCount: 2
Fore
SplineSet
168 0 m 2,0,-1
 35 0 l 2,1,2
 22 0 22 0 22 9 c 0,3,4
 22 10 22 10 23 15 c 2,5,-1
 34 65 l 2,6,7
 37 80 37 80 52 80 c 2,8,-1
 97 80 l 2,9,10
 153 80 153 80 166 120 c 2,11,-1
 590 1390 l 1,12,13
 587 1430 587 1430 539 1430 c 2,14,-1
 494 1430 l 2,15,16
 481 1430 481 1430 481 1438 c 0,17,18
 481 1440 481 1440 482 1445 c 2,19,-1
 493 1495 l 2,20,21
 496 1510 496 1510 511 1510 c 2,22,-1
 809 1510 l 2,23,24
 904 1510 904 1510 911 1434 c 2,25,-1
 1014 268 l 1,26,-1
 1640 1434 l 2,27,28
 1681 1510 1681 1510 1774 1510 c 2,29,-1
 2052 1510 l 2,30,31
 2065 1510 2065 1510 2065 1501 c 0,32,33
 2065 1500 2065 1500 2064 1495 c 2,34,-1
 2053 1445 l 2,35,36
 2050 1430 2050 1430 2035 1430 c 2,37,-1
 1990 1430 l 2,38,39
 1944 1430 1944 1430 1921 1390 c 1,40,-1
 1809 120 l 2,41,42
 1809 116 1809 116 1809 112 c 0,43,44
 1809 80 1809 80 1860 80 c 2,45,-1
 1905 80 l 2,46,47
 1918 80 1918 80 1918 72 c 0,48,49
 1918 70 1918 70 1917 65 c 2,50,-1
 1906 15 l 2,51,52
 1903 0 1903 0 1888 0 c 2,53,-1
 1595 0 l 2,54,55
 1493 0 1493 0 1493 68 c 0,56,57
 1493 72 1493 72 1493 76 c 2,58,-1
 1570 1013 l 1,59,-1
 1075 80 l 2,60,61
 1033 0 1033 0 944 0 c 2,62,-1
 816 0 l 2,63,64
 723 0 723 0 716 81 c 2,65,-1
 634 1043 l 1,66,-1
 302 76 l 2,67,68
 276 0 276 0 168 0 c 2,0,-1
EndSplineSet
Validated: 1
EndChar

StartChar: Y
Encoding: 89 89 112
Width: 1428
Flags: W
HStem: 0 21G<603 836> 1430 80<332.716 434.997 1585.25 1720.28>
DStem2: 556.208 0 876.208 0 0.207912 0.978148<62.183 654.247> 953 783 692 640 0.324163 -0.946001<-777.021 0> 953 783 1012 640 0.605756 0.795651<0 940.339>
LayerCount: 2
Fore
SplineSet
636 0 m 2,0,1
 570 0 570 0 570 54 c 0,2,3
 570 65 570 65 573 79 c 2,4,-1
 692 640 l 1,5,-1
 435 1390 l 2,6,7
 421 1430 421 1430 384 1430 c 2,8,-1
 339 1430 l 2,9,10
 326 1430 326 1430 326 1439 c 0,11,12
 326 1440 326 1440 327 1445 c 2,13,-1
 338 1495 l 2,14,15
 341 1510 341 1510 356 1510 c 2,16,-1
 614 1510 l 2,17,18
 705 1510 705 1510 731 1434 c 2,19,-1
 953 783 l 1,20,-1
 1465 1434 l 2,21,22
 1525 1510 1525 1510 1599 1510 c 2,23,-1
 1714 1510 l 2,24,25
 1727 1510 1727 1510 1727 1501 c 0,26,27
 1727 1500 1727 1500 1726 1495 c 2,28,-1
 1715 1445 l 2,29,30
 1712 1430 1712 1430 1697 1430 c 2,31,-1
 1652 1430 l 2,32,33
 1613 1430 1613 1430 1583 1390 c 2,34,-1
 1012 640 l 1,35,-1
 893 79 l 2,36,37
 876 0 876 0 796 0 c 2,38,-1
 636 0 l 2,0,1
EndSplineSet
Validated: 1
EndChar

StartChar: X
Encoding: 88 88 113
Width: 1287
Flags: W
HStem: 0 80<32.7158 164.993 1178 1275.28> 1430 80<332.716 424.997 1449.81 1575.28>
DStem2: 165 120 293 76 0.660203 0.751088<-88.1086 685.601 1104.69 1889.26> 894 950 665 689 0.323348 -0.94628<-602.832 0 144.838 172.932 317.77 915.295>
LayerCount: 2
Fore
SplineSet
293 76 m 2,0,1
 226 0 226 0 179 0 c 2,2,-1
 39 0 l 2,3,4
 26 0 26 0 26 9 c 0,5,6
 26 10 26 10 27 15 c 2,7,-1
 38 65 l 2,8,9
 41 80 41 80 56 80 c 2,10,-1
 96 80 l 2,11,12
 130 80 130 80 165 120 c 2,13,-1
 665 689 l 1,14,-1
 425 1390 l 2,15,16
 411 1430 411 1430 374 1430 c 2,17,-1
 339 1430 l 2,18,19
 326 1430 326 1430 326 1438 c 0,20,21
 326 1440 326 1440 327 1445 c 2,22,-1
 338 1495 l 2,23,24
 341 1510 341 1510 356 1510 c 2,25,-1
 627 1510 l 2,26,27
 703 1510 703 1510 729 1434 c 2,28,-1
 894 950 l 1,29,-1
 1320 1434 l 2,30,31
 1387 1510 1387 1510 1454 1510 c 2,32,-1
 1569 1510 l 2,33,34
 1582 1510 1582 1510 1582 1501 c 0,35,36
 1582 1500 1582 1500 1581 1495 c 2,37,-1
 1570 1445 l 2,38,39
 1567 1430 1567 1430 1552 1430 c 2,40,-1
 1517 1430 l 2,41,42
 1483 1430 1483 1430 1448 1390 c 2,43,-1
 941 813 l 1,44,-1
 1178 120 l 2,45,46
 1192 80 1192 80 1229 80 c 2,47,-1
 1269 80 l 2,48,49
 1282 80 1282 80 1282 72 c 0,50,51
 1282 70 1282 70 1281 65 c 2,52,-1
 1270 15 l 2,53,54
 1267 0 1267 0 1252 0 c 2,55,-1
 956 0 l 2,56,57
 900 0 900 0 874 76 c 2,58,-1
 712 552 l 1,59,-1
 293 76 l 2,0,1
EndSplineSet
Validated: 1
EndChar

StartChar: Q
Encoding: 81 81 114
Width: 1554
Flags: W
HStem: -195 80<1182 1279.8> -20 120<665.75 793> 290 80<644.145 736.997> 1410 120<925.281 1208.25>
VStem: 199 340<314.776 816.093> 1336 340<702.928 1195.22>
LayerCount: 2
Fore
SplineSet
773 -20 m 0,0,1
 445 -20 445 -20 296 211 c 0,2,3
 199 363 199 363 199 559 c 0,4,5
 199 652 199 652 220 755 c 0,6,7
 288 1077 288 1077 527 1299 c 0,8,9
 775 1530 775 1530 1102 1530 c 0,10,11
 1431 1530 1431 1530 1579 1299 c 0,12,13
 1676 1147 1676 1147 1676 951 c 0,14,15
 1676 858 1676 858 1654 755 c 0,16,17
 1586 435 1586 435 1348 211 c 0,18,19
 1247 116 1247 116 1132 60 c 1,20,-1
 1182 -75 l 2,21,22
 1196 -115 1196 -115 1234 -115 c 2,23,-1
 1274 -115 l 2,24,25
 1286 -115 1286 -115 1286 -124 c 0,26,27
 1286 -126 1286 -126 1285 -130 c 2,28,-1
 1275 -180 l 2,29,30
 1272 -195 1272 -195 1257 -195 c 2,31,-1
 958 -195 l 2,32,33
 905 -195 905 -195 876 -119 c 2,34,-1
 837 -18 l 1,35,36
 806 -20 806 -20 773 -20 c 0,0,1
793 100 m 1,37,-1
 737 250 l 2,38,39
 722 290 722 290 686 290 c 2,40,-1
 651 290 l 2,41,42
 638 290 638 290 638 298 c 0,43,44
 638 300 638 300 639 305 c 2,45,-1
 649 355 l 2,46,47
 652 370 652 370 668 370 c 2,48,-1
 943 370 l 2,49,50
 1014 370 1014 370 1044 294 c 2,51,-1
 1065 240 l 1,52,53
 1078 254 1078 254 1090 270 c 0,54,55
 1240 458 1240 458 1305 755 c 0,56,57
 1336 897 1336 897 1336 1012 c 0,58,59
 1336 1143 1336 1143 1297 1240 c 0,60,61
 1227 1410 1227 1410 1076 1410 c 0,62,63
 922 1410 922 1410 785 1240 c 0,64,65
 631 1047 631 1047 569 755 c 0,66,67
 539 613 539 613 539 498 c 0,68,69
 539 367 539 367 578 270 c 0,70,71
 646 103 646 103 793 100 c 1,37,-1
EndSplineSet
Validated: 1
EndChar

StartChar: N
Encoding: 78 78 115
Width: 1459
Flags: W
HStem: 0 80<28.7158 184.348> 1430 80<362.716 464.434 1596.27 1751.28>
DStem2: 169.865 0 320.242 0 0.207912 0.978148<80.6703 1299.01> 1139.01 0 1289.37 0 0.207912 0.978148<553.086 1493.66>
LayerCount: 2
Fore
SplineSet
180 0 m 2,0,-1
 35 0 l 2,1,2
 22 0 22 0 22 9 c 0,3,4
 22 10 22 10 23 15 c 2,5,-1
 34 65 l 2,6,7
 37 80 37 80 52 80 c 2,8,-1
 97 80 l 2,9,10
 187 80 187 80 206 170 c 2,11,-1
 465 1390 l 1,12,13
 447 1430 447 1430 414 1430 c 2,14,-1
 369 1430 l 2,15,16
 356 1430 356 1430 356 1438 c 0,17,18
 356 1440 356 1440 357 1445 c 2,19,-1
 368 1495 l 2,20,21
 371 1510 371 1510 386 1510 c 2,22,-1
 715 1510 l 2,23,24
 796 1510 796 1510 832 1434 c 2,25,-1
 1254 541 l 1,26,-1
 1430 1370 l 2,27,28
 1460 1510 1460 1510 1660 1510 c 2,29,-1
 1745 1510 l 2,30,31
 1758 1510 1758 1510 1758 1502 c 0,32,33
 1758 1500 1758 1500 1757 1495 c 2,34,-1
 1746 1445 l 2,35,36
 1743 1430 1743 1430 1728 1430 c 2,37,-1
 1683 1430 l 2,38,39
 1593 1430 1593 1430 1574 1340 c 2,40,-1
 1300 50 l 2,41,42
 1289 0 1289 0 1239 0 c 2,43,-1
 1187 0 l 2,44,45
 1147 0 1147 0 1125 49 c 2,46,-1
 584 1240 l 1,47,-1
 350 140 l 2,48,49
 320 0 320 0 180 0 c 2,0,-1
EndSplineSet
Validated: 1
EndChar

StartChar: B
Encoding: 66 66 116
Width: 1320
Flags: W
HStem: 0 121<516 795.52> 0 80<28.7158 184.548> 776 120<680 916.432> 1389 121<785 1024.58> 1430 80<332.716 454.947>
VStem: 1034 336<357.05 668.076> 1089 334<1057.91 1326.37>
DStem2: 169.865 0 490.281 0 0.207912 0.978148<190.321 859.908 982.483 1398.56>
LayerCount: 2
Fore
SplineSet
785 1389 m 1,0,-1
 680 896 l 1,1,-1
 735 896 l 2,2,3
 904 896 904 896 990 978 c 0,4,5
 1063 1048 1063 1048 1083 1143 c 0,6,7
 1089 1173 1089 1173 1089 1200 c 0,8,9
 1089 1259 1089 1259 1060 1307 c 0,10,11
 1009 1389 1009 1389 840 1389 c 2,12,-1
 785 1389 l 1,0,-1
516 121 m 1,13,-1
 571 121 l 2,14,15
 767 121 767 121 887 221 c 0,16,17
 997 313 997 313 1026 450 c 0,18,19
 1034 489 1034 489 1034 524 c 0,20,21
 1034 611 1034 611 984 676 c 0,22,23
 906 776 906 776 710 776 c 2,24,-1
 655 776 l 1,25,-1
 516 121 l 1,13,-1
755 0 m 2,26,-1
 35 0 l 2,27,28
 22 0 22 0 22 9 c 0,29,30
 22 10 22 10 23 15 c 2,31,-1
 34 65 l 2,32,33
 37 80 37 80 52 80 c 2,34,-1
 97 80 l 2,35,36
 187 80 187 80 206 170 c 2,37,-1
 455 1340 l 2,38,39
 458 1355 458 1355 458 1369 c 0,40,41
 458 1430 458 1430 384 1430 c 2,42,-1
 339 1430 l 2,43,44
 326 1430 326 1430 326 1439 c 0,45,46
 326 1440 326 1440 327 1445 c 2,47,-1
 338 1495 l 2,48,49
 341 1510 341 1510 356 1510 c 2,50,-1
 1076 1510 l 2,51,52
 1246 1510 1246 1510 1340 1422 c 0,53,54
 1423 1344 1423 1344 1423 1232 c 0,55,56
 1423 1197 1423 1197 1415 1158 c 0,57,58
 1373 959 1373 959 1149 855 c 1,59,60
 1222 833 1222 833 1275 785 c 0,61,62
 1370 698 1370 698 1370 563 c 0,63,64
 1370 519 1370 519 1358 463 c 0,65,66
 1316 264 1316 264 1161 137 c 0,67,68
 995 0 995 0 755 0 c 2,26,-1
EndSplineSet
Validated: 1
EndChar

StartChar: P
Encoding: 80 80 117
Width: 1258
Flags: W
HStem: 0 21G<217 450> 548 121<632 870.39> 1389 121<785 1004.24> 1430 80<332.716 454.947>
VStem: 1098 332<927.548 1296.99>
DStem2: 170.208 0 490.208 0 0.207912 0.978148<62.183 626.631 750.393 1398.46>
LayerCount: 2
Fore
SplineSet
250 0 m 2,0,1
 184 0 184 0 184 54 c 0,2,3
 184 65 184 65 187 79 c 2,4,-1
 455 1340 l 2,5,6
 458 1354 458 1354 458 1369 c 0,7,8
 458 1430 458 1430 384 1430 c 2,9,-1
 339 1430 l 2,10,11
 326 1430 326 1430 326 1439 c 0,12,13
 326 1440 326 1440 327 1445 c 2,14,-1
 338 1495 l 2,15,16
 341 1510 341 1510 356 1510 c 2,17,-1
 1034 1510 l 2,18,19
 1256 1510 1256 1510 1364 1361 c 0,20,21
 1430 1270 1430 1270 1430 1146 c 0,22,23
 1430 1091 1430 1091 1417 1029 c 0,24,25
 1374 829 1374 829 1223 697 c 0,26,27
 1053 548 1053 548 829 548 c 2,28,-1
 606 548 l 1,29,-1
 507 79 l 2,30,31
 490 0 490 0 410 0 c 2,32,-1
 250 0 l 2,0,1
785 1389 m 1,33,-1
 632 669 l 1,34,-1
 675 669 l 2,35,36
 860 669 860 669 964 785 c 0,37,38
 1057 889 1057 889 1087 1029 c 0,39,40
 1098 1083 1098 1083 1098 1131 c 0,41,42
 1098 1210 1098 1210 1068 1273 c 0,43,44
 1011 1389 1011 1389 828 1389 c 2,45,-1
 785 1389 l 1,33,-1
EndSplineSet
Validated: 1
EndChar

StartChar: R
Encoding: 82 82 118
Width: 1354
Flags: W
HStem: 0 80<1240 1342.28> 548 121<632 726> 1389 121<785 1004.24> 1430 80<332.716 454.947>
VStem: 1098 332<926.333 1297.36>
DStem2: 170.208 0 490.208 0 0.207912 0.978148<62.183 626.631 750.393 1398.49> 1060 601 726 548 0.350483 -0.936569<-1.83221 528.432>
LayerCount: 2
Fore
SplineSet
785 1389 m 1,0,-1
 632 669 l 1,1,-1
 675 669 l 2,2,3
 860 669 860 669 964 785 c 0,4,5
 1057 889 1057 889 1087 1029 c 0,6,7
 1098 1083 1098 1083 1098 1131 c 0,8,9
 1098 1210 1098 1210 1068 1273 c 0,10,11
 1011 1389 1011 1389 828 1389 c 2,12,-1
 785 1389 l 1,0,-1
250 0 m 2,13,14
 184 0 184 0 184 54 c 0,15,16
 184 66 184 66 187 79 c 2,17,-1
 455 1340 l 2,18,19
 458 1355 458 1355 458 1369 c 0,20,21
 458 1430 458 1430 384 1430 c 2,22,-1
 339 1430 l 2,23,24
 326 1430 326 1430 326 1439 c 0,25,26
 326 1440 326 1440 327 1445 c 2,27,-1
 338 1495 l 2,28,29
 341 1510 341 1510 356 1510 c 2,30,-1
 1034 1510 l 2,31,32
 1258 1510 1258 1510 1364 1361 c 0,33,34
 1430 1270 1430 1270 1430 1146 c 0,35,36
 1430 1091 1430 1091 1417 1029 c 0,37,38
 1374 829 1374 829 1223 697 c 0,39,40
 1154 637 1154 637 1060 601 c 1,41,-1
 1240 120 l 2,42,43
 1254 80 1254 80 1291 80 c 2,44,-1
 1336 80 l 2,45,46
 1349 80 1349 80 1349 71 c 0,47,48
 1349 70 1349 70 1348 65 c 2,49,-1
 1337 15 l 2,50,51
 1334 0 1334 0 1319 0 c 2,52,-1
 1012 0 l 2,53,54
 940 0 940 0 910 76 c 2,55,-1
 726 548 l 1,56,-1
 606 548 l 1,57,-1
 507 79 l 2,58,59
 490 0 490 0 410 0 c 2,60,-1
 250 0 l 2,13,14
EndSplineSet
Validated: 1
EndChar

StartChar: grave
Encoding: 96 96 119
Width: 482
Flags: W
HStem: 1139 391<515.781 629.999>
VStem: 370 260<1403.72 1529.75>
LayerCount: 2
Fore
SplineSet
408 1530 m 2,0,1
 579 1530 l 2,2,3
 624 1530 624 1530 630 1489 c 2,4,-1
 679 1185 l 2,5,6
 680 1176 680 1176 680 1169 c 0,7,8
 680 1139 680 1139 644 1139 c 2,9,-1
 575 1139 l 2,10,11
 536 1139 536 1139 518 1179 c 2,12,-1
 376 1485 l 2,13,14
 370 1497 370 1497 370 1506 c 0,15,16
 371 1530 371 1530 408 1530 c 2,0,1
EndSplineSet
Validated: 1
EndChar

StartChar: asciitilde
Encoding: 126 126 120
Width: 1138
Flags: W
HStem: 515 219<781 1012.63> 778 219<446.785 678>
LayerCount: 2
Fore
SplineSet
601 997 m 0,0,1
 755 997 755 997 834 846 c 0,2,3
 892 734 892 734 946 734 c 0,4,5
 1027 734 1027 734 1064 912 c 0,6,7
 1077 976 1077 976 1142 976 c 2,8,-1
 1190 976 l 2,9,10
 1244 976 1244 976 1244 932 c 0,11,12
 1244 923 1244 923 1242 912 c 0,13,14
 1157 515 1157 515 858 515 c 0,15,16
 704 515 704 515 626 666 c 0,17,18
 567 778 567 778 513 778 c 0,19,20
 433 778 433 778 396 600 c 0,21,22
 382 536 382 536 317 536 c 2,23,-1
 269 536 l 2,24,25
 215 536 215 536 215 580 c 0,26,27
 215 589 215 589 218 600 c 0,28,29
 302 997 302 997 601 997 c 0,0,1
EndSplineSet
Validated: 1
EndChar

StartChar: braceleft
Encoding: 123 123 121
Width: 825
Flags: W
HStem: -205 140<616.062 770.741> 685 140<186.259 351.062> 1570 140<942.369 1147.74>
VStem: 255 293<-3.6189 224.488> 352 300<414.234 682.277>
DStem2: 176.829 -205 476.204 -205 0.207912 0.978148<384.096 853.784 1072.96 1728.76>
LayerCount: 2
Fore
SplineSet
731 -205 m 0,0,1
 486 -205 486 -205 362 -99 c 0,2,3
 255 -7 255 -7 255 125 c 0,4,5
 255 162 255 162 263 203 c 2,6,-1
 349 605 l 2,7,8
 352 619 352 619 352 631 c 0,9,10
 352 685 352 685 286 685 c 2,11,-1
 196 685 l 2,12,13
 171 685 171 685 171 705 c 0,14,15
 171 709 171 709 172 715 c 2,16,-1
 189 795 l 2,17,18
 195 825 195 825 225 825 c 2,19,-1
 315 825 l 2,20,21
 395 825 395 825 412 905 c 2,22,-1
 497 1302 l 2,23,24
 536 1484 536 1484 724 1604 c 0,25,26
 888 1710 888 1710 1138 1710 c 0,27,28
 1163 1710 1163 1710 1163 1690 c 0,29,30
 1163 1686 1163 1686 1162 1681 c 2,31,-1
 1145 1599 l 2,32,33
 1139 1570 1139 1570 1109 1570 c 0,34,35
 1004 1570 1004 1570 916 1510 c 128,-1,36
 828 1450 828 1450 806 1344 c 2,37,-1
 714 915 l 2,38,39
 686 783 686 783 560 755 c 1,40,41
 652 733 652 733 652 643 c 0,42,43
 652 621 652 621 646 595 c 2,44,-1
 554 161 l 2,45,46
 548 133 548 133 548 108 c 0,47,48
 548 39 548 39 594 -5 c 0,49,50
 656 -65 656 -65 761 -65 c 0,51,52
 786 -65 786 -65 786 -85 c 0,53,54
 786 -89 786 -89 785 -94 c 2,55,-1
 768 -176 l 2,56,57
 761 -205 761 -205 731 -205 c 0,0,1
EndSplineSet
Validated: 1
EndChar

StartChar: bar
Encoding: 124 124 122
Width: 675
Flags: W
DStem2: 168.121 -150 443.121 -150 0.207912 0.978148<50.8625 1856.76>
LayerCount: 2
Fore
SplineSet
623 1660 m 2,0,-1
 758 1660 l 2,1,2
 816 1660 816 1660 816 1612 c 0,3,4
 816 1602 816 1602 813 1590 c 2,5,-1
 458 -80 l 2,6,7
 443 -150 443 -150 373 -150 c 2,8,-1
 238 -150 l 2,9,10
 180 -150 180 -150 180 -102 c 0,11,12
 180 -92 180 -92 183 -80 c 2,13,-1
 538 1590 l 2,14,15
 553 1660 553 1660 623 1660 c 2,0,-1
EndSplineSet
Validated: 1
EndChar

StartChar: bracketleft
Encoding: 91 91 123
Width: 765
Flags: W
HStem: -205 140<446 710.634> 1570 140<794 1087.6>
DStem2: 116.121 -205 416.242 -205 0.207912 0.978148<205.526 1877.15>
LayerCount: 2
Fore
SplineSet
593 1710 m 2,0,1
 1063 1710 l 2,2,3
 1101 1710 1101 1710 1101 1679 c 0,4,5
 1101 1672 1101 1672 1099 1665 c 2,6,-1
 1088 1615 l 2,7,8
 1078 1570 1078 1570 1034 1570 c 2,9,-1
 794 1570 l 1,10,-1
 446 -65 l 1,11,-1
 686 -65 l 2,12,13
 723 -65 723 -65 723 -96 c 0,14,15
 723 -103 723 -103 722 -110 c 2,16,-1
 711 -160 l 2,17,18
 701 -205 701 -205 656 -205 c 2,19,-1
 186 -205 l 2,20,21
 129 -205 129 -205 129 -157 c 0,22,23
 129 -147 129 -147 131 -135 c 2,24,-1
 509 1640 l 2,25,26
 523 1710 523 1710 593 1710 c 2,0,1
EndSplineSet
Validated: 1
EndChar

StartChar: backslash
Encoding: 92 92 124
Width: 1193
Flags: W
DStem2: 1175 19 924 -110 0.342825 -0.939399<-1698 28.5451>
LayerCount: 2
Fore
SplineSet
542 1662 m 0,0,1
 576 1662 576 1662 591 1622 c 2,2,-1
 1175 19 l 2,3,4
 1180 4 1180 4 1180 -10 c 0,5,6
 1180 -54 1180 -54 1128 -81 c 2,7,-1
 1018 -137 l 2,8,9
 992 -150 992 -150 970 -150 c 0,10,11
 938 -150 938 -150 924 -110 c 2,12,-1
 339 1493 l 2,13,14
 334 1508 334 1508 334 1520 c 0,15,16
 334 1566 334 1566 388 1593 c 2,17,-1
 498 1649 l 2,18,19
 523 1662 523 1662 542 1662 c 0,0,1
EndSplineSet
Validated: 1
EndChar

StartChar: asciicircum
Encoding: 94 94 125
Width: 1012
Flags: W
HStem: 965 565
DStem2: 288 1075 397 990 0.712057 0.702121<-32.5915 535.553> 1191 1120 981 990 0.505427 -0.862869<-415.855 18.6516>
LayerCount: 2
Fore
SplineSet
789 1530 m 2,0,-1
 910 1530 l 2,1,2
 950 1530 950 1530 969 1499 c 2,3,-1
 1191 1120 l 2,4,5
 1196 1111 1196 1111 1196 1101 c 0,6,7
 1196 1078 1196 1078 1159 1052 c 2,8,-1
 1046 972 l 2,9,10
 1036 965 1036 965 1018 965 c 0,11,12
 996 965 996 965 981 990 c 2,13,-1
 766 1353 l 1,14,-1
 397 990 l 2,15,16
 372 965 372 965 350 965 c 0,17,18
 332 965 332 965 326 972 c 2,19,-1
 292 1007 l 2,20,21
 272 1027 272 1027 272 1042 c 0,22,23
 272 1059 272 1059 288 1075 c 2,24,-1
 718 1499 l 2,25,26
 749 1530 749 1530 789 1530 c 2,0,-1
EndSplineSet
Validated: 1
EndChar

StartChar: underscore
Encoding: 95 95 126
Width: 1233
Flags: W
HStem: -320 233<65.363 1081.26>
LayerCount: 2
Fore
SplineSet
142 -87 m 2,0,-1
 1055 -87 l 2,1,2
 1112 -87 1112 -87 1112 -135 c 0,3,4
 1112 -145 1112 -145 1110 -157 c 2,5,-1
 1090 -250 l 2,6,7
 1075 -320 1075 -320 1005 -320 c 2,8,-1
 92 -320 l 2,9,10
 34 -320 34 -320 34 -272 c 0,11,12
 34 -262 34 -262 37 -250 c 2,13,-1
 57 -157 l 2,14,15
 72 -87 72 -87 142 -87 c 2,0,-1
EndSplineSet
Validated: 1
EndChar

StartChar: bracketright
Encoding: 93 93 127
Width: 765
Flags: W
HStem: -205 140<-2.60352 291> 1570 140<374.366 639>
DStem2: 261.242 -205 561.121 -205 0.207912 0.978148<143.128 1814.75>
LayerCount: 2
Fore
SplineSet
492 -205 m 2,0,1
 22 -205 l 2,2,3
 -16 -205 -16 -205 -16 -174 c 0,4,5
 -16 -167 -16 -167 -14 -160 c 2,6,-1
 -3 -110 l 2,7,8
 7 -65 7 -65 51 -65 c 2,9,-1
 291 -65 l 1,10,-1
 639 1570 l 1,11,-1
 399 1570 l 2,12,13
 362 1570 362 1570 362 1601 c 0,14,15
 362 1608 362 1608 363 1615 c 2,16,-1
 374 1665 l 2,17,18
 384 1710 384 1710 429 1710 c 2,19,-1
 899 1710 l 2,20,21
 956 1710 956 1710 956 1662 c 0,22,23
 956 1652 956 1652 954 1640 c 2,24,-1
 576 -135 l 2,25,26
 562 -205 562 -205 492 -205 c 2,0,1
EndSplineSet
Validated: 1
EndChar

StartChar: braceright
Encoding: 125 125 128
Width: 825
Flags: W
HStem: -200 140<-2.74121 202.631> 685 140<793.938 958.741> 1575 140<374.259 528.938>
VStem: 493 300<827.723 1095.77> 597 293<1167.36 1513.79>
DStem2: 261.204 -200 561.277 -200 0.207912 0.978148<295.443 947.175 1166.36 1636.04>
LayerCount: 2
Fore
SplineSet
7 -200 m 0,0,1
 -18 -200 -18 -200 -18 -180 c 0,2,3
 -18 -176 -18 -176 -17 -171 c 2,4,-1
 0 -89 l 2,5,6
 6 -60 6 -60 36 -60 c 0,7,8
 141 -60 141 -60 229 0 c 128,-1,9
 317 60 317 60 339 166 c 2,10,-1
 431 595 l 2,11,12
 459 727 459 727 585 755 c 1,13,14
 493 777 493 777 493 867 c 0,15,16
 493 889 493 889 499 915 c 2,17,-1
 591 1349 l 2,18,19
 597 1377 597 1377 597 1402 c 0,20,21
 597 1471 597 1471 551 1515 c 0,22,23
 489 1575 489 1575 384 1575 c 0,24,25
 359 1575 359 1575 359 1595 c 0,26,27
 359 1599 359 1599 360 1604 c 2,28,-1
 377 1686 l 2,29,30
 384 1715 384 1715 414 1715 c 0,31,32
 659 1715 659 1715 783 1609 c 0,33,34
 890 1517 890 1517 890 1385 c 0,35,36
 890 1348 890 1348 882 1307 c 2,37,-1
 796 905 l 2,38,39
 793 891 793 891 793 879 c 0,40,41
 793 825 793 825 859 825 c 2,42,-1
 949 825 l 2,43,44
 974 825 974 825 974 805 c 0,45,46
 974 801 974 801 973 795 c 2,47,-1
 956 715 l 2,48,49
 950 685 950 685 920 685 c 2,50,-1
 830 685 l 2,51,52
 750 685 750 685 733 605 c 2,53,-1
 648 208 l 2,54,55
 609 26 609 26 421 -94 c 0,56,57
 257 -200 257 -200 7 -200 c 0,0,1
EndSplineSet
Validated: 1
EndChar

StartChar: parenleft
Encoding: 40 40 129
Width: 700
Flags: W
VStem: 269 284<138.121 740.027>
LayerCount: 2
Fore
SplineSet
511 -250 m 2,0,1
 494 -250 494 -250 480 -228 c 0,2,3
 269 96 269 96 269 463 c 0,4,5
 269 605 269 605 300 754 c 0,6,7
 413 1286 413 1286 897 1738 c 0,8,9
 921 1760 921 1760 938 1760 c 2,10,-1
 1030 1760 l 2,11,12
 1051 1760 1051 1760 1051 1747 c 0,13,14
 1051 1739 1051 1739 1041 1726 c 0,15,16
 708 1261 708 1261 600 754 c 0,17,18
 553 530 553 530 553 314 c 0,19,20
 553 42 553 42 628 -216 c 0,21,22
 631 -226 631 -226 631 -231 c 0,23,24
 631 -250 631 -250 603 -250 c 2,25,-1
 511 -250 l 2,0,1
EndSplineSet
Validated: 1
EndChar

StartChar: asterisk
Encoding: 42 42 130
Width: 862
Flags: W
HStem: 1490 20G<679.5 820.5>
DStem2: 486.222 707 676.222 707 0.207912 0.978148<32.1239 262.773 597.643 829.509>
LayerCount: 2
Fore
SplineSet
701 1510 m 2,0,-1
 801 1510 l 2,1,2
 840 1510 840 1510 840 1480 c 0,3,4
 840 1475 840 1475 838 1466 c 2,5,-1
 792 1253 l 1,6,-1
 984 1370 l 2,7,8
 997 1378 997 1378 1012 1378 c 0,9,10
 1032 1378 1032 1378 1041 1353 c 2,11,-1
 1072 1267 l 2,12,13
 1076 1256 1076 1256 1076 1246 c 0,14,15
 1076 1220 1076 1220 1044 1205 c 2,16,-1
 837 1108 l 1,17,-1
 1001 1013 l 2,18,19
 1020 1002 1020 1002 1020 984 c 0,20,21
 1020 969 1020 969 1005 950 c 2,22,-1
 937 864 l 2,23,24
 918 840 918 840 898 840 c 0,25,26
 881 840 881 840 871 848 c 2,27,-1
 731 964 l 1,28,-1
 686 753 l 2,29,30
 676 707 676 707 630 707 c 2,31,-1
 530 707 l 2,32,33
 494 707 494 707 494 738 c 0,34,35
 494 744 494 744 496 753 c 2,36,-1
 541 964 l 1,37,-1
 351 848 l 2,38,39
 338 840 338 840 323 840 c 0,40,41
 301 840 301 840 292 865 c 2,42,-1
 260 952 l 2,43,44
 256 963 256 963 256 971 c 0,45,46
 256 997 256 997 291 1013 c 2,47,-1
 497 1108 l 1,48,-1
 330 1205 l 2,49,50
 312 1215 312 1215 312 1233 c 0,51,52
 312 1246 312 1246 327 1265 c 2,53,-1
 395 1352 l 2,54,55
 415 1377 415 1377 437 1377 c 0,56,57
 452 1377 452 1377 460 1370 c 2,58,-1
 602 1253 l 1,59,-1
 648 1466 l 2,60,61
 658 1510 658 1510 701 1510 c 2,0,-1
EndSplineSet
Validated: 1
EndChar

StartChar: plus
Encoding: 43 43 131
Width: 1133
Flags: W
HStem: 630 250<269.656 576 879 1184.34>
DStem2: 500.971 278 750.971 278 0.207912 0.978148<45.6378 359.907 667.441 980.525>
LayerCount: 2
Fore
SplineSet
768 1232 m 2,0,-1
 888 1232 l 2,1,2
 942 1232 942 1232 942 1187 c 0,3,4
 942 1177 942 1177 940 1166 c 2,5,-1
 879 880 l 1,6,-1
 1165 880 l 2,7,8
 1218 880 1218 880 1218 836 c 0,9,10
 1218 827 1218 827 1216 815 c 2,11,-1
 1191 695 l 2,12,13
 1177 630 1177 630 1112 630 c 2,14,-1
 826 630 l 1,15,-1
 765 344 l 2,16,17
 751 278 751 278 685 278 c 2,18,-1
 565 278 l 2,19,20
 512 278 512 278 512 322 c 0,21,22
 512 332 512 332 515 344 c 2,23,-1
 576 630 l 1,24,-1
 289 630 l 2,25,26
 236 630 236 630 236 674 c 0,27,28
 236 683 236 683 238 695 c 2,29,-1
 263 815 l 2,30,31
 277 880 277 880 342 880 c 2,32,-1
 629 880 l 1,33,-1
 690 1166 l 2,34,35
 704 1232 704 1232 768 1232 c 2,0,-1
EndSplineSet
Validated: 1
EndChar

StartChar: comma
Encoding: 44 44 132
Width: 415
Flags: W
HStem: -317 637
VStem: 161 214<-102.296 137.379>
LayerCount: 2
Fore
SplineSet
284 320 m 0,0,1
 313 320 313 320 326 297 c 0,2,3
 375 208 375 208 375 95 c 0,4,5
 375 64 375 64 372 32 c 0,6,7
 350 -156 350 -156 150 -296 c 0,8,9
 120 -317 120 -317 100 -317 c 0,10,11
 82 -317 82 -317 65 -302 c 2,12,-1
 42 -282 l 2,13,14
 29 -271 29 -271 29 -254 c 128,-1,15
 29 -237 29 -237 51 -218 c 0,16,17
 136 -144 136 -144 153 -66 c 0,18,19
 161 -28 161 -28 161 6 c 0,20,21
 161 93 161 93 107 149 c 0,22,23
 91 165 91 165 91 187 c 0,24,25
 91 218 91 218 135 244 c 2,26,-1
 240 307 l 2,27,28
 262 320 262 320 284 320 c 0,0,1
EndSplineSet
Validated: 1
EndChar

StartChar: hyphen
Encoding: 45 45 133
Width: 1133
Flags: W
HStem: 630 250<269.656 1184.34>
LayerCount: 2
Fore
SplineSet
342 880 m 2,0,-1
 1165 880 l 2,1,2
 1218 880 1218 880 1218 836 c 0,3,4
 1218 827 1218 827 1216 815 c 2,5,-1
 1191 695 l 2,6,7
 1177 630 1177 630 1112 630 c 2,8,-1
 289 630 l 2,9,10
 236 630 236 630 236 674 c 0,11,12
 236 683 236 683 238 695 c 2,13,-1
 263 815 l 2,14,15
 277 880 277 880 342 880 c 2,0,-1
EndSplineSet
Validated: 1
EndChar

StartChar: period
Encoding: 46 46 134
Width: 460
Flags: W
HStem: -20 365<146.131 380.878>
VStem: 84 360<42.5657 282.578>
LayerCount: 2
Fore
SplineSet
264 -20 m 0,0,1
 188 -20 188 -20 136 34 c 128,-1,2
 84 88 84 88 84 162 c 0,3,4
 84 238 84 238 136 291 c 0,5,6
 189 345 189 345 264 345 c 128,-1,7
 339 345 339 345 391.5 291.5 c 128,-1,8
 444 238 444 238 444 163 c 128,-1,9
 444 88 444 88 391 34 c 128,-1,10
 338 -20 338 -20 264 -20 c 0,0,1
EndSplineSet
Validated: 1
EndChar

StartChar: slash
Encoding: 47 47 135
Width: 1194
Flags: W
DStem2: 27 19 249 -110 0.612163 0.790731<-36.2731 2098>
LayerCount: 2
Fore
SplineSet
1333 1662 m 0,0,1
 1347 1662 1347 1662 1373 1649 c 2,2,-1
 1484 1593 l 2,3,4
 1511 1579 1511 1579 1511 1549 c 0,5,6
 1511 1521 1511 1521 1489 1493 c 2,7,-1
 249 -110 l 2,8,9
 218 -150 218 -150 185 -150 c 0,10,11
 169 -150 169 -150 143 -137 c 2,12,-1
 32 -81 l 2,13,14
 4 -67 4 -67 4 -34 c 0,15,16
 4 -11 4 -11 27 19 c 2,17,-1
 1268 1622 l 2,18,19
 1299 1662 1299 1662 1333 1662 c 0,0,1
EndSplineSet
Validated: 1
EndChar

StartChar: colon
Encoding: 58 58 136
Width: 460
Flags: W
HStem: -20 365<146.131 380.878> 573 365<272.131 506.878>
VStem: 84 360<42.5657 282.578> 210 360<635.566 875.578>
LayerCount: 2
Fore
SplineSet
390 938 m 128,-1,1
 465 938 465 938 517.5 884.5 c 128,-1,2
 570 831 570 831 570 756 c 128,-1,3
 570 681 570 681 517 627 c 128,-1,4
 464 573 464 573 390 573 c 0,5,6
 314 573 314 573 262 627 c 128,-1,7
 210 681 210 681 210 755 c 0,8,9
 210 831 210 831 262 884 c 0,10,0
 315 938 315 938 390 938 c 128,-1,1
264 -20 m 0,11,12
 188 -20 188 -20 136 34 c 128,-1,13
 84 88 84 88 84 162 c 0,14,15
 84 238 84 238 136 291 c 0,16,17
 189 345 189 345 264 345 c 128,-1,18
 339 345 339 345 391.5 291.5 c 128,-1,19
 444 238 444 238 444 163 c 128,-1,20
 444 88 444 88 391 34 c 128,-1,21
 338 -20 338 -20 264 -20 c 0,11,12
EndSplineSet
Validated: 1
EndChar

StartChar: semicolon
Encoding: 59 59 137
Width: 487
Flags: W
HStem: 573 365<292.131 526.878>
VStem: 230 360<635.566 875.578> 233 214<-102.296 137.379>
LayerCount: 2
Fore
SplineSet
356 320 m 0,0,1
 385 320 385 320 398 297 c 0,2,3
 447 208 447 208 447 95 c 0,4,5
 447 64 447 64 444 32 c 0,6,7
 422 -156 422 -156 222 -296 c 0,8,9
 192 -317 192 -317 172 -317 c 0,10,11
 154 -317 154 -317 137 -302 c 2,12,-1
 114 -282 l 2,13,14
 101 -271 101 -271 101 -254 c 128,-1,15
 101 -237 101 -237 123 -218 c 0,16,17
 208 -144 208 -144 225 -66 c 0,18,19
 233 -28 233 -28 233 6 c 0,20,21
 233 93 233 93 179 149 c 0,22,23
 163 165 163 165 163 187 c 0,24,25
 163 218 163 218 207 244 c 2,26,-1
 312 307 l 2,27,28
 334 320 334 320 356 320 c 0,0,1
410 938 m 128,-1,30
 485 938 485 938 537.5 884.5 c 128,-1,31
 590 831 590 831 590 756 c 128,-1,32
 590 681 590 681 537 627 c 128,-1,33
 484 573 484 573 410 573 c 0,34,35
 334 573 334 573 282 627 c 128,-1,36
 230 681 230 681 230 755 c 0,37,38
 230 831 230 831 282 884 c 0,39,29
 335 938 335 938 410 938 c 128,-1,30
EndSplineSet
Validated: 1
EndChar

StartChar: less
Encoding: 60 60 138
Width: 1150
Flags: W
DStem2: 476 797 276 639 0.85125 -0.524761<0 697.434> 327 880 476 797 0.898758 0.438444<97.5241 990.783>
LayerCount: 2
Fore
SplineSet
262 810 m 2,0,1
 271 853 271 853 327 880 c 2,2,-1
 1190 1301 l 2,3,4
 1208 1310 1208 1310 1220 1310 c 0,5,6
 1243 1310 1243 1310 1254 1283 c 2,7,-1
 1274 1229 l 2,8,9
 1278 1218 1278 1218 1278 1207 c 0,10,11
 1278 1178 1278 1178 1242 1161 c 2,12,-1
 476 797 l 1,13,-1
 1076 440 l 2,14,15
 1096 428 1096 428 1096 411 c 128,-1,16
 1096 394 1096 394 1079 372 c 2,17,-1
 992 260 l 2,18,19
 971 233 971 233 948 233 c 0,20,21
 936 233 936 233 920 242 c 2,22,-1
 276 639 l 2,23,24
 239 662 239 662 239 692 c 0,25,26
 239 701 239 701 241 709 c 2,27,-1
 262 810 l 2,0,1
EndSplineSet
Validated: 1
EndChar

StartChar: equal
Encoding: 61 61 139
Width: 1133
Flags: W
HStem: 430 250<227.988 1141.01> 830 250<312.988 1226.01>
LayerCount: 2
Fore
SplineSet
385 1080 m 2,0,-1
 1208 1080 l 2,1,2
 1261 1080 1261 1080 1261 1036 c 0,3,4
 1261 1027 1261 1027 1259 1015 c 2,5,-1
 1233 895 l 2,6,7
 1219 830 1219 830 1154 830 c 2,8,-1
 331 830 l 2,9,10
 278 830 278 830 278 874 c 0,11,12
 278 883 278 883 280 895 c 2,13,-1
 306 1015 l 2,14,15
 320 1080 320 1080 385 1080 c 2,0,-1
300 680 m 2,16,-1
 1123 680 l 2,17,18
 1176 680 1176 680 1176 636 c 0,19,20
 1176 627 1176 627 1174 615 c 2,21,-1
 1148 495 l 2,22,23
 1134 430 1134 430 1069 430 c 2,24,-1
 246 430 l 2,25,26
 193 430 193 430 193 474 c 0,27,28
 193 483 193 483 195 495 c 2,29,-1
 221 615 l 2,30,31
 235 680 235 680 300 680 c 2,16,-1
EndSplineSet
Validated: 1
EndChar

StartChar: greater
Encoding: 62 62 140
Width: 1150
Flags: W
DStem2: 1202 904 1002 746 0.85125 -0.524761<-784.771 -87.3377> 1002 746 288 242 0.898758 0.438444<-893.259 0>
LayerCount: 2
Fore
SplineSet
1216 733 m 2,0,1
 1207 690 1207 690 1151 663 c 2,2,-1
 288 242 l 2,3,4
 270 233 270 233 258 233 c 0,5,6
 235 233 235 233 224 260 c 2,7,-1
 204 314 l 2,8,9
 200 325 200 325 200 336 c 0,10,11
 200 365 200 365 236 382 c 2,12,-1
 1002 746 l 1,13,-1
 402 1103 l 2,14,15
 382 1115 382 1115 382 1132 c 128,-1,16
 382 1149 382 1149 399 1171 c 2,17,-1
 486 1283 l 2,18,19
 507 1310 507 1310 530 1310 c 0,20,21
 542 1310 542 1310 558 1301 c 2,22,-1
 1202 904 l 2,23,24
 1239 881 1239 881 1239 851 c 0,25,26
 1239 842 1239 842 1237 834 c 2,27,-1
 1216 733 l 2,0,1
EndSplineSet
Validated: 1
EndChar

StartChar: question
Encoding: 63 63 141
Width: 1191
Flags: W
HStem: -20 365<426.131 660.878> 1409 121<633.676 940.52>
VStem: 364 360<42.5657 282.578> 1004 335<986.837 1328.5>
LayerCount: 2
Fore
SplineSet
544 -20 m 0,0,1
 468 -20 468 -20 416 34 c 128,-1,2
 364 88 364 88 364 162 c 0,3,4
 364 238 364 238 416 291 c 0,5,6
 469 345 469 345 544 345 c 128,-1,7
 619 345 619 345 671.5 291.5 c 128,-1,8
 724 238 724 238 724 163 c 128,-1,9
 724 88 724 88 671 34 c 128,-1,10
 618 -20 618 -20 544 -20 c 0,0,1
862 1530 m 0,11,12
 1120 1530 1120 1530 1245 1396 c 0,13,14
 1339 1295 1339 1295 1339 1163 c 0,15,16
 1339 1122 1339 1122 1330 1078 c 0,17,18
 1301 942 1301 942 1235 857 c 0,19,20
 1135 728 1135 728 952 626 c 0,21,22
 680 475 680 475 671 435 c 0,23,24
 664 400 664 400 636 400 c 2,25,-1
 539 400 l 2,26,27
 514 400 514 400 514 420 c 0,28,29
 514 424 514 424 515 429 c 0,30,31
 549 590 549 590 794 786 c 0,32,33
 956 917 956 917 991 1080 c 0,34,35
 1004 1141 1004 1141 1004 1196 c 0,36,37
 1004 1257 1004 1257 985 1300 c 0,38,39
 938 1409 938 1409 817 1409 c 0,40,41
 518 1409 518 1409 396 1042 c 0,42,43
 391 1027 391 1027 378 1027 c 2,44,-1
 323 1027 l 2,45,46
 310 1027 310 1027 310 1035 c 0,47,48
 310 1037 310 1037 311 1042 c 2,49,-1
 370 1318 l 2,50,51
 380 1366 380 1366 420 1392 c 0,52,53
 629 1530 629 1530 862 1530 c 0,11,12
EndSplineSet
Validated: 1
EndChar

StartChar: exclam
Encoding: 33 33 142
Width: 692
Flags: W
HStem: -20 365<262.131 496.878> 1490 20G<517.5 809.5>
VStem: 200 360<42.5657 282.578> 335 224<414.077 527.742>
LayerCount: 2
Fore
SplineSet
380 -20 m 0,0,1
 304 -20 304 -20 252 34 c 128,-1,2
 200 88 200 88 200 162 c 0,3,4
 200 238 200 238 252 291 c 0,5,6
 305 345 305 345 380 345 c 128,-1,7
 455 345 455 345 507.5 291.5 c 128,-1,8
 560 238 560 238 560 163 c 128,-1,9
 560 88 560 88 507 34 c 128,-1,10
 454 -20 454 -20 380 -20 c 0,0,1
557 1510 m 2,11,-1
 777 1510 l 2,12,13
 842 1510 842 1510 842 1456 c 0,14,15
 842 1445 842 1445 839 1431 c 1,16,-1
 559 479 l 2,17,18
 536 400 536 400 461 400 c 2,19,-1
 401 400 l 2,20,21
 335 400 335 400 335 460 c 0,22,23
 335 469 335 469 337 479 c 2,24,-1
 461 1431 l 1,25,26
 478 1510 478 1510 557 1510 c 2,11,-1
EndSplineSet
Validated: 1
EndChar

StartChar: quotedbl
Encoding: 34 34 143
Width: 717
Flags: W
HStem: 1089 441<366.289 517.522 716.289 867.522>
VStem: 366 269<1356.02 1529.84> 716 269<1356.02 1529.84>
LayerCount: 2
Fore
SplineSet
765 1530 m 2,0,-1
 952 1530 l 2,1,2
 985 1530 985 1530 985 1502 c 0,3,4
 985 1493 985 1493 981 1480 c 1,5,-1
 868 1135 l 2,6,7
 853 1089 853 1089 802 1089 c 2,8,-1
 727 1089 l 2,9,10
 681 1089 681 1089 681 1127 c 0,11,12
 681 1131 681 1131 681 1135 c 2,13,-1
 716 1480 l 2,14,-1
 716 1489 l 0,15,16
 725 1530 725 1530 765 1530 c 2,0,-1
415 1530 m 2,17,-1
 602 1530 l 2,18,19
 635 1530 635 1530 635 1502 c 0,20,21
 635 1493 635 1493 631 1480 c 1,22,-1
 518 1135 l 2,23,24
 503 1089 503 1089 452 1089 c 2,25,-1
 377 1089 l 2,26,27
 331 1089 331 1089 331 1127 c 0,28,29
 331 1131 331 1131 331 1135 c 2,30,-1
 366 1480 l 2,31,-1
 366 1489 l 0,32,33
 375 1530 375 1530 415 1530 c 2,17,-1
EndSplineSet
Validated: 1
EndChar

StartChar: numbersign
Encoding: 35 35 144
Width: 1254
Flags: W
HStem: 488 190<225.495 465 695 807 1037 1276.5> 829 190<297.495 537 768 879 1110 1349.5>
DStem2: 407.222 216 597.222 216 0.207912 0.978148<32.1539 278.069 511.737 626.587 860.462 1106.41> 749.222 216 939.222 216 0.207912 0.978148<32.1539 278.069 511.737 626.587 860.462 1105.22>
LayerCount: 2
Fore
SplineSet
681 1290 m 2,0,-1
 781 1290 l 2,1,2
 818 1290 818 1290 818 1260 c 0,3,4
 818 1254 818 1254 816 1246 c 2,5,-1
 768 1019 l 1,6,-1
 920 1019 l 1,7,-1
 968 1246 l 2,8,9
 977 1290 977 1290 1021 1290 c 2,10,-1
 1121 1290 l 2,11,12
 1159 1290 1159 1290 1159 1259 c 0,13,14
 1159 1253 1159 1253 1158 1246 c 2,15,-1
 1110 1019 l 1,16,-1
 1336 1019 l 2,17,18
 1373 1019 1373 1019 1373 989 c 0,19,20
 1373 982 1373 982 1371 974 c 2,21,-1
 1350 874 l 2,22,23
 1340 829 1340 829 1295 829 c 2,24,-1
 1069 829 l 1,25,-1
 1037 678 l 1,26,-1
 1263 678 l 2,27,28
 1300 678 1300 678 1300 647 c 0,29,30
 1300 641 1300 641 1299 633 c 2,31,-1
 1277 533 l 2,32,33
 1267 488 1267 488 1223 488 c 2,34,-1
 997 488 l 1,35,-1
 949 262 l 2,36,37
 939 216 939 216 893 216 c 2,38,-1
 793 216 l 2,39,40
 757 216 757 216 757 247 c 0,41,42
 757 254 757 254 759 262 c 2,43,-1
 807 488 l 1,44,-1
 655 488 l 1,45,-1
 607 262 l 2,46,47
 597 216 597 216 553 216 c 2,48,-1
 451 216 l 2,49,50
 415 216 415 216 415 247 c 0,51,52
 415 254 415 254 417 262 c 2,53,-1
 465 488 l 1,54,-1
 239 488 l 2,55,56
 202 488 202 488 202 519 c 0,57,58
 202 525 202 525 203 533 c 2,59,-1
 225 634 l 2,60,61
 234 678 234 678 279 678 c 2,62,-1
 505 678 l 1,63,-1
 537 829 l 1,64,-1
 311 829 l 2,65,66
 274 829 274 829 274 859 c 0,67,68
 274 866 274 866 276 874 c 2,69,-1
 297 975 l 2,70,71
 306 1019 306 1019 352 1019 c 2,72,-1
 578 1019 l 1,73,-1
 626 1246 l 2,74,75
 635 1290 635 1290 681 1290 c 2,0,-1
695 678 m 1,76,-1
 847 678 l 1,77,-1
 879 829 l 1,78,-1
 727 829 l 1,79,-1
 695 678 l 1,76,-1
EndSplineSet
Validated: 1
EndChar

StartChar: parenright
Encoding: 41 41 145
Width: 700
Flags: W
VStem: 468 284<769.973 1371.88>
LayerCount: 2
Fore
SplineSet
510 1760 m 2,0,1
 527 1760 527 1760 541 1738 c 0,2,3
 752 1414 752 1414 752 1047 c 0,4,5
 752 905 752 905 721 756 c 0,6,7
 608 224 608 224 124 -228 c 0,8,9
 100 -250 100 -250 83 -250 c 2,10,-1
 -9 -250 l 2,11,12
 -30 -250 -30 -250 -30 -237 c 0,13,14
 -30 -229 -30 -229 -20 -216 c 0,15,16
 313 249 313 249 421 756 c 0,17,18
 468 980 468 980 468 1196 c 0,19,20
 468 1468 468 1468 393 1726 c 0,21,22
 390 1736 390 1736 390 1741 c 0,23,24
 390 1760 390 1760 418 1760 c 2,25,-1
 510 1760 l 2,0,1
EndSplineSet
Validated: 1
EndChar

StartChar: quotesingle
Encoding: 39 39 146
Width: 367
Flags: W
HStem: 1089 441<366.289 517.522>
VStem: 366 269<1356.02 1529.84>
LayerCount: 2
Fore
SplineSet
415 1530 m 2,0,-1
 602 1530 l 2,1,2
 635 1530 635 1530 635 1502 c 0,3,4
 635 1493 635 1493 631 1480 c 1,5,-1
 518 1135 l 2,6,7
 503 1089 503 1089 452 1089 c 2,8,-1
 377 1089 l 2,9,10
 331 1089 331 1089 331 1127 c 0,11,12
 331 1131 331 1131 331 1135 c 2,13,-1
 366 1480 l 2,14,-1
 366 1489 l 0,15,16
 375 1530 375 1530 415 1530 c 2,0,-1
EndSplineSet
Validated: 1
EndChar

StartChar: dollar
Encoding: 36 36 147
Width: 1200
Flags: W
HStem: -20 120<334.857 538> 1395 129<996 1059.7>
VStem: 78 146<168 468> 372 311<1061 1240.78> 907 326<381.835 605.963> 1141 136<1095 1356>
DStem2: 503.561 -180 633.561 -180 0.207912 0.978148<24.9675 163.664 372.703 875.575 1240.23 1598.94 1769.15 1913.92>
LayerCount: 2
Fore
SplineSet
538 -20 m 1,0,1
 252 -20 252 -20 99 118 c 0,2,3
 78 137 78 137 78 168 c 0,4,5
 78 178 78 178 81 192 c 2,6,-1
 139 468 l 2,7,8
 142 483 142 483 158 483 c 2,9,-1
 213 483 l 2,10,11
 224 483 224 483 224 468 c 0,12,13
 224 100 224 100 476 100 c 0,14,15
 522 100 522 100 565 107 c 1,16,-1
 693 709 l 1,17,-1
 591 758 l 2,18,19
 478 812 478 812 424 892 c 0,20,21
 372 970 372 970 372 1061 c 0,22,23
 372 1098 372 1098 380 1136 c 0,24,25
 397 1219 397 1219 446 1293 c 0,26,27
 505 1383 505 1383 608 1450 c 0,28,29
 718 1520 718 1520 867 1529 c 1,30,-1
 894 1655 l 2,31,32
 901 1690 901 1690 936 1690 c 2,33,-1
 996 1690 l 2,34,35
 1025 1690 1025 1690 1025 1666 c 0,36,37
 1025 1661 1025 1661 1024 1655 c 2,38,-1
 996 1524 l 1,39,40
 1149 1503 1149 1503 1256 1406 c 0,41,42
 1277 1387 1277 1387 1277 1356 c 0,43,44
 1277 1346 1277 1346 1274 1332 c 2,45,-1
 1224 1095 l 2,46,47
 1221 1080 1221 1080 1206 1080 c 2,48,-1
 1153 1080 l 2,49,50
 1141 1080 1141 1080 1141 1095 c 0,51,52
 1141 1366 1141 1366 969 1395 c 1,53,-1
 879 972 l 1,54,-1
 1013 909 l 2,55,56
 1145 847 1145 847 1202 719 c 0,57,58
 1233 649 1233 649 1233 573 c 0,59,60
 1233 531 1233 531 1224 488 c 0,61,62
 1185 304 1185 304 1014 155 c 0,63,64
 864 23 864 23 670 -9 c 1,65,-1
 641 -145 l 2,66,67
 634 -180 634 -180 599 -180 c 2,68,-1
 539 -180 l 2,69,70
 510 -180 510 -180 510 -156 c 0,71,72
 510 -151 510 -151 511 -145 c 2,73,-1
 538 -20 l 1,0,1
762 1033 m 1,74,-1
 836 1384 l 1,75,76
 800 1371 800 1371 768 1346 c 0,77,78
 697 1291 697 1291 686 1212 c 0,79,80
 683 1192 683 1192 683 1174 c 0,81,82
 683 1117 683 1117 712 1079 c 0,83,84
 732 1054 732 1054 762 1033 c 1,74,-1
810 650 m 1,85,-1
 706 158 l 1,86,87
 737 176 737 176 765 200 c 0,88,89
 868 285 868 285 898 403 c 0,90,91
 907 439 907 439 907 474 c 0,92,93
 907 520 907 520 891 563 c 0,94,95
 872 611 872 611 810 650 c 1,85,-1
EndSplineSet
Validated: 1
EndChar

StartChar: percent
Encoding: 37 37 148
Width: 1786
Flags: W
HStem: -20 78<1286.21 1430.16> 645 77<1395.94 1537.58> 788 78<571.964 713.88> 1453 77<679.89 821.563>
VStem: 318 222<920.694 1260.63> 851 221<1056.36 1397.94> 1035 222<112.563 452.63> 1567 222<248.357 589.806>
DStem2: 396 129 608 0 0.624074 0.781365<-39.0561 1838.59>
LayerCount: 2
Fore
SplineSet
544 -40 m 0,0,1
 525 -40 525 -40 502 -27 c 2,2,-1
 401 29 l 2,3,4
 373 45 373 45 373 75 c 24,5,6
 373 100 373 100 396 129 c 2,7,-1
 1499 1510 l 2,8,9
 1531 1550 1531 1550 1564 1550 c 0,10,11
 1581 1550 1581 1550 1604 1537 c 2,12,-1
 1705 1481 l 2,13,14
 1733 1465 1733 1465 1733 1436 c 24,15,16
 1733 1409 1733 1409 1711 1381 c 2,17,-1
 608 0 l 2,18,19
 576 -40 576 -40 544 -40 c 0,0,1
1475 645 m 128,-1,21
 1415 645 1415 645 1356 560.5 c 128,-1,22
 1297 476 1297 476 1271 352 c 0,23,24
 1257 285 1257 285 1257 230 c 0,25,26
 1257 182 1257 182 1267 142 c 0,27,28
 1290 58 1290 58 1350 58 c 128,-1,29
 1410 58 1410 58 1468 142.5 c 128,-1,30
 1526 227 1526 227 1553 352 c 0,31,32
 1567 420 1567 420 1567 476 c 0,33,34
 1567 523 1567 523 1557 561 c 0,35,20
 1535 645 1535 645 1475 645 c 128,-1,21
1333 -20 m 0,36,37
 1178 -20 1178 -20 1096 89 c 0,38,39
 1035 168 1035 168 1035 270 c 0,40,41
 1035 309 1035 309 1044 352 c 0,42,43
 1077 506 1077 506 1207 613 c 0,44,45
 1338 722 1338 722 1490 722 c 0,46,47
 1645 722 1645 722 1728 613 c 0,48,49
 1789 533 1789 533 1789 431 c 0,50,51
 1789 392 1789 392 1780 350 c 0,52,53
 1747 196 1747 196 1617 89 c 0,54,55
 1485 -20 1485 -20 1333 -20 c 0,36,37
759 1453 m 128,-1,57
 699 1453 699 1453 640 1368.5 c 128,-1,58
 581 1284 581 1284 554 1160 c 0,59,60
 540 1093 540 1093 540 1038 c 0,61,62
 540 990 540 990 551 950 c 0,63,64
 574 866 574 866 634 866 c 128,-1,65
 694 866 694 866 752 950.5 c 128,-1,66
 810 1035 810 1035 837 1160 c 0,67,68
 851 1228 851 1228 851 1284 c 0,69,70
 851 1331 851 1331 841 1369 c 0,71,56
 819 1453 819 1453 759 1453 c 128,-1,57
774 1530 m 0,72,73
 929 1530 929 1530 1011 1421 c 0,74,75
 1072 1342 1072 1342 1072 1240 c 0,76,77
 1072 1201 1072 1201 1063 1158 c 0,78,79
 1030 1004 1030 1004 900 897 c 0,80,81
 769 788 769 788 616 788 c 0,82,83
 461 788 461 788 379 897 c 0,84,85
 318 977 318 977 318 1079 c 0,86,87
 318 1118 318 1118 327 1160 c 0,88,89
 360 1314 360 1314 490 1421 c 0,90,91
 622 1530 622 1530 774 1530 c 0,72,73
EndSplineSet
Validated: 1
EndChar

StartChar: zero
Encoding: 48 48 149
Width: 1276
Flags: W
HStem: -20 119<574.364 764.312> 1411 119<834.826 1022.16>
VStem: 195 315<256.568 778.105> 1088 316<722.332 1252.46>
LayerCount: 2
Fore
SplineSet
659 99 m 0,0,1
 761 99 761 99 863 262 c 0,2,3
 991 468 991 468 1051 755 c 0,4,5
 1088 928 1088 928 1088 1072 c 0,6,7
 1088 1167 1088 1167 1072 1248 c 0,8,9
 1040 1411 1040 1411 938 1411 c 0,10,11
 838 1411 838 1411 734 1248 c 0,12,13
 614 1060 614 1060 549 755 c 0,14,15
 510 571 510 571 510 423 c 0,16,17
 510 334 510 334 525 262 c 0,18,19
 559 99 559 99 659 99 c 0,0,1
634 -20 m 0,20,21
 356 -20 356 -20 255 216 c 0,22,23
 195 357 195 357 195 525 c 0,24,25
 195 634 195 634 220 754 c 0,26,27
 284 1057 284 1057 484 1294 c 0,28,29
 682 1530 682 1530 963 1530 c 0,30,31
 1231 1530 1231 1530 1342 1294 c 0,32,33
 1404 1162 1404 1162 1404 994 c 0,34,35
 1404 882 1404 882 1376 755 c 0,36,37
 1308 435 1308 435 1113 216 c 0,38,39
 902 -20 902 -20 634 -20 c 0,20,21
EndSplineSet
Validated: 1
EndChar

StartChar: seven
Encoding: 55 55 150
Width: 1076
Flags: W
HStem: 0 21G<252 492.5> 1370 140<478.11 1005>
DStem2: 249 97 579 83 0.509381 0.860541<36.3113 1480.56>
LayerCount: 2
Fore
SplineSet
281 0 m 2,0,1
 223 0 223 0 223 34 c 0,2,3
 223 54 223 54 249 97 c 2,4,-1
 1005 1370 l 1,5,-1
 648 1370 l 2,6,7
 479 1370 479 1370 360 1224 c 0,8,9
 352 1214 352 1214 345 1214 c 0,10,11
 342 1214 342 1214 338 1216 c 2,12,-1
 293 1244 l 2,13,14
 287 1248 287 1248 287 1254 c 0,15,16
 287 1259 287 1259 290 1263 c 2,17,-1
 440 1447 l 2,18,19
 491 1510 491 1510 560 1510 c 2,20,-1
 1342 1510 l 2,21,22
 1371 1510 1371 1510 1371 1487 c 0,23,24
 1371 1482 1371 1482 1370 1476 c 2,25,-1
 1354 1401 l 2,26,27
 1351 1388 1351 1388 1342 1372 c 2,28,-1
 579 83 l 2,29,30
 530 0 530 0 455 0 c 2,31,-1
 281 0 l 2,0,1
EndSplineSet
Validated: 1
EndChar

StartChar: eight
Encoding: 56 56 151
Width: 1230
Flags: W
HStem: -20 120<536.968 753.071> 752 120<726.389 873.211> 1408 122<823.982 986.43>
VStem: 167 318<186.05 538.117> 395 304<914.605 1223.22> 928 333<365.599 694.374> 1016 295<1034.5 1366.46>
LayerCount: 2
Fore
SplineSet
915 1408 m 0,0,1
 860 1408 860 1408 805 1346 c 0,2,3
 742 1275 742 1275 713 1141 c 0,4,5
 699 1077 699 1077 699 1029 c 0,6,7
 699 972 699 972 717 932 c 0,8,9
 745 872 745 872 803 872 c 0,10,11
 856 872 856 872 907 928 c 0,12,13
 976 1007 976 1007 1004 1141 c 0,14,15
 1016 1199 1016 1199 1016 1249 c 0,16,17
 1016 1307 1016 1307 997 1347 c 0,18,19
 969 1408 969 1408 915 1408 c 0,0,1
776 752 m 0,20,21
 692 752 692 752 611 665 c 0,22,23
 526 573 526 573 496 429 c 0,24,25
 485 376 485 376 485 327 c 0,26,27
 485 252 485 252 512 186 c 0,28,29
 548 100 548 100 637 100 c 0,30,31
 718 100 718 100 799 186 c 0,32,33
 884 277 884 277 916 427 c 0,34,35
 928 486 928 486 928 536 c 0,36,37
 928 612 928 612 900 668 c 0,38,39
 858 752 858 752 776 752 c 0,20,21
611 -20 m 128,-1,41
 389 -20 389 -20 262 118 c 0,42,43
 167 221 167 221 167 362 c 0,44,45
 167 411 167 411 179 465 c 0,46,47
 200 563 200 563 248 643 c 0,48,49
 309 746 309 746 411 816 c 0,50,51
 436 833 436 833 461 847 c 1,52,53
 395 925 395 925 395 1033 c 0,54,55
 395 1075 395 1075 405 1121 c 0,56,57
 442 1295 442 1295 598 1413 c 0,58,59
 753 1530 753 1530 939 1530 c 128,-1,60
 1125 1530 1125 1530 1231 1413 c 0,61,62
 1311 1324 1311 1324 1311 1207 c 0,63,64
 1311 1166 1311 1166 1301 1121 c 0,65,66
 1267 961 1267 961 1128 848 c 1,67,68
 1148 833 1148 833 1165 815 c 0,69,70
 1261 717 1261 717 1261 574 c 0,71,72
 1261 524 1261 524 1249 468 c 0,73,74
 1204 257 1204 257 1018 118 c 0,75,40
 833 -20 833 -20 611 -20 c 128,-1,41
EndSplineSet
Validated: 1
EndChar

StartChar: nine
Encoding: 57 57 152
Width: 1232
Flags: W
HStem: 0 21G<299 564.5> 502 119<658.935 714> 1411 119<808.731 1007.53>
VStem: 283 316<711.54 1115.62> 1065 321<915.132 1309.98>
DStem2: 311 99 631 45 0.695498 0.718528<78.9195 569.852 684.33 1042.36>
LayerCount: 2
Fore
SplineSet
328 0 m 2,0,1
 270 0 270 0 270 36 c 0,2,3
 270 58 270 58 311 99 c 2,4,-1
 714 502 l 1,5,6
 486 502 486 502 368 649 c 0,7,8
 283 755 283 755 283 898 c 0,9,10
 283 954 283 954 296 1016 c 0,11,12
 343 1236 343 1236 530 1383 c 128,-1,13
 717 1530 717 1530 941 1530 c 0,14,15
 1162 1530 1162 1530 1289 1386 c 0,16,17
 1386 1276 1386 1276 1386 1121 c 0,18,19
 1386 1074 1386 1074 1377 1024 c 0,20,21
 1339 808 1339 808 1105 556 c 2,22,-1
 631 45 l 2,23,24
 589 0 589 0 540 0 c 2,25,-1
 328 0 l 2,0,1
916 1411 m 0,26,27
 833 1411 833 1411 748 1309 c 0,28,29
 654 1194 654 1194 616 1016 c 0,30,31
 599 937 599 937 599 870 c 0,32,33
 599 787 599 787 625 724 c 0,34,35
 668 621 668 621 748 621 c 0,36,37
 827 621 827 621 915 723 c 0,38,39
 1010 836 1010 836 1049 1019 c 0,40,41
 1065 1096 1065 1096 1065 1163 c 0,42,43
 1065 1246 1065 1246 1040 1311 c 0,44,45
 1000 1411 1000 1411 916 1411 c 0,26,27
EndSplineSet
Validated: 1
EndChar

